<svg xmlns="http://www.w3.org/2000/svg" width="24" height="24" fill="none" viewBox="0 0 24 24">
  <path fill="#4d4a45" d="M18.364 5.636A9 9 0 1 0 5.636 18.364 9 9 0 0 0 18.364 5.636m-2.925 6.992-2.263 2.664-3.44-.628-1.175-3.292 2.263-2.664 3.44.628z" style="fill:#4d4a45;fill:color(display-p3 .302 .2902 .2706);fill-opacity:1"/>
  <path fill="#c3bbac" fill-rule="evenodd" d="M12 2.375a9.62 9.62 0 0 1 8.345 4.832l.009.015A9.625 9.625 0 0 1 3.653 16.79l-.007-.013A9.6 9.6 0 0 1 2.375 12c0-1.759.474-3.406 1.298-4.825q.005-.011.012-.022A9.62 9.62 0 0 1 12 2.375m.437 17.988a8.36 8.36 0 0 0 6.32-3.418l-8.068-1.472zM4.976 16.56a8.37 8.37 0 0 0 6.12 3.766l-2.76-7.724zm9.377-1.689 5.107.933A8.34 8.34 0 0 0 20.375 12a8.3 8.3 0 0 0-.713-3.38zM4.538 8.196A8.34 8.34 0 0 0 3.625 12c0 1.203.255 2.345.712 3.379l5.31-6.251zM9.271 11.5l.932 2.613 2.73.498 1.796-2.114-.934-2.612-2.729-.498zm6.392-.102 3.36-3.957a8.37 8.37 0 0 0-6.119-3.767zm-4.1-7.762a8.36 8.36 0 0 0-6.32 3.417l8.067 1.472z" clip-rule="evenodd" style="fill:#c3bbac;fill:color(display-p3 .7648 .7349 .6752);fill-opacity:1"/>
</svg>
