<svg width="24" height="24" viewBox="0 0 24 24" fill="none" xmlns="http://www.w3.org/2000/svg">
<path d="M12.1836 3.51562L14.2627 9.33496L4.11816 7.4834L4.87012 6.50879C6.40606 4.5172 8.75955 3.18552 11.4307 3.01855L11.9941 2.9834L12.1836 3.51562Z" fill="#F3C399" style="fill:#F3C399;fill:color(display-p3 0.9529 0.7647 0.6000);fill-opacity:1;"/>
<path d="M4.74219 7.59766L10.8232 8.70703L4.14746 16.5664L3.67871 15.4297C3.24249 14.3723 3 13.2141 3 12C3 10.565 3.33716 9.20694 3.93555 8.00195L4.18652 7.49707L4.74219 7.59766Z" fill="#EFBCCE" style="fill:#EFBCCE;fill:color(display-p3 0.9373 0.7373 0.8078);fill-opacity:1;"/>
<path d="M12.0273 21.0801L10.8096 20.9189C8.17919 20.571 5.90955 19.0904 4.50586 16.9834L4.19238 16.5127L8.56055 11.3711L12.0273 21.0801Z" fill="#D1CAE4" style="fill:#D1CAE4;fill:color(display-p3 0.8196 0.7922 0.8941);fill-opacity:1;"/>
<path d="M19.8809 16.5156L19.1289 17.4902C17.5928 19.4821 15.24 20.8137 12.5684 20.9805L12.0049 21.0146L9.73535 14.6641L19.8809 16.5156Z" fill="#B2CEE0" style="fill:#B2CEE0;fill:color(display-p3 0.6980 0.8078 0.8784);fill-opacity:1;"/>
<path d="M20.3203 8.56738C20.7573 9.62562 21 10.7849 21 12C21 13.4353 20.6615 14.7927 20.0635 15.9971L19.8125 16.502L19.2568 16.4014L13.1738 15.291L19.8506 7.43164L20.3203 8.56738Z" fill="#CED59E" style="fill:#CED59E;fill:color(display-p3 0.8078 0.8353 0.6196);fill-opacity:1;"/>
<path d="M13.1885 3.08008C15.8186 3.42743 18.0881 4.9078 19.4922 7.01367L19.8057 7.48438L15.4375 12.626L11.9707 2.91895L13.1885 3.08008Z" fill="#EDD78A" style="fill:#EDD78A;fill:color(display-p3 0.9294 0.8431 0.5412);fill-opacity:1;"/>
<path fill-rule="evenodd" clip-rule="evenodd" d="M12 2.25C17.3848 2.25 21.75 6.61522 21.75 12C21.75 17.3848 17.3848 21.75 12 21.75C11.986 21.75 11.972 21.7491 11.958 21.749L11.957 21.748C6.59202 21.7249 2.25 17.3704 2.25 12C2.25 6.61522 6.61522 2.25 12 2.25ZM12.5215 20.2314C14.9692 20.0787 17.1259 18.8596 18.5352 17.0322L10.8789 15.6348L12.5215 20.2314ZM5.12988 16.5674C6.41751 18.5003 8.49852 19.8571 10.9082 20.1758L8.29102 12.8467L5.12988 16.5674ZM14.5869 14.7861L19.3916 15.6631C19.9397 14.5592 20.25 13.3161 20.25 12C20.25 10.8855 20.0275 9.82333 19.627 8.85352L14.5869 14.7861ZM4.60742 8.33594C4.05918 9.43995 3.75 10.6837 3.75 12C3.75 13.1134 3.97228 14.1745 4.37207 15.1436L9.41016 9.21191L4.60742 8.33594ZM9.41113 11.5264L10.2959 14.0029L12.8838 14.4746L14.5859 12.4707L13.7012 9.99512L11.1143 9.52246L9.41113 11.5264ZM15.707 11.1504L18.8682 7.42969C17.58 5.49775 15.4992 4.14128 13.0898 3.82324L15.707 11.1504ZM11.4775 3.76758C9.0303 3.92054 6.87294 5.13968 5.46387 6.9668L13.1191 8.36426L11.4775 3.76758Z" fill="#2B2B2B" style="fill:#2B2B2B;fill:color(display-p3 0.16863 0.16863 0.16863);fill-opacity:1;"/>
</svg>
