<svg xmlns="http://www.w3.org/2000/svg" width="24" height="24" fill="none" viewBox="0 0 24 24">
  <path fill="#c5c1bb" d="M18.364 5.636A9 9 0 1 0 5.636 18.363 9 9 0 0 0 18.364 5.636m-5.188 9.657-3.44-.628-1.175-3.293 2.263-2.664 3.44.628 1.175 3.292z" style="fill:#c5c1bb;fill:color(display-p3 .7725 .7569 .7333);fill-opacity:1"/>
  <path fill="#2b2b2b" d="M18.894 5.106A9.75 9.75 0 1 0 5.106 18.894 9.75 9.75 0 0 0 18.894 5.106m-1.06 1.06q.579.582 1.031 1.265l-3.157 3.725-2.618-7.333a8.2 8.2 0 0 1 4.744 2.344m-3.247 6.303-1.703 2.003-2.587-.469-.884-2.472 1.703-2.003 2.587.469zM6.166 6.167a8.2 8.2 0 0 1 5.312-2.4l1.641 4.595-7.653-1.394q.324-.424.7-.801m-1.793 8.977a8.29 8.29 0 0 1 .238-6.808l4.8.877zm1.793 2.69a8.3 8.3 0 0 1-1.031-1.265l3.157-3.725 2.618 7.33a8.2 8.2 0 0 1-4.744-2.34m11.668 0a8.2 8.2 0 0 1-5.312 2.398l-1.641-4.594 7.653 1.398q-.325.421-.7.797m-3.246-3.047 5.039-5.931a8.3 8.3 0 0 1-.238 6.808z" style="fill:#2b2b2b;fill:color(display-p3 .16863 .16863 .16863);fill-opacity:1"/>
</svg>
