<svg width="24" height="24" viewBox="0 0 24 24" fill="none" xmlns="http://www.w3.org/2000/svg">
<path d="M18.3637 5.63625C17.1051 4.37752 15.5015 3.5203 13.7556 3.17298C12.0098 2.82566 10.2001 3.00386 8.55556 3.68503C6.91099 4.3662 5.50535 5.51975 4.51639 6.99981C3.52743 8.47986 2.99957 10.2199 2.99957 12C2.99957 13.7801 3.52743 15.5201 4.51639 17.0002C5.50535 18.4803 6.91099 19.6338 8.55556 20.315C10.2001 20.9961 12.0098 21.1743 13.7556 20.827C15.5015 20.4797 17.1051 19.6225 18.3637 18.3638C20.0514 16.6759 20.9996 14.3868 20.9996 12C20.9996 9.61316 20.0514 7.32406 18.3637 5.63625ZM13.1756 15.2925L9.73687 14.6653L8.56124 11.3719L10.8244 8.70844L14.2631 9.33563L15.4387 12.6281L13.1756 15.2925Z" fill="#C5C1BB" style="fill:#C5C1BB;fill:color(display-p3 0.7725 0.7569 0.7333);fill-opacity:1;"/>
<path d="M18.8944 5.10562C17.0659 3.27712 14.5859 2.24988 12 2.24988C9.4141 2.24988 6.93412 3.27712 5.10562 5.10562C3.27712 6.93412 2.24988 9.4141 2.24988 12C2.24988 14.5859 3.27712 17.0659 5.10562 18.8944C6.93412 20.7229 9.4141 21.7501 12 21.7501C14.5859 21.7501 17.0659 20.7229 18.8944 18.8944C20.7229 17.0659 21.7501 14.5859 21.7501 12C21.7501 9.4141 20.7229 6.93412 18.8944 5.10562ZM17.8341 6.16687C18.2186 6.5531 18.5641 6.97641 18.8653 7.43062L15.7078 11.1562L13.0903 3.82312C14.8874 4.05786 16.5558 4.88217 17.8341 6.16687ZM14.5866 12.4687L12.8841 14.4722L10.2975 14.0034L9.41343 11.5312L11.1159 9.52781L13.7025 9.99656L14.5866 12.4687ZM6.16593 6.16687C7.58237 4.74273 9.47286 3.88891 11.4778 3.76781L13.1194 8.36156L5.46562 6.9675C5.68159 6.68583 5.91552 6.4184 6.16593 6.16687ZM4.37343 15.1444C3.92837 14.0575 3.71937 12.8885 3.76026 11.7148C3.80115 10.5411 4.091 9.38947 4.61062 8.33625L9.41156 9.21281L4.37343 15.1444ZM6.16593 17.8331C5.78136 17.4469 5.43593 17.0236 5.13468 16.5694L8.29218 12.8437L10.9097 20.1731C9.1131 19.9394 7.44476 19.1164 6.16593 17.8331ZM17.8341 17.8331C16.4176 19.2573 14.5271 20.1111 12.5222 20.2322L10.8806 15.6384L18.5344 17.0362C18.3183 17.3166 18.0843 17.5828 17.8341 17.8331ZM14.5884 14.7872L19.6266 8.85562C20.0716 9.94245 20.2806 11.1115 20.2397 12.2852C20.1988 13.4589 19.909 14.6105 19.3894 15.6637L14.5884 14.7872Z" fill="#2B2B2B" style="fill:#2B2B2B;fill:color(display-p3 0.16863 0.16863 0.16863);fill-opacity:1;"/>
</svg>
