<svg width="24" height="24" viewBox="0 0 24 24" fill="none" xmlns="http://www.w3.org/2000/svg">
<path d="M18.3638 5.63625C17.1052 4.37752 15.5015 3.5203 13.7557 3.17298C12.0098 2.82566 10.2002 3.00386 8.55562 3.68503C6.91105 4.3662 5.50541 5.51975 4.51645 6.99981C3.52749 8.47986 2.99963 10.2199 2.99963 12C2.99963 13.7801 3.52749 15.5201 4.51645 17.0002C5.50541 18.4803 6.91105 19.6338 8.55562 20.315C10.2002 20.9961 12.0098 21.1743 13.7557 20.827C15.5015 20.4797 17.1052 19.6225 18.3638 18.3638C20.0515 16.6759 20.9996 14.3868 20.9996 12C20.9996 9.61316 20.0515 7.32406 18.3638 5.63625ZM15.4388 12.6281L13.1757 15.2916L9.73693 14.6644L8.56131 11.3719L10.8244 8.70844L14.2632 9.33563L15.4388 12.6281Z" fill="#4D4A45" style="fill:#4D4A45;fill:color(display-p3 0.3020 0.2902 0.2706);fill-opacity:1;"/>
<path fill-rule="evenodd" clip-rule="evenodd" d="M12 2.375C15.57 2.375 18.6831 4.32027 20.3447 7.20703C20.3474 7.21207 20.351 7.21659 20.3535 7.22168C21.1608 8.62998 21.625 10.2603 21.625 12C21.625 17.3157 17.3157 21.625 12 21.625C8.4286 21.625 5.3135 19.6787 3.65234 16.79C3.65011 16.7858 3.64764 16.7816 3.64551 16.7773C2.83861 15.3693 2.375 13.7392 2.375 12C2.375 10.2411 2.84892 8.59366 3.67285 7.1748C3.67711 7.16784 3.68006 7.16009 3.68457 7.15332C5.35371 4.29575 8.45189 2.375 12 2.375ZM12.4365 20.3633C15.0319 20.23 17.3133 18.9143 18.7568 16.9453L10.6895 15.4727L12.4365 20.3633ZM4.97559 16.5586C6.31402 18.6168 8.53077 20.0498 11.0957 20.3252L8.33594 12.6006L4.97559 16.5586ZM14.3525 14.8701L19.46 15.8027C20.043 14.6612 20.375 13.3698 20.375 12C20.375 10.7969 20.1189 9.65414 19.6621 8.62012L14.3525 14.8701ZM4.53906 8.19629C3.95588 9.33792 3.625 10.6301 3.625 12C3.625 13.2026 3.88045 14.3452 4.33691 15.3789L9.64746 9.12793L4.53906 8.19629ZM9.27051 11.5L10.2031 14.1133L12.9326 14.6113L14.7285 12.4971L13.7949 9.88477L11.0664 9.38672L9.27051 11.5ZM15.6631 11.3975L19.0234 7.44141C17.685 5.38342 15.4691 3.94921 12.9043 3.67383L15.6631 11.3975ZM11.5625 3.63574C8.96802 3.76925 6.68659 5.08468 5.24316 7.05273L13.3096 8.52539L11.5625 3.63574Z" fill="#C3BBAC" style="fill:#C3BBAC;fill:color(display-p3 0.7648 0.7349 0.6752);fill-opacity:1;"/>
</svg>
