<svg width="24" height="24" viewBox="0 0 24 24" fill="none" xmlns="http://www.w3.org/2000/svg">
<path d="M16.5 3H7.5C6.30653 3 5.16193 3.47411 4.31802 4.31802C3.47411 5.16193 3 6.30653 3 7.5V16.5C3 17.6935 3.47411 18.8381 4.31802 19.682C5.16193 20.5259 6.30653 21 7.5 21H16.5C17.6935 21 18.8381 20.5259 19.682 19.682C20.5259 18.8381 21 17.6935 21 16.5V7.5C21 6.30653 20.5259 5.16193 19.682 4.31802C18.8381 3.47411 17.6935 3 16.5 3ZM12 15.75C11.2583 15.75 10.5333 15.5301 9.91661 15.118C9.29993 14.706 8.81928 14.1203 8.53545 13.4351C8.25162 12.7498 8.17736 11.9958 8.32205 11.2684C8.46675 10.541 8.8239 9.8728 9.34835 9.34835C9.8728 8.8239 10.541 8.46675 11.2684 8.32205C11.9958 8.17736 12.7498 8.25162 13.4351 8.53545C14.1203 8.81928 14.706 9.29993 15.118 9.91661C15.5301 10.5333 15.75 11.2583 15.75 12C15.75 12.9946 15.3549 13.9484 14.6517 14.6517C13.9484 15.3549 12.9946 15.75 12 15.75Z" fill="#71320D" style="fill:#71320D;fill:color(display-p3 0.4431 0.1961 0.0510);fill-opacity:1;"/>
<path d="M12 15.75C14.0711 15.75 15.75 14.0711 15.75 12C15.75 9.92893 14.0711 8.25 12 8.25C9.92893 8.25 8.25 9.92893 8.25 12C8.25 14.0711 9.92893 15.75 12 15.75Z" fill="#163B66" style="fill:#163B66;fill:color(display-p3 0.0863 0.2314 0.4000);fill-opacity:1;"/>
<path d="M20.375 7.5C20.375 5.3599 18.6401 3.625 16.5 3.625H7.5C5.3599 3.625 3.625 5.3599 3.625 7.5V16.5C3.625 18.6401 5.3599 20.375 7.5 20.375H16.5C18.6401 20.375 20.375 18.6401 20.375 16.5V7.5ZM21.625 16.5C21.625 19.3305 19.3305 21.625 16.5 21.625H7.5C4.66954 21.625 2.375 19.3305 2.375 16.5V7.5C2.375 4.66954 4.66954 2.375 7.5 2.375H16.5C19.3305 2.375 21.625 4.66954 21.625 7.5V16.5Z" fill="#C3BBAC" style="fill:#C3BBAC;fill:color(display-p3 0.7648 0.7349 0.6752);fill-opacity:1;"/>
<path d="M15.125 12C15.125 10.2741 13.7259 8.875 12 8.875C10.2741 8.875 8.875 10.2741 8.875 12C8.875 13.7259 10.2741 15.125 12 15.125C13.7259 15.125 15.125 13.7259 15.125 12ZM16.375 12C16.375 14.4162 14.4162 16.375 12 16.375C9.58375 16.375 7.625 14.4162 7.625 12C7.625 9.58375 9.58375 7.625 12 7.625C14.4162 7.625 16.375 9.58375 16.375 12Z" fill="#C3BBAC" style="fill:#C3BBAC;fill:color(display-p3 0.7648 0.7349 0.6752);fill-opacity:1;"/>
</svg>
