<svg width="24" height="24" viewBox="0 0 24 24" fill="none" xmlns="http://www.w3.org/2000/svg">
<path d="M16.5 3H7.5C6.30653 3 5.16193 3.47411 4.31802 4.31802C3.47411 5.16193 3 6.30653 3 7.5V16.5C3 17.6935 3.47411 18.8381 4.31802 19.682C5.16193 20.5259 6.30653 21 7.5 21H16.5C17.6935 21 18.8381 20.5259 19.682 19.682C20.5259 18.8381 21 17.6935 21 16.5V7.5C21 6.30653 20.5259 5.16193 19.682 4.31802C18.8381 3.47411 17.6935 3 16.5 3ZM12 15.75C11.2583 15.75 10.5333 15.5301 9.91661 15.118C9.29993 14.706 8.81928 14.1203 8.53545 13.4351C8.25162 12.7498 8.17736 11.9958 8.32205 11.2684C8.46675 10.541 8.8239 9.8728 9.34835 9.34835C9.8728 8.8239 10.541 8.46675 11.2684 8.32205C11.9958 8.17736 12.7498 8.25162 13.4351 8.53545C14.1203 8.81928 14.706 9.29993 15.118 9.91661C15.5301 10.5333 15.75 11.2583 15.75 12C15.75 12.9946 15.3549 13.9484 14.6517 14.6517C13.9484 15.3549 12.9946 15.75 12 15.75Z" fill="#B2CEE0" style="fill:#B2CEE0;fill:color(display-p3 0.6980 0.8078 0.8784);fill-opacity:1;"/>
<path d="M12 15.75C14.0711 15.75 15.75 14.0711 15.75 12C15.75 9.92893 14.0711 8.25 12 8.25C9.92893 8.25 8.25 9.92893 8.25 12C8.25 14.0711 9.92893 15.75 12 15.75Z" fill="#EDD78A" style="fill:#EDD78A;fill:color(display-p3 0.9294 0.8431 0.5412);fill-opacity:1;"/>
<path d="M20.25 7.5C20.25 5.42893 18.5711 3.75 16.5 3.75H7.5C5.42893 3.75 3.75 5.42893 3.75 7.5V16.5C3.75 18.5711 5.42893 20.25 7.5 20.25H16.5C18.5711 20.25 20.25 18.5711 20.25 16.5V7.5ZM21.75 16.5C21.75 19.3995 19.3995 21.75 16.5 21.75H7.5C4.6005 21.75 2.25 19.3995 2.25 16.5V7.5C2.25 4.6005 4.6005 2.25 7.5 2.25H16.5C19.3995 2.25 21.75 4.6005 21.75 7.5V16.5Z" fill="#2B2B2B" style="fill:#2B2B2B;fill:color(display-p3 0.16863 0.16863 0.16863);fill-opacity:1;"/>
<path d="M15 12C15 10.3431 13.6569 9 12 9C10.3431 9 9 10.3431 9 12C9 13.6569 10.3431 15 12 15C13.6569 15 15 13.6569 15 12ZM16.5 12C16.5 14.4853 14.4853 16.5 12 16.5C9.51472 16.5 7.5 14.4853 7.5 12C7.5 9.51472 9.51472 7.5 12 7.5C14.4853 7.5 16.5 9.51472 16.5 12Z" fill="#2B2B2B" style="fill:#2B2B2B;fill:color(display-p3 0.16863 0.16863 0.16863);fill-opacity:1;"/>
</svg>
