<svg width="24" height="24" viewBox="0 0 24 24" fill="none" xmlns="http://www.w3.org/2000/svg">
<rect x="2.5" y="4.75" width="19" height="14.5" rx="1" fill="#F7F5F2" style="fill:#F7F5F2;fill:color(display-p3 0.9686 0.9608 0.9490);fill-opacity:1;"/>
<path d="M20.5 5.75C20.5 5.61193 20.3881 5.5 20.25 5.5H3.75C3.61193 5.5 3.5 5.61193 3.5 5.75V18.25C3.5 18.3881 3.61193 18.5 3.75 18.5H20.25C20.3881 18.5 20.5 18.3881 20.5 18.25V5.75ZM22 18.25C22 19.2165 21.2165 20 20.25 20H3.75C2.7835 20 2 19.2165 2 18.25V5.75C2 4.7835 2.7835 4 3.75 4H20.25C21.2165 4 22 4.7835 22 5.75V18.25Z" fill="#2B2B2B" style="fill:#2B2B2B;fill:color(display-p3 0.16863 0.16863 0.16863);fill-opacity:1;"/>
<path d="M15.5 8.25C15.5 8.49723 15.4267 8.7389 15.2893 8.94446C15.152 9.15002 14.9568 9.31024 14.7284 9.40485C14.4999 9.49946 14.2486 9.52421 14.0061 9.47598C13.7637 9.42775 13.5409 9.3087 13.3661 9.13388C13.1913 8.95907 13.0723 8.73634 13.024 8.49386C12.9758 8.25139 13.0005 8.00005 13.0952 7.77165C13.1898 7.54324 13.35 7.34801 13.5555 7.21066C13.7611 7.07331 14.0028 7 14.25 7C14.5815 7 14.8995 7.1317 15.1339 7.36612C15.3683 7.60054 15.5 7.91848 15.5 8.25Z" fill="#7A8C35" style="fill:#7A8C35;fill:color(display-p3 0.4784 0.5490 0.2078);fill-opacity:1;"/>
<path d="M11.5 8.25C11.5 8.49723 11.4267 8.7389 11.2893 8.94446C11.152 9.15002 10.9568 9.31024 10.7284 9.40485C10.4999 9.49946 10.2486 9.52421 10.0061 9.47598C9.76366 9.42775 9.54093 9.3087 9.36612 9.13388C9.1913 8.95907 9.07225 8.73634 9.02402 8.49386C8.97579 8.25139 9.00054 8.00005 9.09515 7.77165C9.18976 7.54324 9.34998 7.34801 9.55554 7.21066C9.7611 7.07331 10.0028 7 10.25 7C10.5815 7 10.8995 7.1317 11.1339 7.36612C11.3683 7.60054 11.5 7.91848 11.5 8.25Z" fill="#B79432" style="fill:#B79432;fill:color(display-p3 0.7176 0.5804 0.1961);fill-opacity:1;"/>
<path d="M7.5 8.25C7.5 8.49723 7.42669 8.7389 7.28934 8.94446C7.15199 9.15002 6.95676 9.31024 6.72835 9.40485C6.49995 9.49946 6.24861 9.52421 6.00614 9.47598C5.76366 9.42775 5.54093 9.3087 5.36612 9.13388C5.1913 8.95907 5.07225 8.73634 5.02402 8.49386C4.97579 8.25139 5.00054 8.00005 5.09515 7.77165C5.18976 7.54324 5.34998 7.34801 5.55554 7.21066C5.7611 7.07331 6.00277 7 6.25 7C6.58152 7 6.89946 7.1317 7.13388 7.36612C7.3683 7.60054 7.5 7.91848 7.5 8.25Z" fill="#B1483C" style="fill:#B1483C;fill:color(display-p3 0.6941 0.2824 0.2353);fill-opacity:1;"/>
</svg>
