<svg width="24" height="24" viewBox="0 0 24 24" fill="none" xmlns="http://www.w3.org/2000/svg">
<path d="M17.8725 3.59909C17.8526 3.50224 17.8136 3.41028 17.758 3.32853C17.7024 3.24677 17.6311 3.17682 17.5483 3.12271C17.4656 3.0686 17.3729 3.0314 17.2757 3.01324C17.1785 2.99508 17.0786 2.99633 16.9819 3.01691L12.5935 3.95441C12.3984 3.99751 12.2282 4.11605 12.1202 4.28413C12.0122 4.45222 11.9751 4.65622 12.0169 4.85159L13.1053 10.0313L18.961 8.77316L17.8725 3.59909Z" fill="#CED59E" style="fill:#CED59E;fill:color(display-p3 0.8078 0.8353 0.6196);fill-opacity:1;"/>
<path d="M16.0182 20.2284L20.4066 19.2909C20.6017 19.2478 20.7718 19.1293 20.8799 18.9612C20.9879 18.7931 21.025 18.5891 20.9832 18.3937L20.5157 16.1696L14.6646 17.4363L15.1275 19.6462C15.1475 19.7431 15.1864 19.835 15.2421 19.9168C15.2977 19.9985 15.369 20.0685 15.4517 20.1226C15.5345 20.1767 15.6272 20.2139 15.7244 20.2321C15.8216 20.2502 15.9214 20.249 16.0182 20.2284Z" fill="#CED59E" style="fill:#CED59E;fill:color(display-p3 0.8078 0.8353 0.6196);fill-opacity:1;"/>
<path d="M4.5 6.75003H10.5V17.25H4.5V6.75003Z" fill="#FDB2A2" style="fill:#FDB2A2;fill:color(display-p3 0.9922 0.6980 0.6353);fill-opacity:1;"/>
<path d="M21.7172 18.2391L18.6056 3.44531C18.5654 3.25185 18.4873 3.06824 18.3759 2.90505C18.2645 2.74185 18.1219 2.60227 17.9564 2.49434C17.7909 2.3864 17.6057 2.31223 17.4114 2.27609C17.2171 2.23995 17.0176 2.24255 16.8244 2.28375L12.4359 3.22687C12.0478 3.31187 11.7089 3.54668 11.4929 3.88026C11.277 4.21383 11.2015 4.61917 11.2828 5.00812L14.3944 19.8019C14.4637 20.1394 14.6471 20.4427 14.9138 20.6609C15.1805 20.8791 15.5142 20.9989 15.8588 21C15.9653 20.9999 16.0715 20.9885 16.1756 20.9662L20.5641 20.0231C20.9527 19.9379 21.292 19.7026 21.5079 19.3685C21.7239 19.0343 21.7991 18.6284 21.7172 18.2391ZM12.75 4.70156C12.75 4.69593 12.75 4.69312 12.75 4.69312L17.1375 3.75562L17.4497 5.24343L13.0622 6.1875L12.75 4.70156ZM13.3706 7.65187L17.76 6.70968L18.0731 8.20031L13.6875 9.14343L13.3706 7.65187ZM13.9931 10.6116L18.3825 9.66843L19.6294 15.5972L15.24 16.5403L13.9931 10.6116ZM20.25 18.5569L15.8625 19.4944L15.5503 18.0066L19.9378 17.0625L20.25 18.5484C20.25 18.5541 20.25 18.5569 20.25 18.5569ZM9.75 3H5.25C4.85218 3 4.47064 3.15803 4.18934 3.43934C3.90804 3.72064 3.75 4.10217 3.75 4.5V19.5C3.75 19.8978 3.90804 20.2794 4.18934 20.5607C4.47064 20.842 4.85218 21 5.25 21H9.75C10.1478 21 10.5294 20.842 10.8107 20.5607C11.092 20.2794 11.25 19.8978 11.25 19.5V4.5C11.25 4.10217 11.092 3.72064 10.8107 3.43934C10.5294 3.15803 10.1478 3 9.75 3ZM5.25 4.5H9.75V6H5.25V4.5ZM5.25 7.5H9.75V16.5H5.25V7.5ZM9.75 19.5H5.25V18H9.75V19.5Z" fill="#2B2B2B" style="fill:#2B2B2B;fill:color(display-p3 0.1700 0.1700 0.1700);fill-opacity:1;"/>
</svg>
