<svg width="24" height="24" viewBox="0 0 24 24" fill="none" xmlns="http://www.w3.org/2000/svg">
<path d="M17.8725 3.59909C17.8526 3.50224 17.8136 3.41028 17.758 3.32853C17.7024 3.24677 17.6311 3.17682 17.5483 3.12271C17.4656 3.0686 17.3729 3.0314 17.2757 3.01324C17.1785 2.99508 17.0786 2.99633 16.9819 3.01691L12.5935 3.95441C12.3984 3.99751 12.2282 4.11605 12.1202 4.28413C12.0122 4.45222 11.9751 4.65622 12.0169 4.85159L13.1053 10.0313L18.961 8.77316L17.8725 3.59909Z" fill="#404C16" style="fill:#404C16;fill:color(display-p3 0.2510 0.2980 0.0863);fill-opacity:1;"/>
<path d="M16.0182 20.2284L20.4066 19.2909C20.6017 19.2478 20.7718 19.1293 20.8799 18.9612C20.9879 18.7931 21.025 18.5891 20.9832 18.3937L20.5157 16.1696L14.6646 17.4363L15.1275 19.6462C15.1475 19.7431 15.1864 19.835 15.2421 19.9168C15.2977 19.9985 15.369 20.0685 15.4517 20.1226C15.5345 20.1767 15.6272 20.2139 15.7244 20.2321C15.8216 20.2502 15.9214 20.249 16.0182 20.2284Z" fill="#404C16" style="fill:#404C16;fill:color(display-p3 0.2510 0.2980 0.0863);fill-opacity:1;"/>
<path d="M4.5 6.75003H10.5V17.25H4.5V6.75003Z" fill="#632620" style="fill:#632620;fill:color(display-p3 0.3882 0.1490 0.1255);fill-opacity:1;"/>
<path fill-rule="evenodd" clip-rule="evenodd" d="M9.75 3.12523C10.5094 3.12523 11.125 3.74084 11.125 4.50023V19.5002C11.1249 20.2595 10.5093 20.8752 9.75 20.8752H5.25C4.49069 20.8752 3.87513 20.2595 3.875 19.5002V4.50023C3.875 3.74084 4.49061 3.12523 5.25 3.12523H9.75ZM5.125 19.5002C5.12513 19.5692 5.18104 19.6252 5.25 19.6252H9.75C9.81896 19.6252 9.87487 19.5692 9.875 19.5002V17.8752H5.125V19.5002ZM5.125 16.6252H9.875V7.37523H5.125V16.6252ZM5.25 4.37523C5.18096 4.37523 5.125 4.43119 5.125 4.50023V6.12523H9.875V4.50023C9.875 4.43119 9.81904 4.37523 9.75 4.37523H5.25Z" fill="#C3BBAC" style="fill:#C3BBAC;fill:color(display-p3 0.7648 0.7349 0.6752);fill-opacity:1;"/>
<path fill-rule="evenodd" clip-rule="evenodd" d="M16.9854 2.3889C17.1201 2.37386 17.2569 2.37857 17.3906 2.40355C17.5687 2.43685 17.739 2.50463 17.8906 2.60374C18.0423 2.70292 18.1724 2.83184 18.2744 2.98167C18.3759 3.13074 18.4466 3.29834 18.4834 3.47484L19.5684 8.63597C19.5691 8.63934 19.5715 8.64234 19.5723 8.64574C19.5729 8.64884 19.5726 8.6524 19.5732 8.6555L21.5947 18.2649C21.6705 18.6211 21.6022 18.9926 21.4053 19.2991C21.208 19.6059 20.8972 19.8229 20.541 19.9016L20.5371 19.9026L16.1484 20.8401C15.9711 20.8778 15.7876 20.8802 15.6094 20.8469C15.4312 20.8136 15.2611 20.7449 15.1094 20.6457C14.9579 20.5467 14.8275 20.4184 14.7256 20.2688C14.6239 20.1193 14.5523 19.9507 14.5156 19.7737L14.0518 17.5705C14.0512 17.5682 14.0503 17.566 14.0498 17.5637C14.0492 17.5609 14.0494 17.5577 14.0488 17.5549L12.4961 10.1721C12.4957 10.1702 12.4946 10.1682 12.4941 10.1662C12.4936 10.1637 12.4937 10.161 12.4932 10.1584L11.875 7.21898C11.8742 7.21538 11.8729 7.21187 11.8721 7.20824C11.8711 7.20386 11.871 7.19894 11.8701 7.19456L11.4062 4.98656C11.33 4.62992 11.3976 4.25724 11.5947 3.95042C11.792 3.64376 12.1029 3.42755 12.459 3.34886L12.4629 3.34788L16.8516 2.41038L16.9854 2.3889ZM15.4014 17.9114L15.7393 19.5178V19.5198C15.7426 19.5358 15.7496 19.5511 15.7588 19.5647C15.768 19.5783 15.7802 19.5908 15.7939 19.5998C15.8075 19.6086 15.8229 19.6144 15.8389 19.6174C15.8549 19.6204 15.8717 19.6208 15.8877 19.6174L20.2705 18.6809C20.3044 18.6734 20.3347 18.6524 20.3535 18.6233C20.3723 18.5941 20.3793 18.5586 20.3721 18.5246L20.3711 18.5227L20.0332 16.9172L15.4014 17.9114ZM13.8447 10.5149L15.1436 16.6887L19.7754 15.6936L18.4775 9.51976L13.8447 10.5149ZM13.2227 7.55687L13.5869 9.29222L18.2197 8.29613L17.8555 6.56175L13.2227 7.55687ZM17.1123 3.63304L12.7275 4.56859C12.6939 4.57617 12.6642 4.5972 12.6455 4.6262C12.6361 4.64078 12.63 4.65734 12.627 4.67406L12.6279 4.72484V4.72777L12.9658 6.33324L17.5977 5.33812L17.2607 3.73265V3.72972C17.2574 3.71362 17.2505 3.69839 17.2412 3.6848C17.2319 3.6712 17.2198 3.65963 17.2061 3.65062C17.1924 3.6417 17.1772 3.6351 17.1611 3.63206L17.1123 3.63304Z" fill="#C3BBAC" style="fill:#C3BBAC;fill:color(display-p3 0.7648 0.7349 0.6752);fill-opacity:1;"/>
</svg>
