<svg xmlns="http://www.w3.org/2000/svg" width="24" height="24" fill="none" viewBox="0 0 24 24">
  <path fill="#ced59e" d="M17.873 3.6a.75.75 0 0 0-.891-.583l-4.388.937a.757.757 0 0 0-.577.898l1.088 5.18 5.856-1.259zM16.018 20.228l4.389-.937a.757.757 0 0 0 .576-.897l-.467-2.224-5.851 1.266.463 2.21a.75.75 0 0 0 .89.582" style="fill:#ced59e;fill:color(display-p3 .8078 .8353 .6196);fill-opacity:1"/>
  <path fill="#c8beb5" d="m18.959 8.773-5.853 1.258.78 3.703.779 3.702 5.85-1.266zM4.5 17.25h6v2.25a.75.75 0 0 1-.75.75h-4.5a.75.75 0 0 1-.75-.75zM9.75 3.75a.75.75 0 0 1 .75.75v2.25h-6V4.5a.75.75 0 0 1 .75-.75z" style="fill:#c8beb5;fill:color(display-p3 .7843 .7451 .7098);fill-opacity:1"/>
  <path fill="#fdb2a2" d="M4.5 6.75h6v10.5h-6z" style="fill:#fdb2a2;fill:color(display-p3 .9922 .698 .6353);fill-opacity:1"/>
  <path fill="#2b2b2b" d="M21.717 18.24 18.606 3.444a1.5 1.5 0 0 0-1.782-1.161l-4.388.943a1.51 1.51 0 0 0-1.153 1.781l3.111 14.794a1.5 1.5 0 0 0 1.782 1.164l4.388-.943a1.51 1.51 0 0 0 1.153-1.784M12.75 4.701v-.009l4.387-.937.313 1.487-4.388.944zm.62 2.95 4.39-.942.313 1.49-4.385.943zm.623 2.96 4.39-.944 1.246 5.93-4.389.942zm6.257 7.945-4.387.937-.313-1.487 4.388-.945.312 1.486zM9.75 3h-4.5a1.5 1.5 0 0 0-1.5 1.5v15a1.5 1.5 0 0 0 1.5 1.5h4.5a1.5 1.5 0 0 0 1.5-1.5v-15A1.5 1.5 0 0 0 9.75 3m-4.5 1.5h4.5V6h-4.5zm0 3h4.5v9h-4.5zm4.5 12h-4.5V18h4.5z" style="fill:#2b2b2b;fill:color(display-p3 .17 .17 .17);fill-opacity:1"/>
</svg>
