<svg xmlns="http://www.w3.org/2000/svg" width="24" height="24" fill="none" viewBox="0 0 24 24">
  <path fill="#cdd597" d="m18.959 8.773-5.853 1.258 1.559 7.405 5.85-1.266zM17.758 3.329a.8.8 0 0 1 .114.27l.468 2.221-5.86 1.26-.463-2.228a.757.757 0 0 1 .577-.898l4.388-.937a.75.75 0 0 1 .776.312" style="fill:#CDD597;fill:color(display-p3 0.8039 0.8353 0.5922);fill-opacity:1"/>
  <path fill="#fdb2a2" d="M10.5 6.75h-6v10.5h6z" style="fill:#FDB2A2;fill:color(display-p3 0.9922 0.6980 0.6353);fill-opacity:1"/>
  <path fill="#d6d6d6" d="m16.018 20.228 4.389-.937a.757.757 0 0 0 .576-.897l-.467-2.224-5.851 1.266.463 2.21a.75.75 0 0 0 .89.582M18.96 8.773l-5.855 1.258-.625-2.951 5.86-1.26zM4.5 17.25h6v2.25a.75.75 0 0 1-.75.75h-4.5a.75.75 0 0 1-.75-.75zM9.75 3.75a.75.75 0 0 1 .75.75v2.25h-6V4.5a.75.75 0 0 1 .75-.75z" style="fill:#D6D6D6;fill:color(display-p3 0.8400 0.8400 0.8400);fill-opacity:1"/>
  <path fill="#2b2b2b" fill-rule="evenodd" d="M9.75 3a1.5 1.5 0 0 1 1.5 1.5v15a1.5 1.5 0 0 1-1.5 1.5h-4.5a1.5 1.5 0 0 1-1.5-1.5v-15A1.5 1.5 0 0 1 5.25 3zm-4.5 16.5h4.5V18h-4.5zm0-3h4.5v-9h-4.5zm0-10.5h4.5V4.5h-4.5z" clip-rule="evenodd" style="fill:#2B2B2B;fill:color(display-p3 0.1700 0.1700 0.1700);fill-opacity:1"/>
  <path fill="#2b2b2b" fill-rule="evenodd" d="M16.826 2.288a1.5 1.5 0 0 1 1.78 1.161l1.084 5.155.004.015.002.014 2.02 9.604a1.507 1.507 0 0 1-1.148 1.787h-.005l-4.388.938a1.51 1.51 0 0 1-1.553-.623 1.5 1.5 0 0 1-.23-.541l-.462-2.2-.002-.008-.002-.01-1.552-7.379-.002-.008q0-.007-.003-.013l-1.086-5.167-.023-.147a1.507 1.507 0 0 1 1.172-1.64h.005zm-1.277 15.72.312 1.483.001.003 4.382-.935q.003 0 .005-.003l.001-.005-.001-.003-.312-1.482zm-1.556-7.397 1.247 5.928 4.388-.942-1.247-5.929zm-.622-2.958.313 1.49 4.387-.944-.312-1.489zm-.617-2.962-.003.003-.001.005.001.002.312 1.483 4.387-.943-.311-1.483-.001-.003z" clip-rule="evenodd" style="fill:#2B2B2B;fill:color(display-p3 0.1700 0.1700 0.1700);fill-opacity:1"/>
</svg>
