<svg width="24" height="24" viewBox="0 0 24 24" fill="none" xmlns="http://www.w3.org/2000/svg">
<path d="M17.8725 3.59909C17.8526 3.50224 17.8136 3.41028 17.758 3.32853C17.7024 3.24677 17.6311 3.17682 17.5483 3.12271C17.4656 3.0686 17.3729 3.0314 17.2757 3.01324C17.1785 2.99508 17.0786 2.99633 16.9819 3.01691L12.5935 3.95441C12.3984 3.99751 12.2282 4.11605 12.1202 4.28413C12.0122 4.45222 11.9751 4.65622 12.0169 4.85159L13.1053 10.0313L18.961 8.77316L17.8725 3.59909Z" fill="#CED59E" style="fill:#CED59E;fill:color(display-p3 0.8078 0.8353 0.6196);fill-opacity:1;"/>
<path d="M16.0182 20.2284L20.4066 19.2909C20.6017 19.2478 20.7718 19.1293 20.8799 18.9612C20.9879 18.7931 21.025 18.5891 20.9832 18.3937L20.5157 16.1696L14.6646 17.4363L15.1275 19.6462C15.1475 19.7431 15.1864 19.835 15.2421 19.9168C15.2977 19.9985 15.369 20.0685 15.4517 20.1226C15.5345 20.1767 15.6272 20.2139 15.7244 20.2321C15.8216 20.2502 15.9214 20.249 16.0182 20.2284Z" fill="#CED59E" style="fill:#CED59E;fill:color(display-p3 0.8078 0.8353 0.6196);fill-opacity:1;"/>
<path d="M4.5 6.75H10.5V17.25H4.5V6.75Z" fill="#F2B5A5" style="fill:#F2B5A5;fill:color(display-p3 0.9490 0.7098 0.6471);fill-opacity:1;"/>
<path d="M21.7172 18.2391L18.6056 3.44537C18.5654 3.25191 18.4873 3.06831 18.3759 2.90511C18.2645 2.74191 18.1219 2.60233 17.9564 2.4944C17.7909 2.38646 17.6057 2.3123 17.4114 2.27616C17.2171 2.24002 17.0176 2.24262 16.8244 2.28381L12.4359 3.22693C12.0478 3.31193 11.7089 3.54675 11.4929 3.88032C11.277 4.21389 11.2015 4.61923 11.2828 5.00818L14.3944 19.8019C14.4637 20.1395 14.6471 20.4428 14.9138 20.661C15.1805 20.8792 15.5142 20.9989 15.8588 21.0001C15.9653 20.9999 16.0715 20.9886 16.1756 20.9663L20.5641 20.0232C20.9527 19.938 21.292 19.7027 21.5079 19.3686C21.7239 19.0344 21.7991 18.6285 21.7172 18.2391ZM12.75 4.70162C12.75 4.69599 12.75 4.69318 12.75 4.69318L17.1375 3.75568L17.4497 5.24349L13.0622 6.18756L12.75 4.70162ZM13.3706 7.65193L17.76 6.70974L18.0731 8.20037L13.6875 9.14349L13.3706 7.65193ZM13.9931 10.6116L18.3825 9.66849L19.6294 15.5972L15.24 16.5404L13.9931 10.6116ZM20.25 18.5569L15.8625 19.4944L15.5503 18.0066L19.9378 17.0626L20.25 18.5485C20.25 18.5541 20.25 18.5569 20.25 18.5569ZM9.75 3.00006H5.25C4.85218 3.00006 4.47064 3.15809 4.18934 3.4394C3.90804 3.7207 3.75 4.10223 3.75 4.50006V19.5001C3.75 19.8979 3.90804 20.2794 4.18934 20.5607C4.47064 20.842 4.85218 21.0001 5.25 21.0001H9.75C10.1478 21.0001 10.5294 20.842 10.8107 20.5607C11.092 20.2794 11.25 19.8979 11.25 19.5001V4.50006C11.25 4.10223 11.092 3.7207 10.8107 3.4394C10.5294 3.15809 10.1478 3.00006 9.75 3.00006ZM5.25 4.50006H9.75V6.00006H5.25V4.50006ZM5.25 7.50006H9.75V16.5001H5.25V7.50006ZM9.75 19.5001H5.25V18.0001H9.75V19.5001Z" fill="#2B2B2B" style="fill:#2B2B2B;fill:color(display-p3 0.16863 0.16863 0.16863);fill-opacity:1;"/>
</svg>
