<svg width="24" height="24" viewBox="0 0 24 24" fill="none" xmlns="http://www.w3.org/2000/svg">
<path d="M20.25 6C20.6642 6 21 6.33579 21 6.75V11.0918C18.265 12.6743 15.1599 13.505 12 13.5C8.84026 13.505 5.73524 12.6747 3 11.0928V6.75C3 6.33579 3.33579 6 3.75 6H20.25Z" fill="#C5C1BB" style="fill:#C5C1BB;fill:color(display-p3 0.7725 0.7569 0.7333);fill-opacity:1;"/>
<path d="M13.5 9.75C13.9142 9.75 14.25 10.0858 14.25 10.5C14.25 10.9142 13.9142 11.25 13.5 11.25H10.5C10.0858 11.25 9.75 10.9142 9.75 10.5C9.75 10.0858 10.0858 9.75 10.5 9.75H13.5Z" fill="#2B2B2B" style="fill:#2B2B2B;fill:color(display-p3 0.16863 0.16863 0.16863);fill-opacity:1;"/>
<path fill-rule="evenodd" clip-rule="evenodd" d="M14.25 2.25C14.8467 2.25 15.4189 2.48722 15.8408 2.90918C16.2628 3.33114 16.5 3.90326 16.5 4.5V5.25H20.25C21.0784 5.25 21.75 5.92157 21.75 6.75V18.75C21.75 19.5784 21.0784 20.25 20.25 20.25H3.75C2.92157 20.25 2.25 19.5784 2.25 18.75V6.75C2.25 5.92157 2.92157 5.25 3.75 5.25H7.5V4.5C7.5 3.90326 7.73722 3.33114 8.15918 2.90918C8.58114 2.48722 9.15326 2.25 9.75 2.25H14.25ZM20.25 12.3408C17.6872 13.5982 14.8649 14.2545 11.999 14.25C9.13397 14.2542 6.31225 13.5982 3.75 12.3418V18.75H20.25V12.3408ZM3.75 10.6514C6.27828 12.0306 9.11442 12.7546 11.999 12.75H12.001C14.8857 12.7545 17.7219 12.0302 20.25 10.6504V6.75H3.75V10.6514ZM9.75 3.75C9.55109 3.75 9.36038 3.82907 9.21973 3.96973C9.07907 4.11038 9 4.30109 9 4.5V5.25H15V4.5C15 4.30109 14.9209 4.11038 14.7803 3.96973C14.6396 3.82907 14.4489 3.75 14.25 3.75H9.75Z" fill="#2B2B2B" style="fill:#2B2B2B;fill:color(display-p3 0.16863 0.16863 0.16863);fill-opacity:1;"/>
</svg>
