<svg xmlns="http://www.w3.org/2000/svg" width="24" height="24" fill="none" viewBox="0 0 24 24">
  <path fill="#f7f5f2" d="M19.5 3.75h-15a.75.75 0 0 0-.75.75v15c0 .414.336.75.75.75h15a.75.75 0 0 0 .75-.75v-15a.75.75 0 0 0-.75-.75" style="fill:#f7f5f2;fill:color(display-p3 .9686 .9608 .949);fill-opacity:1"/>
  <path fill="#fdb2a2" d="M12 11.25a2.25 2.25 0 0 1 4.5 0c0 3-4.5 5.25-4.5 5.25s-4.5-2.25-4.5-5.25a2.25 2.25 0 0 1 4.5 0" style="fill:#fdb2a2;fill:color(display-p3 .9922 .698 .6353);fill-opacity:1"/>
  <path fill="#2b2b2b" fill-rule="evenodd" d="M14.25 8.25a3 3 0 0 1 3 3c0 1.861-1.37 3.369-2.52 4.326a14 14 0 0 1-2.176 1.48l-.156.083-.043.022-.013.007-.004.002h-.002l-.336.08.335-.08a.75.75 0 0 1-.67 0h-.003l-.004-.002-.012-.007-.044-.022-.156-.083a13.964 13.964 0 0 1-2.177-1.48C8.122 14.62 6.75 13.111 6.75 11.25a3 3 0 0 1 5.121-2.121q.067.069.129.142.062-.073.129-.142a3 3 0 0 1 2.121-.879m0 1.5a1.5 1.5 0 0 0-1.5 1.5.75.75 0 0 1-1.5 0 1.5 1.5 0 0 0-3 0c0 1.139.88 2.256 1.98 3.174.527.439 1.057.793 1.457 1.038q.177.105.313.18.136-.075.313-.18c.4-.245.93-.6 1.457-1.038 1.1-.918 1.98-2.035 1.98-3.174a1.5 1.5 0 0 0-1.5-1.5" clip-rule="evenodd" style="fill:#2b2b2b;fill:color(display-p3 .17 .17 .17);fill-opacity:1"/>
  <path fill="#2b2b2b" fill-rule="evenodd" d="M16.5 1.5a.75.75 0 0 1 .75.75V3h2.25A1.5 1.5 0 0 1 21 4.5v15a1.5 1.5 0 0 1-1.5 1.5h-15A1.5 1.5 0 0 1 3 19.5v-15A1.5 1.5 0 0 1 4.5 3h2.25v-.75a.75.75 0 0 1 1.5 0V3h7.5v-.75a.75.75 0 0 1 .75-.75m-12 18h15v-15h-2.25v.75a.75.75 0 0 1-1.5 0V4.5h-7.5v.75a.75.75 0 0 1-1.5 0V4.5H4.5z" clip-rule="evenodd" style="fill:#2b2b2b;fill:color(display-p3 .17 .17 .17);fill-opacity:1"/>
</svg>
