<svg width="24" height="24" viewBox="0 0 24 24" fill="none" xmlns="http://www.w3.org/2000/svg">
<path d="M12 11.25C12 10.6533 12.2371 10.081 12.659 9.65901C13.081 9.23705 13.6533 9 14.25 9C14.8467 9 15.419 9.23705 15.841 9.65901C16.2629 10.081 16.5 10.6533 16.5 11.25C16.5 14.25 12 16.5 12 16.5C12 16.5 7.5 14.25 7.5 11.25C7.5 10.6533 7.73705 10.081 8.15901 9.65901C8.58097 9.23705 9.15326 9 9.75 9C10.3467 9 10.919 9.23705 11.341 9.65901C11.7629 10.081 12 10.6533 12 11.25Z" fill="#6C201C" style="fill:#6C201C;fill:color(display-p3 0.4235 0.1255 0.1098);fill-opacity:1;"/>
<path fill-rule="evenodd" clip-rule="evenodd" d="M14.25 8.375C15.0125 8.375 15.744 8.67763 16.2832 9.2168C16.8224 9.75596 17.125 10.4875 17.125 11.25C17.125 13.0509 15.7953 14.5264 14.6504 15.4805C14.0581 15.974 13.4688 16.3662 13.0293 16.6348C12.8089 16.7695 12.6238 16.8738 12.4932 16.9453C12.4279 16.9811 12.3762 17.0093 12.3398 17.0283C12.3217 17.0378 12.307 17.0446 12.2969 17.0498C12.2919 17.0524 12.2881 17.0552 12.2852 17.0566C12.2837 17.0574 12.2822 17.0572 12.2812 17.0576L12.2803 17.0586C12.1043 17.1466 11.8967 17.1466 11.7207 17.0586L11.7188 17.0576C11.7178 17.0572 11.7163 17.0574 11.7148 17.0566C11.7119 17.0552 11.7081 17.0524 11.7031 17.0498C11.693 17.0446 11.6783 17.0378 11.6602 17.0283C11.6238 17.0093 11.5721 16.9811 11.5068 16.9453C11.3762 16.8738 11.1911 16.7695 10.9707 16.6348C10.5312 16.3662 9.9419 15.974 9.34961 15.4805C8.20468 14.5264 6.875 13.0509 6.875 11.25C6.875 10.4875 7.17763 9.75596 7.7168 9.2168C8.25596 8.67763 8.9875 8.375 9.75 8.375C10.5125 8.375 11.244 8.67763 11.7832 9.2168C11.861 9.29456 11.9323 9.37762 12 9.46289C12.0677 9.37762 12.139 9.29456 12.2168 9.2168C12.756 8.67763 13.4875 8.375 14.25 8.375ZM14.25 9.625C13.819 9.625 13.4053 9.79584 13.1006 10.1006C12.7958 10.4053 12.625 10.819 12.625 11.25C12.625 11.5952 12.3452 11.875 12 11.875C11.6548 11.875 11.375 11.5952 11.375 11.25C11.375 10.819 11.2042 10.4053 10.8994 10.1006C10.5947 9.79584 10.181 9.625 9.75 9.625C9.31902 9.625 8.90533 9.79584 8.60059 10.1006C8.29584 10.4053 8.125 10.819 8.125 11.25C8.125 12.4491 9.04532 13.5986 10.1504 14.5195C10.683 14.9634 11.2188 15.3213 11.623 15.5684C11.7683 15.6571 11.8969 15.729 12 15.7871C12.1031 15.729 12.2317 15.6571 12.377 15.5684C12.7812 15.3213 13.317 14.9634 13.8496 14.5195C14.9547 13.5986 15.875 12.4491 15.875 11.25C15.875 10.819 15.7042 10.4053 15.3994 10.1006C15.0947 9.79584 14.681 9.625 14.25 9.625Z" fill="#C3BBAC" style="fill:#C3BBAC;fill:color(display-p3 0.7648 0.7349 0.6752);fill-opacity:1;"/>
<path fill-rule="evenodd" clip-rule="evenodd" d="M16.5 1.625C16.8452 1.625 17.125 1.90482 17.125 2.25V3.125H19.5C20.2594 3.125 20.875 3.74061 20.875 4.5V19.5C20.875 20.2594 20.2594 20.875 19.5 20.875H4.5C3.74061 20.875 3.125 20.2594 3.125 19.5V4.5C3.125 3.74061 3.74061 3.125 4.5 3.125H6.875V2.25C6.875 1.90482 7.15482 1.625 7.5 1.625C7.84518 1.625 8.125 1.90482 8.125 2.25V3.125H15.875V2.25C15.875 1.90482 16.1548 1.625 16.5 1.625ZM4.5 4.375C4.43096 4.375 4.375 4.43096 4.375 4.5V19.5C4.375 19.569 4.43096 19.625 4.5 19.625H19.5C19.569 19.625 19.625 19.569 19.625 19.5V4.5C19.625 4.43096 19.569 4.375 19.5 4.375H17.125V5.25C17.125 5.59518 16.8452 5.875 16.5 5.875C16.1548 5.875 15.875 5.59518 15.875 5.25V4.375H8.125V5.25C8.125 5.59518 7.84518 5.875 7.5 5.875C7.15482 5.875 6.875 5.59518 6.875 5.25V4.375H4.5Z" fill="#C3BBAC" style="fill:#C3BBAC;fill:color(display-p3 0.7648 0.7349 0.6752);fill-opacity:1;"/>
</svg>
