<svg width="24" height="24" viewBox="0 0 24 24" fill="none" xmlns="http://www.w3.org/2000/svg">
<path d="M12 11.25C12 10.6533 12.2371 10.081 12.659 9.65901C13.081 9.23705 13.6533 9 14.25 9C14.8467 9 15.419 9.23705 15.841 9.65901C16.2629 10.081 16.5 10.6533 16.5 11.25C16.5 14.25 12 16.5 12 16.5C12 16.5 7.5 14.25 7.5 11.25C7.5 10.6533 7.73705 10.081 8.15901 9.65901C8.58097 9.23705 9.15326 9 9.75 9C10.3467 9 10.919 9.23705 11.341 9.65901C11.7629 10.081 12 10.6533 12 11.25Z" fill="#FDB2A2" style="fill:#FDB2A2;fill:color(display-p3 0.9922 0.6980 0.6353);fill-opacity:1;"/>
<path fill-rule="evenodd" clip-rule="evenodd" d="M14.25 8.25C15.0456 8.25 15.8085 8.5663 16.3711 9.12891C16.9337 9.69152 17.25 10.4544 17.25 11.25C17.25 13.111 15.8793 14.6187 14.7305 15.5762C14.1321 16.0748 13.5368 16.4705 13.0938 16.7412C12.8715 16.877 12.6858 16.9833 12.5537 17.0557C12.4876 17.0918 12.4345 17.1193 12.3975 17.1387C12.3792 17.1482 12.3649 17.1558 12.3545 17.1611C12.3493 17.1638 12.3449 17.1664 12.3418 17.168L12.3379 17.1699H12.3359L12 17.2499L12.335 17.1709C12.124 17.2762 11.876 17.2762 11.665 17.1709L11.6641 17.1699H11.6621L11.6582 17.168C11.6551 17.1664 11.6507 17.1638 11.6455 17.1611C11.6351 17.1558 11.6208 17.1482 11.6025 17.1387C11.5655 17.1193 11.5124 17.0918 11.4463 17.0557C11.3142 16.9833 11.1285 16.877 10.9062 16.7412C10.4632 16.4705 9.8679 16.0748 9.26953 15.5762C8.12065 14.6187 6.75 13.111 6.75 11.25C6.75 10.4544 7.0663 9.69152 7.62891 9.12891C8.19152 8.5663 8.95435 8.25 9.75 8.25C10.5456 8.25 11.3085 8.5663 11.8711 9.12891C11.9164 9.17421 11.9579 9.22269 12 9.27051C12.0421 9.22269 12.0836 9.17421 12.1289 9.12891C12.6915 8.5663 13.4544 8.25 14.25 8.25ZM14.25 9.75C13.8522 9.75 13.4708 9.90815 13.1895 10.1895C12.9081 10.4708 12.75 10.8522 12.75 11.25C12.75 11.6642 12.4142 12 12 12C11.5858 12 11.25 11.6642 11.25 11.25C11.25 10.8522 11.0919 10.4708 10.8105 10.1895C10.5292 9.90815 10.1478 9.75 9.75 9.75C9.35217 9.75 8.97076 9.90815 8.68945 10.1895C8.40815 10.4708 8.25 10.8522 8.25 11.25C8.25 12.3889 9.12938 13.5063 10.2305 14.4238C10.7569 14.8625 11.2869 15.2171 11.6875 15.4619C11.8037 15.5329 11.9104 15.5913 12 15.6426C12.0896 15.5913 12.1963 15.5329 12.3125 15.4619C12.7131 15.2171 13.2431 14.8625 13.7695 14.4238C14.8706 13.5063 15.75 12.3889 15.75 11.25C15.75 10.8522 15.5919 10.4708 15.3105 10.1895C15.0292 9.90815 14.6478 9.75 14.25 9.75Z" fill="#2B2B2B" style="fill:#2B2B2B;fill:color(display-p3 0.1700 0.1700 0.1700);fill-opacity:1;"/>
<path fill-rule="evenodd" clip-rule="evenodd" d="M16.5 1.5C16.9142 1.5 17.25 1.83579 17.25 2.25V3H19.5C20.3284 3 21 3.67157 21 4.5V19.5C21 20.3284 20.3284 21 19.5 21H4.5C3.67157 21 3 20.3284 3 19.5V4.5C3 3.67157 3.67157 3 4.5 3H6.75V2.25C6.75 1.83579 7.08579 1.5 7.5 1.5C7.91421 1.5 8.25 1.83579 8.25 2.25V3H15.75V2.25C15.75 1.83579 16.0858 1.5 16.5 1.5ZM4.5 19.5H19.5V4.5H17.25V5.25C17.25 5.66421 16.9142 6 16.5 6C16.0858 6 15.75 5.66421 15.75 5.25V4.5H8.25V5.25C8.25 5.66421 7.91421 6 7.5 6C7.08579 6 6.75 5.66421 6.75 5.25V4.5H4.5V19.5Z" fill="#2B2B2B" style="fill:#2B2B2B;fill:color(display-p3 0.1700 0.1700 0.1700);fill-opacity:1;"/>
</svg>
