<svg width="24" height="24" viewBox="0 0 24 24" fill="none" xmlns="http://www.w3.org/2000/svg">
<path d="M20.9531 17.4375C21.4893 16.4365 21.7643 15.3163 21.7526 14.1808C21.7409 13.0452 21.4429 11.931 20.8861 10.9412C20.3294 9.95146 19.532 9.11813 18.5677 8.51841C17.6033 7.9187 16.5033 7.57196 15.3694 7.51031C15.7274 8.52828 15.8362 9.61725 15.6866 10.6859C15.5369 11.7546 15.1333 12.7718 14.5094 13.6523C13.8856 14.5328 13.0598 15.2509 12.1011 15.7464C11.1425 16.2419 10.0791 16.5003 8.99999 16.5C8.87624 16.5 8.75343 16.5 8.63062 16.4897C8.95399 17.4083 9.47218 18.2461 10.1497 18.9457C10.8271 19.6453 11.6479 20.1901 12.5556 20.5428C13.4633 20.8955 14.4366 21.0478 15.4087 20.9892C16.3808 20.9305 17.3287 20.6624 18.1875 20.2031L20.79 20.9681C20.9192 21.0061 21.0563 21.0085 21.1868 20.9752C21.3173 20.9419 21.4364 20.8741 21.5316 20.7788C21.6269 20.6836 21.6947 20.5645 21.728 20.434C21.7613 20.3035 21.7589 20.1664 21.7209 20.0372L20.9531 17.4375Z" fill="#203A63" style="fill:#203A63;fill:color(display-p3 0.1255 0.2275 0.3882);fill-opacity:1;"/>
<path d="M3.04686 12.9375C2.28285 11.5102 2.05728 9.85581 2.41129 8.27605C2.7653 6.69629 3.6753 5.29638 4.97536 4.33159C6.27542 3.36681 7.87893 2.90141 9.4935 3.02027C11.1081 3.13913 12.6261 3.83432 13.7709 4.97908C14.9157 6.12385 15.6109 7.64192 15.7297 9.25649C15.8486 10.8711 15.3832 12.4746 14.4184 13.7746C13.4536 15.0747 12.0537 15.9847 10.4739 16.3387C8.89418 16.6927 7.2398 16.4671 5.81248 15.7031L3.20998 16.4681C3.08075 16.5061 2.94369 16.5085 2.81319 16.4752C2.68269 16.4419 2.56356 16.3741 2.46832 16.2789C2.37309 16.1836 2.30525 16.0645 2.27195 15.934C2.23864 15.8035 2.24109 15.6664 2.27904 15.5372L3.04686 12.9375Z" fill="#5C2445" style="fill:#5C2445;fill:color(display-p3 0.3608 0.1412 0.2706);fill-opacity:1;"/>
<path fill-rule="evenodd" clip-rule="evenodd" d="M4.60208 3.82977C6.0223 2.77581 7.7748 2.26652 9.5386 2.39617C11.3025 2.52603 12.9617 3.28625 14.2124 4.5368C14.9001 5.22447 15.4384 6.0365 15.8062 6.92059C16.9019 7.04071 17.9591 7.4041 18.898 7.98797C19.9514 8.6432 20.822 9.55415 21.4302 10.6354C22.0384 11.7168 22.3647 12.9339 22.3775 14.1745C22.3893 15.327 22.127 16.4632 21.6206 17.4958L22.3179 19.8639L22.3579 20.0436C22.3857 20.2255 22.3764 20.412 22.3306 20.5915C22.2695 20.8307 22.1448 21.0488 21.9702 21.2233C21.7957 21.3978 21.5776 21.5226 21.3384 21.5837C21.0992 21.6447 20.8477 21.6405 20.6109 21.571L20.6099 21.57L18.2456 20.8718C17.3708 21.3001 16.4199 21.5542 15.4458 21.613C14.3839 21.677 13.3202 21.511 12.3286 21.1257C11.3371 20.7403 10.4408 20.1447 9.70071 19.3806C9.05584 18.7146 8.54312 17.9335 8.18802 17.0798C7.34617 16.9864 6.52076 16.7496 5.75052 16.3718L3.38626 17.0671C3.14964 17.1365 2.89766 17.1416 2.65872 17.0807C2.41961 17.0197 2.20042 16.8949 2.02591 16.7204C1.85159 16.5459 1.72659 16.3275 1.66556 16.0886C1.60463 15.8495 1.60976 15.5977 1.67923 15.361L2.37649 12.9968C1.63927 11.4924 1.43389 9.77921 1.8013 8.13934C2.18809 6.41365 3.18202 4.88381 4.60208 3.82977ZM16.2173 8.24969C16.283 8.56526 16.3291 8.88606 16.3531 9.21063C16.4828 10.9745 15.9744 12.7269 14.9204 14.1472C13.8663 15.5676 12.3359 16.5611 10.6099 16.9479C10.2691 17.0243 9.92515 17.075 9.58059 17.1022C9.85112 17.6164 10.192 18.092 10.5982 18.5114C11.2129 19.1462 11.9581 19.6406 12.7818 19.9606C13.6054 20.2806 14.4887 20.419 15.3706 20.3659C16.2526 20.3127 17.1129 20.0687 17.8921 19.652C18.0369 19.5746 18.2073 19.5577 18.3648 19.6042L20.9644 20.3718C20.9856 20.3779 21.0074 20.3781 21.0288 20.3727C21.0505 20.3672 21.0706 20.3553 21.0865 20.3395C21.1023 20.3237 21.1141 20.3036 21.1197 20.2819C21.125 20.2604 21.1248 20.2377 21.1187 20.2165L20.3531 17.6139C20.3068 17.4566 20.3245 17.2869 20.4019 17.1423C20.8884 16.234 21.1381 15.2175 21.1275 14.1872C21.1168 13.1569 20.8465 12.1458 20.3413 11.2477C19.8362 10.3498 19.1127 9.59367 18.2378 9.04949C17.6158 8.66264 16.9308 8.39414 16.2173 8.24969ZM9.44681 3.64324C7.982 3.5356 6.52667 3.9574 5.3472 4.8327C4.1676 5.70809 3.34231 6.97942 3.02102 8.41278C2.69996 9.84596 2.9042 11.3473 3.5972 12.6423C3.67465 12.787 3.69238 12.9565 3.64602 13.1139L2.87845 15.7136C2.87233 15.7348 2.87209 15.7576 2.87747 15.779C2.88297 15.8005 2.89405 15.8208 2.9097 15.8366C2.92544 15.8523 2.94577 15.8632 2.96731 15.8688C2.98901 15.8744 3.01223 15.8741 3.03372 15.8679L5.63626 15.1032L5.7554 15.0807C5.87609 15.0697 5.99854 15.0941 6.10696 15.152C6.9007 15.5769 7.77222 15.8168 8.65774 15.8659C8.66525 15.8662 8.67274 15.8663 8.6802 15.8669C9.23206 15.8954 9.7891 15.8508 10.3365 15.7282C11.7699 15.407 13.0411 14.5817 13.9165 13.402C14.7918 12.2225 15.2137 10.7673 15.106 9.30242C14.998 7.83751 14.3673 6.45926 13.3286 5.42059C12.2899 4.38203 10.9117 3.75108 9.44681 3.64324Z" fill="#C3BBAC" style="fill:#C3BBAC;fill:color(display-p3 0.7648 0.7349 0.6752);fill-opacity:1;"/>
</svg>
