<svg width="24" height="24" viewBox="0 0 24 24" fill="none" xmlns="http://www.w3.org/2000/svg">
<path d="M20.9531 17.4375C21.4893 16.4365 21.7643 15.3163 21.7526 14.1808C21.7409 13.0452 21.4429 11.931 20.8861 10.9412C20.3294 9.95146 19.532 9.11813 18.5677 8.51841C17.6033 7.9187 16.5033 7.57196 15.3694 7.51031C15.7274 8.52828 15.8362 9.61725 15.6866 10.6859C15.5369 11.7546 15.1333 12.7718 14.5094 13.6523C13.8856 14.5328 13.0598 15.2509 12.1011 15.7464C11.1425 16.2419 10.0791 16.5003 8.99999 16.5C8.87624 16.5 8.75343 16.5 8.63062 16.4897C8.95399 17.4083 9.47218 18.2461 10.1497 18.9457C10.8271 19.6453 11.6479 20.1901 12.5556 20.5428C13.4633 20.8955 14.4366 21.0478 15.4087 20.9892C16.3808 20.9305 17.3287 20.6624 18.1875 20.2031L20.79 20.9681C20.9192 21.0061 21.0563 21.0085 21.1868 20.9752C21.3173 20.9419 21.4364 20.8741 21.5316 20.7788C21.6269 20.6836 21.6947 20.5645 21.728 20.434C21.7613 20.3035 21.7589 20.1664 21.7209 20.0372L20.9531 17.4375Z" fill="#AFDCCF" style="fill:#AFDCCF;fill:color(display-p3 0.6863 0.8627 0.8118);fill-opacity:1;"/>
<path d="M3.04686 12.9375C2.28285 11.5102 2.05728 9.85581 2.41129 8.27605C2.7653 6.69629 3.6753 5.29638 4.97536 4.33159C6.27542 3.36681 7.87893 2.90141 9.4935 3.02027C11.1081 3.13913 12.6261 3.83432 13.7709 4.97908C14.9157 6.12385 15.6109 7.64192 15.7297 9.25649C15.8486 10.8711 15.3832 12.4746 14.4184 13.7746C13.4536 15.0747 12.0537 15.9847 10.4739 16.3387C8.89418 16.6927 7.2398 16.4671 5.81248 15.7031L3.20998 16.4681C3.08075 16.5061 2.94369 16.5085 2.81319 16.4752C2.68269 16.4419 2.56356 16.3741 2.46832 16.2789C2.37309 16.1836 2.30525 16.0645 2.27195 15.934C2.23864 15.8035 2.24109 15.6664 2.27904 15.5372L3.04686 12.9375Z" fill="#F3C399" style="fill:#F3C399;fill:color(display-p3 0.9529 0.7647 0.6000);fill-opacity:1;"/>
<path fill-rule="evenodd" clip-rule="evenodd" d="M4.52771 3.72975C5.9721 2.65786 7.75441 2.14078 9.54822 2.27272C11.3421 2.40481 13.0292 3.17667 14.3012 4.4485C14.9825 5.12983 15.5191 5.93079 15.892 6.80299C16.9803 6.93295 18.0292 7.30031 18.9633 7.88112C20.0346 8.54739 20.9209 9.47392 21.5394 10.5735C22.1579 11.6731 22.4893 12.9116 22.5023 14.1731C22.5142 15.3285 22.255 16.4679 21.7543 17.5061L22.4369 19.8284L22.4808 20.0247C22.5111 20.223 22.5015 20.4266 22.4515 20.6223C22.3849 20.8832 22.2493 21.1214 22.059 21.3118C21.8686 21.5021 21.6303 21.6377 21.3695 21.7044C21.1087 21.7709 20.8339 21.7665 20.5756 21.6907L20.5746 21.6897L18.2572 21.0051C17.3795 21.4279 16.4279 21.6788 15.4535 21.7376C14.3736 21.8026 13.292 21.6333 12.2836 21.2415C11.2753 20.8496 10.3633 20.2442 9.61072 19.4671C8.97273 18.8082 8.46348 18.0382 8.10389 17.1975C7.28754 17.0994 6.48727 16.8679 5.73767 16.5061L3.42127 17.1878C3.16301 17.2635 2.88811 17.2689 2.62732 17.2024C2.36667 17.1358 2.12818 17 1.93787 16.8098C1.74749 16.6194 1.61092 16.3803 1.54432 16.1194C1.47785 15.8587 1.48329 15.5846 1.55896 15.3264V15.3245L2.24353 13.011C1.51018 11.4912 1.30888 9.76522 1.67908 8.11256C2.07236 6.35755 3.08356 4.80172 4.52771 3.72975ZM16.3744 8.41041C16.4218 8.67113 16.4573 8.935 16.4769 9.20143C16.6089 10.9953 16.0919 12.7775 15.0199 14.2219C13.9479 15.6661 12.3921 16.6773 10.6371 17.0706C10.3534 17.1341 10.0673 17.1792 9.78064 17.2092C10.0304 17.6494 10.3339 18.0585 10.6879 18.4241C11.2899 19.0457 12.02 19.5295 12.8265 19.843C13.6334 20.1565 14.4996 20.2926 15.3637 20.2405C16.2276 20.1883 17.0701 19.9494 17.8334 19.5413C18.007 19.4484 18.2109 19.428 18.3998 19.4837L20.9974 20.2503L20.2328 17.6487C20.1775 17.46 20.1986 17.2566 20.2914 17.0833C20.768 16.1935 21.0127 15.1971 21.0023 14.1878C20.9918 13.1787 20.7265 12.1884 20.2318 11.3089C19.737 10.4292 19.0283 9.68756 18.1713 9.15456C17.615 8.8087 17.0076 8.55895 16.3744 8.41041ZM9.43787 3.76881C8.00302 3.66331 6.57765 4.07655 5.42225 4.93385C4.26686 5.79143 3.45759 7.03662 3.14295 8.44069C2.82853 9.84453 3.0286 11.3149 3.7074 12.5833C3.80036 12.7569 3.82166 12.9607 3.766 13.1497L2.99842 15.7483L5.60096 14.9837L5.74451 14.9563C5.88919 14.9432 6.03643 14.9728 6.16639 15.0423C6.94156 15.4571 7.7928 15.6914 8.6576 15.7405C8.67102 15.741 8.68432 15.7422 8.69764 15.7434C9.23489 15.7703 9.77721 15.726 10.3099 15.6067C11.7138 15.292 12.9583 14.4827 13.8158 13.3274C14.6732 12.1719 15.0864 10.7467 14.9808 9.31178C14.8752 7.87661 14.2572 6.52759 13.2396 5.51002C12.2221 4.49254 10.873 3.87446 9.43787 3.76881Z" fill="#2B2B2B" style="fill:#2B2B2B;fill:color(display-p3 0.16863 0.16863 0.16863);fill-opacity:1;"/>
</svg>
