<svg xmlns="http://www.w3.org/2000/svg" width="24" height="24" fill="none" viewBox="0 0 24 24">
  <path fill="#a2dece" d="M20.953 17.438A6.75 6.75 0 0 0 15.37 7.51 6.75 6.75 0 0 1 9 16.5c-.124 0-.247 0-.37-.01a6.754 6.754 0 0 0 9.558 3.713l2.602.765a.75.75 0 0 0 .93-.93z" style="fill:#A2DECE;fill:color(display-p3 0.6353 0.8706 0.8078);fill-opacity:1"/>
  <path fill="#fcc192" d="M3.047 12.938a6.75 6.75 0 1 1 2.765 2.765l-2.602.765a.75.75 0 0 1-.931-.93z" style="fill:#FCC192;fill:color(display-p3 0.9882 0.7569 0.5725);fill-opacity:1"/>
  <path fill="#2b2b2b" fill-rule="evenodd" d="M4.528 3.73a7.5 7.5 0 0 1 9.773.719 7.5 7.5 0 0 1 1.591 2.354 7.5 7.5 0 0 1 6.61 7.37 7.5 7.5 0 0 1-.748 3.333l.683 2.322.044.197a1.5 1.5 0 0 1-1.111 1.68c-.261.066-.536.062-.794-.014l-.001-.001-2.318-.685a7.5 7.5 0 0 1-2.803.733 7.5 7.5 0 0 1-5.843-2.27 7.5 7.5 0 0 1-1.507-2.27 7.5 7.5 0 0 1-2.366-.692l-2.317.682a1.5 1.5 0 0 1-1.483-.378 1.5 1.5 0 0 1-.379-1.484v-.002l.685-2.313A7.5 7.5 0 0 1 4.528 3.73m11.847 4.68q.071.392.102.791a7.5 7.5 0 0 1-5.84 7.87q-.427.094-.856.138c.25.44.553.85.907 1.215a6.01 6.01 0 0 0 7.145 1.117.75.75 0 0 1 .567-.057l2.598.766-.765-2.601a.75.75 0 0 1 .058-.566 6.003 6.003 0 0 0-2.12-7.928 6 6 0 0 0-1.796-.745M9.438 3.77a6 6 0 0 0-5.73 8.814.75.75 0 0 1 .058.567l-.768 2.598 2.603-.764.144-.028a.75.75 0 0 1 .421.086 6 6 0 0 0 2.492.699l.04.002a6.002 6.002 0 0 0 6.283-6.432A6 6 0 0 0 9.438 3.77" clip-rule="evenodd" style="fill:#2B2B2B;fill:color(display-p3 0.1700 0.1700 0.1700);fill-opacity:1"/>
</svg>
