<svg width="24" height="24" viewBox="0 0 24 24" fill="none" xmlns="http://www.w3.org/2000/svg">
<rect x="4.5" y="4.5" width="15" height="15" rx="1" fill="#CDD597" style="fill:#CDD597;fill:color(display-p3 0.8039 0.8353 0.5922);fill-opacity:1;"/>
<path d="M5.46967 2.46973C5.76256 2.17684 6.23732 2.17684 6.53022 2.46973C6.82311 2.76262 6.82311 3.23738 6.53022 3.53028L4.06049 6L6.53022 8.46973C6.82311 8.76262 6.82311 9.23738 6.53022 9.53028C6.23732 9.82317 5.76256 9.82317 5.46967 9.53028L2.46967 6.53028C2.17678 6.23738 2.17678 5.76262 2.46967 5.46973L5.46967 2.46973Z" fill="#2B2B2B" style="fill:#2B2B2B;fill:color(display-p3 0.16863 0.16863 0.16863);fill-opacity:1;"/>
<path d="M9.21967 2.46973C9.51256 2.17684 9.98732 2.17684 10.2802 2.46973L13.2802 5.46973C13.5731 5.76262 13.5731 6.23738 13.2802 6.53028L10.2802 9.53028C9.98732 9.82317 9.51256 9.82317 9.21967 9.53028C8.92678 9.23738 8.92678 8.76262 9.21967 8.46973L11.6894 6L9.21967 3.53028C8.92678 3.23738 8.92678 2.76262 9.21967 2.46973Z" fill="#2B2B2B" style="fill:#2B2B2B;fill:color(display-p3 0.16863 0.16863 0.16863);fill-opacity:1;"/>
<path d="M3.74994 18.75V12.75C3.74994 12.3358 4.08573 12 4.49994 12C4.91416 12 5.24994 12.3358 5.24994 12.75V18.75H18.7499V5.25H16.4999C16.0857 5.25 15.7499 4.91422 15.7499 4.5C15.7499 4.08579 16.0857 3.75 16.4999 3.75H18.7499C19.1478 3.75 19.5292 3.90815 19.8105 4.18946C20.0918 4.47076 20.2499 4.85218 20.2499 5.25V18.75C20.2499 19.1478 20.0918 19.5292 19.8105 19.8106C19.5292 20.0919 19.1478 20.25 18.7499 20.25H5.24994C4.85212 20.25 4.4707 20.0919 4.1894 19.8106C3.90809 19.5292 3.74994 19.1478 3.74994 18.75Z" fill="#2B2B2B" style="fill:#2B2B2B;fill:color(display-p3 0.16863 0.16863 0.16863);fill-opacity:1;"/>
</svg>
