<svg width="24" height="24" viewBox="0 0 24 24" fill="none" xmlns="http://www.w3.org/2000/svg">
<rect x="4.5" y="4.5" width="15" height="15" rx="1" fill="#3D4C07" style="fill:#3D4C07;fill:color(display-p3 0.2392 0.2980 0.0275);fill-opacity:1;"/>
<path d="M5.55757 2.55763C5.80165 2.31355 6.19826 2.31355 6.44234 2.55763C6.68641 2.80171 6.68641 3.19832 6.44234 3.4424L3.88472 6.00001L6.44234 8.55763C6.68641 8.80171 6.68641 9.19832 6.44234 9.4424C6.19826 9.68647 5.80165 9.68647 5.55757 9.4424L2.55757 6.4424C2.31349 6.19832 2.31349 5.80171 2.55757 5.55763L5.55757 2.55763Z" fill="#C3BBAC" style="fill:#C3BBAC;fill:color(display-p3 0.7648 0.7349 0.6752);fill-opacity:1;"/>
<path d="M9.30757 2.55763C9.55165 2.31355 9.94826 2.31355 10.1923 2.55763L13.1923 5.55763C13.4364 5.80171 13.4364 6.19832 13.1923 6.4424L10.1923 9.4424C9.94826 9.68647 9.55165 9.68647 9.30757 9.4424C9.06349 9.19832 9.06349 8.80171 9.30757 8.55763L11.8652 6.00001L9.30757 3.4424C9.06349 3.19832 9.06349 2.80171 9.30757 2.55763Z" fill="#C3BBAC" style="fill:#C3BBAC;fill:color(display-p3 0.7648 0.7349 0.6752);fill-opacity:1;"/>
<path d="M3.87495 18.75V12.75C3.87495 12.4048 4.15477 12.125 4.49995 12.125C4.84513 12.125 5.12495 12.4048 5.12495 12.75V18.75C5.12495 18.7832 5.13764 18.8154 5.16109 18.8389C5.18453 18.8623 5.2168 18.875 5.24995 18.875H18.75C18.7831 18.875 18.8154 18.8623 18.8388 18.8389C18.8623 18.8154 18.875 18.7832 18.875 18.75V5.25001C18.875 5.21686 18.8623 5.18459 18.8388 5.16115C18.8154 5.1377 18.7831 5.12501 18.75 5.12501H16.5C16.1548 5.12501 15.875 4.84519 15.875 4.50001C15.875 4.15484 16.1548 3.87501 16.5 3.87501H18.75C19.1146 3.87501 19.4647 4.0195 19.7226 4.27736C19.9805 4.53522 20.125 4.88534 20.125 5.25001V18.75C20.125 19.1147 19.9805 19.4648 19.7226 19.7227C19.4647 19.9805 19.1146 20.125 18.75 20.125H5.24995C4.88528 20.125 4.53516 19.9805 4.2773 19.7227C4.01943 19.4648 3.87495 19.1147 3.87495 18.75Z" fill="#C3BBAC" style="fill:#C3BBAC;fill:color(display-p3 0.7648 0.7349 0.6752);fill-opacity:1;"/>
</svg>
