<svg width="24" height="24" viewBox="0 0 24 24" fill="none" xmlns="http://www.w3.org/2000/svg">
<rect x="4.5" y="4.5" width="15" height="15" rx="1" fill="#CED59E" style="fill:#CED59E;fill:color(display-p3 0.8078 0.8353 0.6196);fill-opacity:1;"/>
<path d="M5.46973 2.46973C5.76262 2.17684 6.23738 2.17684 6.53028 2.46973C6.82317 2.76262 6.82317 3.23738 6.53028 3.53028L4.06055 6L6.53028 8.46973C6.82317 8.76262 6.82317 9.23738 6.53028 9.53028C6.23738 9.82317 5.76262 9.82317 5.46973 9.53028L2.46973 6.53028C2.17684 6.23738 2.17684 5.76262 2.46973 5.46973L5.46973 2.46973Z" fill="#2B2B2B" style="fill:#2B2B2B;fill:color(display-p3 0.16863 0.16863 0.16863);fill-opacity:1;"/>
<path d="M9.21973 2.46973C9.51262 2.17684 9.98738 2.17684 10.2803 2.46973L13.2803 5.46973C13.5732 5.76262 13.5732 6.23738 13.2803 6.53028L10.2803 9.53028C9.98738 9.82317 9.51262 9.82317 9.21973 9.53028C8.92684 9.23738 8.92684 8.76262 9.21973 8.46973L11.6895 6L9.21973 3.53028C8.92684 3.23738 8.92684 2.76262 9.21973 2.46973Z" fill="#2B2B2B" style="fill:#2B2B2B;fill:color(display-p3 0.16863 0.16863 0.16863);fill-opacity:1;"/>
<path d="M3.75 18.75V12.75C3.75 12.3358 4.08579 12 4.5 12C4.91422 12 5.25 12.3358 5.25 12.75V18.75H18.75V5.25H16.5C16.0858 5.25 15.75 4.91422 15.75 4.5C15.75 4.08579 16.0858 3.75 16.5 3.75H18.75C19.1478 3.75 19.5292 3.90815 19.8106 4.18946C20.0919 4.47076 20.25 4.85218 20.25 5.25V18.75C20.25 19.1478 20.0919 19.5292 19.8106 19.8106C19.5292 20.0919 19.1478 20.25 18.75 20.25H5.25C4.85218 20.25 4.47076 20.0919 4.18946 19.8106C3.90815 19.5292 3.75 19.1478 3.75 18.75Z" fill="#2B2B2B" style="fill:#2B2B2B;fill:color(display-p3 0.16863 0.16863 0.16863);fill-opacity:1;"/>
</svg>
