<svg width="24" height="24" viewBox="0 0 24 24" fill="none" xmlns="http://www.w3.org/2000/svg">
<path d="M7.80938 20.25C6.37394 19.5913 5.15773 18.5345 4.3052 17.205C3.45268 15.8756 2.99968 14.3293 3 12.75L3 11H19.5V12.75C19.5003 14.3293 19.0473 15.8756 18.1948 17.205C17.3423 18.5345 16.1261 19.5913 14.6906 20.25H7.80938Z" fill="#B6AAA1" style="fill:#B6AAA1;fill:color(display-p3 0.7137 0.6667 0.6314);fill-opacity:1;"/>
<path fill-rule="evenodd" clip-rule="evenodd" d="M19.5 7.5L19.6855 7.50488C20.6125 7.55092 21.4931 7.93935 22.1523 8.59863C22.8553 9.30185 23.25 10.2557 23.25 11.25V12C23.25 12.9943 22.8553 13.9482 22.1523 14.6514C21.5054 15.2984 20.6451 15.6835 19.7373 15.7412C19.5074 16.3941 19.2035 17.022 18.8262 17.6104C18.3735 18.3163 17.8258 18.9508 17.2031 19.5H19.5C19.9142 19.5 20.25 19.8358 20.25 20.25C20.25 20.6642 19.9142 21 19.5 21H3C2.58579 21 2.25 20.6642 2.25 20.25C2.25 19.8358 2.58579 19.5 3 19.5H5.29688C4.67417 18.9508 4.12654 18.3163 3.67383 17.6104C2.8019 16.2506 2.31324 14.6826 2.25586 13.0723L2.25 12.75V8.25C2.25 7.83579 2.58579 7.5 3 7.5H19.5ZM3.75 12.75C3.74971 14.1856 4.16162 15.5913 4.93652 16.7998C5.68306 17.964 6.7368 18.8977 7.97949 19.5H14.5205C15.7632 18.8977 16.8169 17.964 17.5635 16.7998C17.9499 16.1971 18.2455 15.5452 18.4453 14.8652C18.4507 14.8356 18.461 14.8076 18.4697 14.7793C18.6544 14.1221 18.7501 13.4396 18.75 12.75V9H3.75V12.75ZM20.25 12.75L20.2441 13.0723C20.2312 13.4365 20.1942 13.7983 20.1377 14.1562C20.4946 14.0507 20.824 13.8586 21.0918 13.5908C21.5134 13.1689 21.75 12.5965 21.75 12V11.25C21.75 10.6535 21.5134 10.0811 21.0918 9.65918C20.8525 9.41983 20.5633 9.24175 20.25 9.13086V12.75Z" fill="#2B2B2B" style="fill:#2B2B2B;fill:color(display-p3 0.16863 0.16863 0.16863);fill-opacity:1;"/>
<path d="M8.25 1.5C8.66421 1.5 9 1.83579 9 2.25V5.25C9 5.66421 8.66421 6 8.25 6C7.83579 6 7.5 5.66421 7.5 5.25V2.25C7.5 1.83579 7.83579 1.5 8.25 1.5Z" fill="#2B2B2B" style="fill:#2B2B2B;fill:color(display-p3 0.16863 0.16863 0.16863);fill-opacity:1;"/>
<path d="M11.25 1.5C11.6642 1.5 12 1.83579 12 2.25V5.25C12 5.66421 11.6642 6 11.25 6C10.8358 6 10.5 5.66421 10.5 5.25V2.25C10.5 1.83579 10.8358 1.5 11.25 1.5Z" fill="#2B2B2B" style="fill:#2B2B2B;fill:color(display-p3 0.16863 0.16863 0.16863);fill-opacity:1;"/>
<path d="M14.25 1.5C14.6642 1.5 15 1.83579 15 2.25V5.25C15 5.66421 14.6642 6 14.25 6C13.8358 6 13.5 5.66421 13.5 5.25V2.25C13.5 1.83579 13.8358 1.5 14.25 1.5Z" fill="#2B2B2B" style="fill:#2B2B2B;fill:color(display-p3 0.16863 0.16863 0.16863);fill-opacity:1;"/>
</svg>
