<svg xmlns="http://www.w3.org/2000/svg" width="24" height="24" fill="none" viewBox="0 0 24 24">
  <path fill="#9a8979" d="M7.81 20.25A8.25 8.25 0 0 1 3 12.75V11h16.5v1.75a8.25 8.25 0 0 1-4.81 7.5z" style="fill:#9A8979;fill:color(display-p3 0.6057 0.5365 0.4743);fill-opacity:1"/>
  <path fill="#c6bcb3" d="M8.25 1.5a.75.75 0 0 1 .75.75v3a.75.75 0 0 1-1.5 0v-3a.75.75 0 0 1 .75-.75M11.25 1.5a.75.75 0 0 1 .75.75v3a.75.75 0 0 1-1.5 0v-3a.75.75 0 0 1 .75-.75M14.25 1.5a.75.75 0 0 1 .75.75v3a.75.75 0 0 1-1.5 0v-3a.75.75 0 0 1 .75-.75" style="fill:#C6BCB3;fill:color(display-p3 0.7783 0.7380 0.7017);fill-opacity:1"/>
  <path fill="#2b2b2b" fill-rule="evenodd" d="m19.5 7.5.186.005a3.753 3.753 0 0 1 3.564 3.745V12a3.75 3.75 0 0 1-3.513 3.741 9 9 0 0 1-.91 1.87c-.454.705-1.001 1.34-1.624 1.889H19.5a.75.75 0 0 1 0 1.5H3a.75.75 0 0 1 0-1.5h2.297a9 9 0 0 1-3.041-6.428l-.006-.322v-4.5A.75.75 0 0 1 3 7.5zM3.75 12.75a7.5 7.5 0 0 0 4.23 6.75h6.54a7.5 7.5 0 0 0 3.925-4.635q.01-.044.025-.086c.184-.657.28-1.34.28-2.029V9h-15zm16.5 0-.006.322q-.02.547-.106 1.084A2.25 2.25 0 0 0 21.75 12v-.75a2.25 2.25 0 0 0-.658-1.59 2.25 2.25 0 0 0-.842-.53z" clip-rule="evenodd" style="fill:#2B2B2B;fill:color(display-p3 0.1700 0.1700 0.1700);fill-opacity:1"/>
</svg>
