<svg width="24" height="24" viewBox="0 0 24 24" fill="none" xmlns="http://www.w3.org/2000/svg">
<path d="M7.80938 20.25C6.37394 19.5913 5.15773 18.5345 4.3052 17.205C3.45268 15.8756 2.99968 14.3293 3 12.75L3 11H19.5V12.75C19.5003 14.3293 19.0473 15.8756 18.1948 17.205C17.3423 18.5345 16.1261 19.5913 14.6906 20.25H7.80938Z" fill="#68574B" style="fill:#68574B;fill:color(display-p3 0.4071 0.3411 0.2948);fill-opacity:1;"/>
<path fill-rule="evenodd" clip-rule="evenodd" d="M19.5 7.625L19.6797 7.62988C20.5754 7.67443 21.4263 8.04944 22.0635 8.68652C22.7431 9.36632 23.125 10.2887 23.125 11.25V12C23.125 12.9613 22.7431 13.8837 22.0635 14.5635C21.4184 15.2084 20.5544 15.5833 19.6465 15.6201C19.4168 16.2922 19.1079 16.9381 18.7207 17.542C18.2129 18.3339 17.5846 19.0356 16.8633 19.625H19.5C19.8452 19.625 20.125 19.9048 20.125 20.25C20.125 20.5952 19.8452 20.875 19.5 20.875H3C2.65482 20.875 2.375 20.5952 2.375 20.25C2.375 19.9048 2.65482 19.625 3 19.625H5.63672C4.91536 19.0356 4.28714 18.3339 3.7793 17.542C2.91966 16.2014 2.43753 14.656 2.38086 13.0684L2.375 12.75V8.25C2.375 7.90482 2.65482 7.625 3 7.625H19.5ZM3.625 12.75C3.6247 14.2095 4.04331 15.6385 4.83105 16.8672C5.5954 18.0591 6.67704 19.0132 7.95215 19.625H14.5479C15.823 19.0132 16.9046 18.0591 17.6689 16.8672C18.0628 16.253 18.3643 15.5887 18.5674 14.8955L18.5713 14.874C18.5751 14.8552 18.5824 14.8375 18.5879 14.8193C18.7767 14.1492 18.8751 13.4533 18.875 12.75V8.875H3.625V12.75ZM20.125 12.75L20.1191 13.0684C20.1041 13.4911 20.0579 13.9106 19.9834 14.3242C20.4329 14.2307 20.8502 14.0091 21.1797 13.6797C21.6249 13.2343 21.875 12.6298 21.875 12V11.25C21.875 10.6202 21.6249 10.0157 21.1797 9.57031C20.8852 9.27587 20.52 9.06879 20.125 8.96094V12.75Z" fill="#C3BBAC" style="fill:#C3BBAC;fill:color(display-p3 0.7648 0.7349 0.6752);fill-opacity:1;"/>
<path d="M8.25 1.625C8.59518 1.625 8.875 1.90482 8.875 2.25V5.25C8.875 5.59518 8.59518 5.875 8.25 5.875C7.90482 5.875 7.625 5.59518 7.625 5.25V2.25C7.625 1.90482 7.90482 1.625 8.25 1.625Z" fill="#C3BBAC" style="fill:#C3BBAC;fill:color(display-p3 0.7648 0.7349 0.6752);fill-opacity:1;"/>
<path d="M11.25 1.625C11.5952 1.625 11.875 1.90482 11.875 2.25V5.25C11.875 5.59518 11.5952 5.875 11.25 5.875C10.9048 5.875 10.625 5.59518 10.625 5.25V2.25C10.625 1.90482 10.9048 1.625 11.25 1.625Z" fill="#C3BBAC" style="fill:#C3BBAC;fill:color(display-p3 0.7648 0.7349 0.6752);fill-opacity:1;"/>
<path d="M14.25 1.625C14.5952 1.625 14.875 1.90482 14.875 2.25V5.25C14.875 5.59518 14.5952 5.875 14.25 5.875C13.9048 5.875 13.625 5.59518 13.625 5.25V2.25C13.625 1.90482 13.9048 1.625 14.25 1.625Z" fill="#C3BBAC" style="fill:#C3BBAC;fill:color(display-p3 0.7648 0.7349 0.6752);fill-opacity:1;"/>
</svg>
