<svg width="24" height="24" viewBox="0 0 24 24" fill="none" xmlns="http://www.w3.org/2000/svg">
<path d="M12 10.5C13.6569 10.5 15 9.15685 15 7.5C15 5.84315 13.6569 4.5 12 4.5C10.3431 4.5 9 5.84315 9 7.5C9 9.15685 10.3431 10.5 12 10.5Z" fill="#4D4A45" style="fill:#4D4A45;fill:color(display-p3 0.3020 0.2902 0.2706);fill-opacity:1;"/>
<path d="M11.375 4.5V2.25C11.375 1.90482 11.6548 1.625 12 1.625C12.3452 1.625 12.625 1.90482 12.625 2.25V4.5C12.625 4.84518 12.3452 5.125 12 5.125C11.6548 5.125 11.375 4.84518 11.375 4.5Z" fill="#B79432" style="fill:#B79432;fill:color(display-p3 0.7176 0.5804 0.1961);fill-opacity:1;"/>
<path fill-rule="evenodd" clip-rule="evenodd" d="M11.9997 3.875C14.0017 3.875 15.6247 5.49797 15.6247 7.5C15.6247 8.7535 14.9884 9.8578 14.0212 10.5088L18.571 20.7461C18.7112 21.0615 18.569 21.4311 18.2536 21.5713C17.9383 21.7113 17.5686 21.5692 17.4284 21.2539L12.8786 11.0166C12.5972 11.0867 12.3028 11.125 11.9997 11.125C11.6962 11.125 11.4016 11.0869 11.1198 11.0166L6.571 21.2539C6.43077 21.5692 6.06119 21.7115 5.74581 21.5713C5.43062 21.431 5.28837 21.0614 5.42843 20.7461L9.97823 10.5088C9.01129 9.85777 8.37471 8.75334 8.37471 7.5C8.37471 5.49806 9.99781 3.87515 11.9997 3.875ZM11.9997 5.125C10.6882 5.12515 9.62471 6.18842 9.62471 7.5C9.62471 8.81158 10.6882 9.87485 11.9997 9.875C13.3114 9.875 14.3747 8.81168 14.3747 7.5C14.3747 6.18832 13.3114 5.125 11.9997 5.125Z" fill="#C3BBAC" style="fill:#C3BBAC;fill:color(display-p3 0.7648 0.7349 0.6752);fill-opacity:1;"/>
<path d="M18.9434 10.9658C19.1005 10.6586 19.477 10.5365 19.7842 10.6933C20.0914 10.8504 20.2135 11.2269 20.0567 11.5342C18.5823 14.4171 15.4375 16.374 12 16.374C10.758 16.3757 9.52953 16.1167 8.39457 15.6123C8.0792 15.4721 7.93701 15.1025 8.07719 14.7871C8.21743 14.4718 8.58704 14.3296 8.90239 14.4697C9.87721 14.903 10.9323 15.1265 11.9991 15.125C14.9739 15.125 17.6858 13.4245 18.9434 10.9658Z" fill="#B79432" style="fill:#B79432;fill:color(display-p3 0.7176 0.5804 0.1961);fill-opacity:1;"/>
</svg>
