<svg width="24" height="24" viewBox="0 0 24 24" fill="none" xmlns="http://www.w3.org/2000/svg">
<path d="M11.25 4.5V2.25C11.25 1.83579 11.5858 1.5 12 1.5C12.4142 1.5 12.75 1.83579 12.75 2.25V4.5C12.75 4.91421 12.4142 5.25 12 5.25C11.5858 5.25 11.25 4.91421 11.25 4.5Z" fill="#A7852B" style="fill:#A7852B;fill:color(display-p3 0.6549 0.5216 0.1686);fill-opacity:1;"/>
<path fill-rule="evenodd" clip-rule="evenodd" d="M11.9996 3.75C14.0707 3.75 15.7496 5.42893 15.7496 7.5C15.7496 8.7591 15.1283 9.87166 14.1764 10.5518L18.6852 20.6953C18.8534 21.0738 18.6828 21.5173 18.3043 21.6855C17.9259 21.8536 17.4823 21.6831 17.3141 21.3047L12.8053 11.1611C12.5458 11.218 12.2763 11.25 11.9996 11.25C11.7226 11.25 11.4529 11.2182 11.193 11.1611L6.68519 21.3047C6.51692 21.6831 6.07343 21.8538 5.69496 21.6855C5.3167 21.5172 5.14602 21.0737 5.3141 20.6953L9.82191 10.5518C8.87062 9.87159 8.24965 8.7586 8.24965 7.5C8.24965 5.42905 9.92874 3.75019 11.9996 3.75ZM11.9996 5.25C10.7572 5.25019 9.74965 6.25748 9.74965 7.5C9.74965 8.74252 10.7572 9.74981 11.9996 9.75C13.2423 9.75 14.2496 8.74264 14.2496 7.5C14.2496 6.25736 13.2423 5.25 11.9996 5.25Z" fill="#2B2B2B" style="fill:#2B2B2B;fill:color(display-p3 0.16863 0.16863 0.16863);fill-opacity:1;"/>
<path d="M18.832 10.9082C19.0207 10.5395 19.473 10.3935 19.8418 10.582C20.2105 10.7707 20.3565 11.2231 20.1679 11.5918C18.6719 14.5171 15.4837 16.499 12 16.499C10.7405 16.5007 9.49467 16.2381 8.34373 15.7266C7.96527 15.5583 7.79465 15.1148 7.96287 14.7363C8.13115 14.358 8.57468 14.1873 8.95311 14.3555C9.91192 14.7816 10.9498 15.0015 11.999 15H12C14.9287 15 17.5962 13.3247 18.832 10.9082Z" fill="#A7852B" style="fill:#A7852B;fill:color(display-p3 0.6549 0.5216 0.1686);fill-opacity:1;"/>
</svg>
