<svg xmlns="http://www.w3.org/2000/svg" width="24" height="24" fill="none" viewBox="0 0 24 24">
  <path fill="#be9207" d="M11.25 4.5V2.25a.75.75 0 0 1 1.5 0V4.5a.75.75 0 0 1-1.5 0" style="fill:#BE9207;fill:color(display-p3 0.7451 0.5725 0.0275);fill-opacity:1"/>
  <path fill="#2b2b2b" fill-rule="evenodd" d="M12 3.75a3.75 3.75 0 0 1 2.176 6.802l4.51 10.143a.75.75 0 0 1-1.372.61L12.805 11.16q-.39.087-.805.089-.416-.002-.807-.089L6.685 21.305a.75.75 0 0 1-1.37-.61l4.507-10.143A3.75 3.75 0 0 1 12 3.75m0 1.5a2.25 2.25 0 1 0 0 4.5 2.25 2.25 0 0 0 0-4.5" clip-rule="evenodd" style="fill:#2B2B2B;fill:color(display-p3 0.1700 0.1700 0.1700);fill-opacity:1"/>
  <path fill="#be9207" d="M18.832 10.908a.75.75 0 0 1 1.336.684c-1.496 2.925-4.684 4.907-8.168 4.907a9 9 0 0 1-3.656-.772.75.75 0 0 1 .61-1.372 7.5 7.5 0 0 0 3.045.645H12c2.929 0 5.596-1.675 6.832-4.092" style="fill:#BE9207;fill:color(display-p3 0.7451 0.5725 0.0275);fill-opacity:1"/>
</svg>
