<svg width="24" height="24" viewBox="0 0 24 24" fill="none" xmlns="http://www.w3.org/2000/svg">
<path d="M16.072 3.66443L14.9805 8.7997L20.1158 9.89124L16.072 3.66443Z" fill="#49453C" style="fill:#49453C;fill:color(display-p3 0.2863 0.2706 0.2353);fill-opacity:1;"/>
<path d="M16.7313 22.2067L3.52636 19.3999C3.33179 19.3586 3.16162 19.2416 3.05329 19.0748C2.94495 18.908 2.90732 18.7049 2.94868 18.5104L6.37922 2.37094C6.42058 2.17637 6.53753 2.00621 6.70435 1.89787C6.87118 1.78954 7.0742 1.75191 7.26877 1.79326L16.0721 3.66447L20.1158 9.89128L17.6209 21.6291C17.5795 21.8236 17.4626 21.9938 17.2958 22.1021C17.1289 22.2105 16.9259 22.2481 16.7313 22.2067Z" stroke="#C3BBAC" style="stroke:#C3BBAC;stroke:color(display-p3 0.7648 0.7349 0.6752);stroke-opacity:1;" stroke-width="1.25" stroke-linecap="round" stroke-linejoin="round"/>
<path d="M16.072 3.66443L14.9805 8.7997L20.1158 9.89124" stroke="#C3BBAC" style="stroke:#C3BBAC;stroke:color(display-p3 0.7648 0.7349 0.6752);stroke-opacity:1;" stroke-width="1.25" stroke-linecap="round" stroke-linejoin="round"/>
<line x1="8.78621" y1="6.07732" x2="12.4543" y2="6.85699" stroke="#C3BBAC" style="stroke:#C3BBAC;stroke:color(display-p3 0.7648 0.7349 0.6752);stroke-opacity:1;" stroke-width="1.25" stroke-linecap="round"/>
<line x1="7.64265" y1="11.4572" x2="9.10988" y2="11.7691" stroke="#C3BBAC" style="stroke:#C3BBAC;stroke:color(display-p3 0.7648 0.7349 0.6752);stroke-opacity:1;" stroke-width="1.25" stroke-linecap="round"/>
<line x1="6.6031" y1="16.3479" x2="8.07032" y2="16.6598" stroke="#C3BBAC" style="stroke:#C3BBAC;stroke:color(display-p3 0.7648 0.7349 0.6752);stroke-opacity:1;" stroke-width="1.25" stroke-linecap="round"/>
<line x1="11.7996" y1="12.3407" x2="16.4458" y2="13.3283" stroke="#C3BBAC" style="stroke:#C3BBAC;stroke:color(display-p3 0.7648 0.7349 0.6752);stroke-opacity:1;" stroke-width="1.25" stroke-linecap="round"/>
<line x1="10.7602" y1="17.2314" x2="15.4064" y2="18.219" stroke="#C3BBAC" style="stroke:#C3BBAC;stroke:color(display-p3 0.7648 0.7349 0.6752);stroke-opacity:1;" stroke-width="1.25" stroke-linecap="round"/>
</svg>
