<svg xmlns="http://www.w3.org/2000/svg" width="24" height="24" fill="none" viewBox="0 0 24 24">
  <path fill="#c6bcb3" d="M16.072 3.664 14.981 8.8l5.135 1.091z" style="fill:#C6BCB3;fill:color(display-p3 0.7783 0.7380 0.7017);fill-opacity:1"/>
  <path fill="#f7f5f2" d="m7.269 1.793 8.803 1.871L14.98 8.8l5.135 1.09-2.495 11.74a.75.75 0 0 1-.89.576L3.527 19.4a.75.75 0 0 1-.578-.89l3.43-16.139a.75.75 0 0 1 .89-.578" style="fill:#F7F5F2;fill:color(display-p3 0.9686 0.9608 0.9490);fill-opacity:1"/>
  <path fill="#2b2b2b" fill-rule="evenodd" d="M6.295 1.269a1.5 1.5 0 0 1 1.13-.209l8.803 1.871.074.02a.75.75 0 0 1 .399.305l4.044 6.227q.039.06.066.13.04.106.048.22a.7.7 0 0 1-.009.206v.008l-2.496 11.738a1.5 1.5 0 0 1-1.778 1.156L3.37 20.133a1.5 1.5 0 0 1-1.156-1.778l3.43-16.14c.083-.389.317-.73.65-.946M3.682 18.666l13.205 2.807 2.34-11.005-4.402-.934a.75.75 0 0 1-.578-.89l.935-4.402-8.07-1.715zM15.87 8.222l2.63.559-2.072-3.19z" clip-rule="evenodd" style="fill:#2B2B2B;fill:color(display-p3 0.1700 0.1700 0.1700);fill-opacity:1"/>
  <path fill="#2b2b2b" d="M12.514 5.975a.75.75 0 1 1-.312 1.467l-3.424-.727a.75.75 0 1 1 .312-1.468zM9.17 10.887a.75.75 0 1 1-.312 1.467l-1.223-.26a.75.75 0 1 1 .312-1.467zM8.13 15.778a.75.75 0 0 1-.312 1.467l-1.223-.26a.75.75 0 0 1 .312-1.467zM16.506 12.446a.75.75 0 0 1-.312 1.468l-4.402-.936a.75.75 0 0 1 .312-1.467zM15.466 17.337a.75.75 0 1 1-.312 1.467l-4.401-.935a.75.75 0 1 1 .311-1.468z" style="fill:#2B2B2B;fill:color(display-p3 0.1700 0.1700 0.1700);fill-opacity:1"/>
</svg>
