<svg width="24" height="24" viewBox="0 0 24 24" fill="none" xmlns="http://www.w3.org/2000/svg">
<path d="M16.072 3.66443L14.9805 8.7997L20.1158 9.89124L16.072 3.66443Z" fill="#D1C8C0" style="fill:#D1C8C0;fill:color(display-p3 0.8196 0.7843 0.7529);fill-opacity:1;"/>
<path d="M16.7313 22.2067L3.5263 19.3999C3.33173 19.3586 3.16156 19.2416 3.05323 19.0748C2.94489 18.908 2.90726 18.7049 2.94862 18.5104L6.37916 2.37094C6.42052 2.17637 6.53747 2.00621 6.70429 1.89787C6.87111 1.78954 7.07414 1.75191 7.26871 1.79326L16.072 3.66447L20.1158 9.89128L17.6208 21.6291C17.5795 21.8236 17.4625 21.9938 17.2957 22.1021C17.1289 22.2105 16.9259 22.2481 16.7313 22.2067Z" stroke="#2B2B2B" style="stroke:#2B2B2B;stroke:color(display-p3 0.16863 0.16863 0.16863);stroke-opacity:1;" stroke-width="1.5" stroke-linecap="round" stroke-linejoin="round"/>
<path d="M16.072 3.66443L14.9805 8.7997L20.1158 9.89124" stroke="#2B2B2B" style="stroke:#2B2B2B;stroke:color(display-p3 0.16863 0.16863 0.16863);stroke-opacity:1;" stroke-width="1.5" stroke-linecap="round" stroke-linejoin="round"/>
<line x1="8.93441" y1="5.98104" x2="12.3579" y2="6.70873" stroke="#2B2B2B" style="stroke:#2B2B2B;stroke:color(display-p3 0.16863 0.16863 0.16863);stroke-opacity:1;" stroke-width="1.5" stroke-linecap="round"/>
<line x1="7.79091" y1="11.3609" x2="9.0136" y2="11.6208" stroke="#2B2B2B" style="stroke:#2B2B2B;stroke:color(display-p3 0.16863 0.16863 0.16863);stroke-opacity:1;" stroke-width="1.5" stroke-linecap="round"/>
<line x1="6.75136" y1="16.2517" x2="7.97405" y2="16.5116" stroke="#2B2B2B" style="stroke:#2B2B2B;stroke:color(display-p3 0.16863 0.16863 0.16863);stroke-opacity:1;" stroke-width="1.5" stroke-linecap="round"/>
<line x1="11.948" y1="12.2445" x2="16.3496" y2="13.1801" stroke="#2B2B2B" style="stroke:#2B2B2B;stroke:color(display-p3 0.16863 0.16863 0.16863);stroke-opacity:1;" stroke-width="1.5" stroke-linecap="round"/>
<line x1="10.9085" y1="17.1351" x2="15.3101" y2="18.0707" stroke="#2B2B2B" style="stroke:#2B2B2B;stroke:color(display-p3 0.16863 0.16863 0.16863);stroke-opacity:1;" stroke-width="1.5" stroke-linecap="round"/>
</svg>
