<svg width="24" height="24" viewBox="0 0 24 24" fill="none" xmlns="http://www.w3.org/2000/svg">
<path d="M6.34783 6.05531L10.8281 8.64281L3.79033 10.5L3.02533 7.6875C3.00052 7.59454 2.9944 7.49758 3.00732 7.40224C3.02024 7.3069 3.05195 7.21506 3.1006 7.13206C3.14925 7.04905 3.21389 6.97652 3.29076 6.91866C3.36764 6.86081 3.45522 6.81877 3.54845 6.795L6.34783 6.05531ZM18.735 3.54C18.6822 3.35225 18.5575 3.1929 18.388 3.09654C18.2184 3.00018 18.0177 2.97458 17.8294 3.02531L11.8697 4.59844L16.35 7.185L19.5 6.35344L18.735 3.54Z" fill="#C5C1BB" style="fill:#C5C1BB;fill:color(display-p3 0.7725 0.7569 0.7333);fill-opacity:1;"/>
<path d="M20.25 9.75H9.57095L19.6875 7.07906C19.7833 7.05383 19.8731 7.00988 19.9518 6.94976C20.0305 6.88963 20.0965 6.81452 20.146 6.72876C20.1955 6.64299 20.2275 6.54827 20.2402 6.45006C20.2529 6.35186 20.2461 6.2521 20.22 6.15656L19.455 3.34406C19.3497 2.96567 19.0996 2.644 18.7588 2.4487C18.4181 2.2534 18.0141 2.2002 17.6344 2.30062L3.3572 6.06937C3.1671 6.11872 2.98876 6.20549 2.83261 6.32462C2.67646 6.44374 2.54565 6.59282 2.44783 6.76312C2.34946 6.93134 2.28591 7.11761 2.26094 7.31087C2.23598 7.50413 2.25012 7.70043 2.30252 7.88812L3.00002 10.4587C3.00002 10.4719 3.00002 10.4859 3.00002 10.5V18.75C3.00002 19.1478 3.15805 19.5294 3.43935 19.8107C3.72066 20.092 4.10219 20.25 4.50002 20.25H19.5C19.8978 20.25 20.2794 20.092 20.5607 19.8107C20.842 19.5294 21 19.1478 21 18.75V10.5C21 10.3011 20.921 10.1103 20.7803 9.96967C20.6397 9.82902 20.4489 9.75 20.25 9.75ZM18.015 3.75L18.5775 5.81906L16.4569 6.38156L13.8206 4.85906L18.015 3.75ZM11.7628 5.4L14.3991 6.9225L10.936 7.83656L8.2997 6.31594L11.7628 5.4ZM4.31908 9.58312L3.75658 7.51312L6.24095 6.85687L8.8772 8.38125L4.31908 9.58312ZM19.5 18.75H4.50002V11.25H19.5V18.75Z" fill="#2B2B2B" style="fill:#2B2B2B;fill:color(display-p3 0.16863 0.16863 0.16863);fill-opacity:1;"/>
</svg>
