<svg width="24" height="24" viewBox="0 0 24 24" fill="none" xmlns="http://www.w3.org/2000/svg">
<path d="M10.8281 8.6428L6.34782 6.0553L3.54844 6.79405C3.45511 6.81782 3.36743 6.85988 3.29048 6.9178C3.21353 6.97572 3.14885 7.04834 3.10019 7.13145C3.05152 7.21457 3.01985 7.30651 3.00699 7.40196C2.99414 7.49741 3.00037 7.59446 3.02532 7.68749L3.79032 10.5L10.8281 8.6428Z" fill="#404C16" style="fill:#404C16;fill:color(display-p3 0.2510 0.2980 0.0863);fill-opacity:1;"/>
<path d="M16.3496 7.18457L11.8701 4.59863L6.34766 6.05566L10.8271 8.6416L16.3496 7.18457Z" fill="#203A63" style="fill:#203A63;fill:color(display-p3 0.1255 0.2275 0.3882);fill-opacity:1;"/>
<path d="M11.8696 4.59841L16.3499 7.18498L19.4999 6.35341L18.7349 3.54091C18.6822 3.35317 18.5575 3.19382 18.3879 3.09746C18.2183 3.0011 18.0176 2.9755 17.8293 3.02623L11.8696 4.59841Z" fill="#632620" style="fill:#632620;fill:color(display-p3 0.3882 0.1490 0.1255);fill-opacity:1;"/>
<path fill-rule="evenodd" clip-rule="evenodd" d="M17.6706 2.42257C18.0168 2.33032 18.3854 2.37734 18.697 2.55441C18.9706 2.70996 19.1813 2.95417 19.2947 3.24484L19.3366 3.37179L19.3386 3.37667L20.1032 6.18917C20.1469 6.34979 20.1249 6.52155 20.0417 6.66574C19.9585 6.8099 19.8208 6.91516 19.6599 6.95773L16.5134 7.78683C16.5114 7.78737 16.5095 7.78826 16.5075 7.78878L10.9958 9.24386C10.9913 9.24514 10.9868 9.2466 10.9822 9.24777L8.60813 9.87472H20.2497C20.5948 9.87472 20.8746 10.1547 20.8747 10.4997V18.7497C20.8747 19.1144 20.7303 19.4645 20.4724 19.7224C20.2145 19.9802 19.8644 20.1247 19.4997 20.1247H4.49973C4.13517 20.1246 3.78487 19.9802 3.52708 19.7224C3.2694 19.4645 3.12473 19.1143 3.12473 18.7497V10.4997C3.12474 10.4832 3.12738 10.467 3.12864 10.4509L2.42258 7.85128L2.42161 7.84933C2.37524 7.67641 2.36354 7.49551 2.38743 7.31808C2.41136 7.14079 2.47086 6.96954 2.56126 6.81515C2.65165 6.66092 2.77195 6.5262 2.91477 6.41867C3.05776 6.31106 3.22085 6.23238 3.39426 6.1882L17.6706 2.42257ZM4.37473 18.7497C4.37473 18.7827 4.38761 18.8152 4.41086 18.8386C4.43423 18.862 4.46669 18.8746 4.49973 18.8747H19.4997C19.5329 18.8747 19.5652 18.862 19.5886 18.8386C19.612 18.8151 19.6247 18.7829 19.6247 18.7497V11.1247H4.37473V18.7497ZM3.70774 7.39816L3.70286 7.40011C3.68994 7.40342 3.67742 7.40876 3.66672 7.41671C3.65592 7.42485 3.64623 7.43532 3.63938 7.44699C3.63258 7.45861 3.62852 7.47173 3.62669 7.48507C3.62489 7.49841 3.62617 7.5121 3.62961 7.52511L4.2302 9.73605L9.19895 8.42355L6.25754 6.72531L3.70774 7.39816ZM7.97336 6.27218L10.9148 7.9714L14.7214 6.96652L11.78 5.2673L7.97336 6.27218ZM17.9919 3.6296L17.989 3.63058L13.4958 4.81515L16.4382 6.51339L18.7312 5.9089L18.1335 3.70968C18.1253 3.68061 18.106 3.65535 18.0798 3.64035C18.0534 3.62534 18.0213 3.62175 17.9919 3.6296Z" fill="#C3BBAC" style="fill:#C3BBAC;fill:color(display-p3 0.7648 0.7349 0.6752);fill-opacity:1;"/>
</svg>
