<svg width="24" height="24" viewBox="0 0 24 24" fill="none" xmlns="http://www.w3.org/2000/svg">
<path d="M10.8281 8.6428L6.34782 6.0553L3.54844 6.79405C3.45511 6.81782 3.36743 6.85988 3.29048 6.9178C3.21353 6.97572 3.14885 7.04834 3.10019 7.13145C3.05152 7.21457 3.01985 7.30651 3.00699 7.40196C2.99414 7.49741 3.00037 7.59446 3.02532 7.68749L3.79032 10.5L10.8281 8.6428Z" fill="#CED59E" style="fill:#CED59E;fill:color(display-p3 0.8078 0.8353 0.6196);fill-opacity:1;"/>
<path d="M16.3496 7.18457L11.8701 4.59863L6.34766 6.05566L10.8271 8.6416L16.3496 7.18457Z" fill="#B2CEE0" style="fill:#B2CEE0;fill:color(display-p3 0.6980 0.8078 0.8784);fill-opacity:1;"/>
<path d="M11.8697 4.59841L16.35 7.18498L19.5 6.35341L18.735 3.54091C18.6822 3.35317 18.5575 3.19382 18.388 3.09746C18.2184 3.0011 18.0177 2.9755 17.8294 3.02623L11.8697 4.59841Z" fill="#F2B5A5" style="fill:#F2B5A5;fill:color(display-p3 0.9490 0.7098 0.6471);fill-opacity:1;"/>
<path fill-rule="evenodd" clip-rule="evenodd" d="M17.6381 2.30285C17.9687 2.21467 18.3174 2.24217 18.6274 2.37999L18.7583 2.44542L18.8823 2.52452C19.1601 2.72092 19.3635 3.00768 19.4565 3.338L19.4585 3.34484L20.2241 6.15734C20.2762 6.34988 20.2495 6.55582 20.1499 6.72863C20.05 6.90148 19.8848 7.02816 19.6919 7.07921L9.57271 9.75011H20.2504C20.6644 9.75036 21.0004 10.0861 21.0004 10.5001V18.7501C21.0004 19.1478 20.8422 19.5294 20.561 19.8107C20.2798 20.0919 19.8981 20.25 19.5004 20.2501H4.50045C4.10276 20.2501 3.72118 20.0918 3.4399 19.8107C3.15862 19.5294 3.00048 19.1479 3.00045 18.7501V10.5001C3.00045 10.4864 3.00069 10.4726 3.00142 10.4591L2.30123 7.88488V7.88195C2.25061 7.69316 2.23808 7.49558 2.26412 7.30187C2.29022 7.10839 2.35402 6.92156 2.45259 6.75304L2.53267 6.62999C2.61858 6.51188 2.72221 6.40664 2.83931 6.31847L2.96041 6.23644C3.04354 6.18592 3.13168 6.1437 3.2231 6.11046L3.36373 6.06749L6.15084 5.33214C6.15282 5.3316 6.15471 5.33071 6.1567 5.33019L11.6674 3.87609C11.6723 3.87473 11.6772 3.87344 11.6821 3.87218L17.6381 2.30285ZM4.50045 18.7501H19.5004V11.2501H4.50045V18.7501ZM3.75533 7.51476L4.3188 9.58507L8.8774 8.38097L6.24068 6.85851L3.75533 7.51476ZM8.29927 6.31554L10.935 7.838L14.3979 6.92394L11.7612 5.40245L8.29927 6.31554ZM13.8208 4.85851L16.4565 6.38097L18.5776 5.8214L18.0151 3.75304L13.8208 4.85851Z" fill="#2B2B2B" style="fill:#2B2B2B;fill:color(display-p3 0.16863 0.16863 0.16863);fill-opacity:1;"/>
</svg>
