<svg xmlns="http://www.w3.org/2000/svg" width="24" height="24" fill="none" viewBox="0 0 24 24">
  <path fill="#f7f5f2" d="M3.75 10.5h16.5v8.25a.75.75 0 0 1-.75.75h-15a.75.75 0 0 1-.75-.75z" style="fill:#f7f5f2;fill:color(display-p3 .9686 .9608 .949);fill-opacity:1"/>
  <path fill="#ced59e" d="m10.828 8.643-4.48-2.588-2.8.74a.73.73 0 0 0-.523.892L3.79 10.5z" style="fill:#ced59e;fill:color(display-p3 .8078 .8353 .6196);fill-opacity:1"/>
  <path fill="#b2cee0" d="m16.35 7.185-4.48-2.586-5.522 1.457 4.48 2.586z" style="fill:#b2cee0;fill:color(display-p3 .698 .8078 .8784);fill-opacity:1"/>
  <path fill="#fdb2a2" d="m11.87 4.598 4.48 2.587 3.15-.832-.765-2.812a.74.74 0 0 0-.906-.515z" style="fill:#fdb2a2;fill:color(display-p3 .9922 .698 .6353);fill-opacity:1"/>
  <path fill="#2b2b2b" fill-rule="evenodd" d="M17.638 2.303c.33-.088.68-.06.99.077l.13.065.124.08c.278.196.482.483.575.813l.002.007.765 2.812a.75.75 0 0 1-.532.922L9.572 9.75h10.679a.75.75 0 0 1 .75.75v8.25a1.5 1.5 0 0 1-1.5 1.5h-15a1.5 1.5 0 0 1-1.5-1.5v-8.29l-.7-2.575v-.003a1.48 1.48 0 0 1 .152-1.129l.08-.123q.13-.178.306-.312l.121-.082a1.5 1.5 0 0 1 .263-.126l.14-.043 2.788-.735.006-.002 5.51-1.454.015-.004zM4.501 18.75h15v-7.5h-15zM3.755 7.515l.564 2.07 4.558-1.204-2.636-1.522zm4.544-1.2 2.636 1.523 3.463-.914-2.637-1.522zm5.522-1.456 2.636 1.522 2.12-.56-.562-2.068z" clip-rule="evenodd" style="fill:#2b2b2b;fill:color(display-p3 .17 .17 .17);fill-opacity:1"/>
</svg>
