<svg width="24" height="24" viewBox="0 0 24 24" fill="none" xmlns="http://www.w3.org/2000/svg">
<path d="M4.5 5.25C6.48912 5.25 8.39678 6.04018 9.8033 7.4467C11.2098 8.85322 12 10.7609 12 12.75V16.5C10.0109 16.5 8.10322 15.7098 6.6967 14.3033C5.29018 12.8968 4.5 10.9891 4.5 9V5.25Z" fill="#F7F5F2" style="fill:#F7F5F2;fill:color(display-p3 0.9686 0.9608 0.9490);fill-opacity:1;"/>
<path d="M12 16.5V12.75C12 10.7609 12.7902 8.85322 14.1967 7.4467C15.6032 6.04018 17.5109 5.25 19.5 5.25V9C19.5 10.9891 18.7098 12.8968 17.3033 14.3033C15.8968 15.7098 13.9891 16.5 12 16.5Z" fill="#F7F5F2" style="fill:#F7F5F2;fill:color(display-p3 0.9686 0.9608 0.9490);fill-opacity:1;"/>
<path fill-rule="evenodd" clip-rule="evenodd" d="M11.665 1.57914C11.8761 1.47377 12.1249 1.47363 12.3359 1.57914L12.3379 1.58012C12.3387 1.58055 12.3398 1.58154 12.3408 1.58207C12.3431 1.58321 12.3462 1.58425 12.3496 1.58598C12.3568 1.58967 12.3669 1.5953 12.3789 1.6016C12.403 1.61424 12.4368 1.63226 12.4785 1.65531C12.5624 1.7017 12.6806 1.76966 12.8242 1.85844C13.1115 2.03602 13.5052 2.30015 13.9395 2.65141C14.6636 3.23724 15.522 4.0845 16.1846 5.19731C17.2201 4.74288 18.3473 4.50004 19.5 4.50004C19.9142 4.50004 20.25 4.83583 20.25 5.25004V9.00004C20.25 11.1881 19.3812 13.2869 17.834 14.834C16.4646 16.2034 14.663 17.0394 12.75 17.2139V20.5362L16.165 18.8291C16.5354 18.6442 16.9857 18.7947 17.1709 19.1651C17.3558 19.5355 17.2053 19.9858 16.835 20.1709L12.335 22.4209C12.3271 22.4249 12.3185 22.4271 12.3105 22.4307C12.2974 22.4367 12.2841 22.442 12.2705 22.4473C12.2327 22.462 12.1945 22.4741 12.1553 22.4825C12.1417 22.4853 12.1281 22.4882 12.1143 22.4903C12.1032 22.492 12.0922 22.4939 12.0811 22.4952C12.0544 22.498 12.0274 22.5 12 22.5L11.9229 22.4961C11.9212 22.496 11.9196 22.4953 11.918 22.4952C11.9072 22.494 11.8965 22.4919 11.8857 22.4903C11.8716 22.4881 11.8576 22.4854 11.8438 22.4825C11.8046 22.4741 11.7663 22.462 11.7285 22.4473C11.715 22.442 11.7016 22.4367 11.6885 22.4307C11.6808 22.4272 11.6726 22.4247 11.665 22.4209L7.16504 20.1709C6.79469 19.9858 6.64418 19.5355 6.8291 19.1651C7.01428 18.7947 7.46455 18.6442 7.83496 18.8291L11.25 20.5362V17.2139C9.33701 17.0394 7.53537 16.2034 6.16602 14.834C4.61885 13.2869 3.75001 11.1881 3.75 9.00004V5.25004C3.75 4.83583 4.08579 4.50004 4.5 4.50004C5.6524 4.50004 6.77912 4.74312 7.81445 5.19731C8.47683 4.08414 9.33621 3.23736 10.0605 2.65141C10.4948 2.30018 10.8885 2.03602 11.1758 1.85844C11.3197 1.76952 11.4385 1.7017 11.5225 1.65531C11.5643 1.6322 11.598 1.61422 11.6221 1.6016C11.634 1.59535 11.6432 1.58964 11.6504 1.58598C11.6538 1.58425 11.6569 1.58322 11.6592 1.58207C11.6602 1.58154 11.6613 1.58051 11.6621 1.58012H11.6641L11.665 1.57914ZM18.75 6.04398C17.2358 6.21329 15.8143 6.88884 14.7266 7.9766C13.4607 9.24247 12.75 10.9598 12.75 12.75V15.7071C14.2642 15.5378 15.6857 14.8613 16.7734 13.7735C18.0393 12.5076 18.75 10.7902 18.75 9.00004V6.04398ZM5.25 9.00004C5.25001 10.7902 5.9607 12.5076 7.22656 13.7735C8.31432 14.8612 9.73583 15.5368 11.25 15.7061V12.75C11.25 10.9598 10.5393 9.24247 9.27344 7.9766C8.18565 6.88881 6.76421 6.21229 5.25 6.04301V9.00004ZM11.9648 3.13383C11.7213 3.28436 11.3807 3.51264 11.0039 3.81742C10.3764 4.32506 9.66831 5.0282 9.12793 5.92094C9.55738 6.2119 9.96191 6.54398 10.334 6.91606C11.035 7.61706 11.5952 8.43198 12 9.31645C12.4048 8.43198 12.965 7.61706 13.666 6.91606C14.0379 6.54417 14.4419 6.2118 14.8711 5.92094C14.3308 5.02838 13.6236 4.325 12.9961 3.81742C12.6193 3.51265 12.2787 3.28437 12.0352 3.13383C12.0232 3.12647 12.0114 3.11933 12 3.11234C11.9886 3.11933 11.9768 3.12646 11.9648 3.13383Z" fill="#2B2B2B" style="fill:#2B2B2B;fill:color(display-p3 0.16863 0.16863 0.16863);fill-opacity:1;"/>
</svg>
