<svg xmlns="http://www.w3.org/2000/svg" width="24" height="24" fill="none" viewBox="0 0 24 24">
  <path fill="#d6d6d6" d="M12 12.75a7.5 7.5 0 0 1 3.865-6.562C14.625 3.563 12 2.25 12 2.25S9.375 3.563 8.135 6.188A7.5 7.5 0 0 1 12 12.75" style="fill:#D6D6D6;fill:color(display-p3 0.8400 0.8400 0.8400);fill-opacity:1"/>
  <path fill="#f7f5f2" d="M4.5 5.25a7.5 7.5 0 0 1 7.5 7.5v3.75A7.5 7.5 0 0 1 4.5 9zM12 16.5v-3.75a7.5 7.5 0 0 1 7.5-7.5V9a7.5 7.5 0 0 1-7.5 7.5" style="fill:#F7F5F2;fill:color(display-p3 0.9686 0.9608 0.9490);fill-opacity:1"/>
  <path fill="#2b2b2b" fill-rule="evenodd" d="M11.665 1.58a.75.75 0 0 1 .67 0h.003l.003.002.009.004.029.016.1.053a10.923 10.923 0 0 1 1.461.996c.724.586 1.582 1.434 2.245 2.546A8.25 8.25 0 0 1 19.5 4.5a.75.75 0 0 1 .75.75V9a8.248 8.248 0 0 1-7.5 8.214v3.322l3.415-1.707a.75.75 0 0 1 .67 1.342l-4.5 2.25-.025.01a.8.8 0 0 1-.155.052l-.04.007-.034.005A1 1 0 0 1 12 22.5l-.077-.004h-.005l-.032-.006a.8.8 0 0 1-.197-.06q-.012-.003-.024-.01l-4.5-2.25a.75.75 0 0 1 .67-1.34l3.415 1.706v-3.322A8.25 8.25 0 0 1 3.75 9V5.25a.75.75 0 0 1 .75-.75c1.152 0 2.28.243 3.314.697.663-1.113 1.522-1.96 2.246-2.546.435-.35.829-.615 1.116-.793a8 8 0 0 1 .446-.256l.028-.016.01-.004.002-.002zm7.085 4.464a6.75 6.75 0 0 0-4.023 1.933 6.75 6.75 0 0 0-1.977 4.773v2.957a6.75 6.75 0 0 0 6-6.707zM5.25 9c0 1.79.71 3.508 1.977 4.774a6.75 6.75 0 0 0 4.023 1.932V12.75a6.75 6.75 0 0 0-6-6.707zm6.715-5.866c-.244.15-.584.379-.961.683-.628.508-1.336 1.211-1.876 2.104q.646.436 1.206.995A8.2 8.2 0 0 1 12 9.316a8.24 8.24 0 0 1 2.871-3.395c-.54-.893-1.247-1.596-1.875-2.104a9 9 0 0 0-.96-.683L12 3.112z" clip-rule="evenodd" style="fill:#2B2B2B;fill:color(display-p3 0.1700 0.1700 0.1700);fill-opacity:1"/>
</svg>
