<svg width="24" height="24" viewBox="0 0 24 24" fill="none" xmlns="http://www.w3.org/2000/svg">
<path d="M4.5 5.25C6.48912 5.25 8.39678 6.04018 9.8033 7.4467C11.2098 8.85322 12 10.7609 12 12.75V16.5C10.0109 16.5 8.10322 15.7098 6.6967 14.3033C5.29018 12.8968 4.5 10.9891 4.5 9V5.25Z" fill="#4D4A45" style="fill:#4D4A45;fill:color(display-p3 0.3020 0.2902 0.2706);fill-opacity:1;"/>
<path d="M12 16.5V12.75C12 10.7609 12.7902 8.85322 14.1967 7.4467C15.6032 6.04018 17.5109 5.25 19.5 5.25V9C19.5 10.9891 18.7098 12.8968 17.3033 14.3033C15.8968 15.7098 13.9891 16.5 12 16.5Z" fill="#4D4A45" style="fill:#4D4A45;fill:color(display-p3 0.3020 0.2902 0.2706);fill-opacity:1;"/>
<path fill-rule="evenodd" clip-rule="evenodd" d="M11.7207 1.69188C11.8966 1.60392 12.1034 1.60394 12.2793 1.69188L12.2812 1.69286C12.282 1.69316 12.2832 1.69335 12.2842 1.69384C12.2863 1.69489 12.2897 1.69606 12.293 1.69774C12.2997 1.70122 12.3089 1.70642 12.3203 1.71239C12.3436 1.72464 12.3769 1.74245 12.418 1.76513C12.5002 1.81061 12.6161 1.87775 12.7578 1.96532C13.0414 2.1406 13.431 2.40123 13.8604 2.74852C14.5979 3.34516 15.4743 4.21279 16.1338 5.35595C17.1809 4.87918 18.3272 4.62548 19.5 4.62548C19.8452 4.62548 20.125 4.9053 20.125 5.25048V9.00048C20.1249 11.1552 19.2687 13.222 17.7451 14.7456C16.3695 16.1211 14.551 16.9495 12.625 17.0981V20.7397L16.2207 18.9419C16.5294 18.7875 16.9042 18.9124 17.0586 19.2212C17.2127 19.5298 17.0879 19.9048 16.7793 20.0591L12.2793 22.3091C12.2712 22.3131 12.2622 22.3152 12.2539 22.3188C12.2458 22.3225 12.2378 22.3263 12.2295 22.3296C12.2 22.3413 12.1702 22.3509 12.1396 22.3579C12.1268 22.3608 12.1137 22.3626 12.1006 22.3647C12.0335 22.3757 11.9655 22.3758 11.8984 22.3647C11.8853 22.3626 11.8722 22.3609 11.8594 22.3579C11.8289 22.3508 11.799 22.3413 11.7695 22.3296C11.7612 22.3263 11.7532 22.3225 11.7451 22.3188C11.7371 22.3153 11.7286 22.313 11.7207 22.3091L7.2207 20.0591C6.91209 19.9048 6.78732 19.5298 6.94141 19.2212C7.09577 18.9124 7.47056 18.7875 7.7793 18.9419L11.375 20.7397V17.0981C9.44898 16.9495 7.63054 16.1211 6.25488 14.7456C4.73126 13.222 3.87512 11.1552 3.875 9.00048V5.25048C3.875 4.9053 4.15482 4.62548 4.5 4.62548C5.67245 4.62548 6.8183 4.87942 7.86523 5.35595C8.52479 4.21257 9.40201 3.34522 10.1396 2.74852C10.5691 2.40116 10.9586 2.14061 11.2422 1.96532C11.3839 1.87773 11.4998 1.81061 11.582 1.76513C11.6231 1.74241 11.6564 1.72464 11.6797 1.71239C11.6913 1.7063 11.7012 1.70124 11.708 1.69774C11.7111 1.69617 11.7138 1.69486 11.7158 1.69384C11.7168 1.69336 11.718 1.69319 11.7188 1.69286L11.7207 1.69188ZM18.875 5.90477C17.2809 6.05027 15.7798 6.74801 14.6387 7.88915C13.3495 9.17844 12.625 10.9272 12.625 12.7505V15.8472C14.2191 15.7017 15.7202 15.0028 16.8613 13.8618C18.1505 12.5726 18.8749 10.8237 18.875 9.00048V5.90477ZM5.125 9.00048C5.12512 10.8237 5.84947 12.5726 7.13867 13.8618C8.27979 15.0028 9.78097 15.7007 11.375 15.8462V12.7505C11.375 10.9272 10.6505 9.17844 9.36133 7.88915C8.22017 6.74799 6.71915 6.04927 5.125 5.9038V9.00048ZM11.8994 3.02782C11.6522 3.18061 11.3073 3.41255 10.9258 3.72118C10.2672 4.25398 9.51728 5.00193 8.95996 5.96044C9.41918 6.26211 9.85074 6.61098 10.2451 7.00536C11.0029 7.76319 11.5957 8.65506 12 9.62548C12.4043 8.65506 12.9971 7.76319 13.7549 7.00536C14.1494 6.61085 14.5806 6.2612 15.04 5.95946C14.4826 5.00142 13.7327 4.25383 13.0742 3.72118C12.6927 3.4126 12.3478 3.18061 12.1006 3.02782C12.0653 3.006 12.0311 2.98681 12 2.96825C11.9689 2.98683 11.9348 3.00598 11.8994 3.02782Z" fill="#C3BBAC" style="fill:#C3BBAC;fill:color(display-p3 0.7648 0.7349 0.6752);fill-opacity:1;"/>
</svg>
