<svg xmlns="http://www.w3.org/2000/svg" width="24" height="24" fill="none" viewBox="0 0 24 24">
  <path fill="#c2c2c2" d="M22.46 16.42 20.926 8.53a4.868 4.868 0 0 1-4.801 5.719h-2.054l3.948 4.481a2.626 2.626 0 0 0 4.44-2.312" style="fill:#C2C2C2;fill:color(display-p3 0.7600 0.7600 0.7600);fill-opacity:1"/>
  <path fill="#d6d6d6" d="m9.929 14.25-3.948 4.481a2.626 2.626 0 0 1-4.44-2.312l1.533-7.888A4.875 4.875 0 0 1 7.864 4.5h8.261a4.875 4.875 0 1 1 0 9.75z" style="fill:#D6D6D6;fill:color(display-p3 0.8400 0.8400 0.8400);fill-opacity:1"/>
  <path fill="#2b2b2b" fill-rule="evenodd" d="M16.125 3.75a5.623 5.623 0 0 1 5.532 4.62l.005.018 1.534 7.888.003.013a3.378 3.378 0 0 1-3.837 3.921 3.38 3.38 0 0 1-1.906-.983L13.732 15h-3.464l-3.723 4.227-.033.035a3.377 3.377 0 0 1-5.71-2.973l.003-.013 1.533-7.888A5.626 5.626 0 0 1 7.863 3.75zm-8.44 1.504A4.13 4.13 0 0 0 3.813 8.66l-.003.014-1.533 7.887a1.875 1.875 0 0 0 3.162 1.649l3.928-4.457.056-.057a.75.75 0 0 1 .507-.197h6.195a4.127 4.127 0 0 0 2.917-7.042 4.13 4.13 0 0 0-2.917-1.208H7.867zm13.217 7.086a5.6 5.6 0 0 1-.8 1.012A5.63 5.63 0 0 1 16.125 15h-.394l2.833 3.215a1.874 1.874 0 0 0 3.16-1.652z" clip-rule="evenodd" style="fill:#2B2B2B;fill:color(display-p3 0.1700 0.1700 0.1700);fill-opacity:1"/>
  <path fill="#2b2b2b" d="M8.25 7.25A.75.75 0 0 1 9 8v.75h.75a.75.75 0 1 1 0 1.5H9V11a.75.75 0 0 1-1.5 0v-.75h-.75a.75.75 0 0 1 0-1.5h.75V8a.75.75 0 0 1 .75-.75" style="fill:#2B2B2B;fill:color(display-p3 0.1700 0.1700 0.1700);fill-opacity:1"/>
  <circle cx="13.75" cy="9.5" r="1" fill="#ce5d97" style="fill:#CE5D97;fill:color(display-p3 0.8078 0.3647 0.5922);fill-opacity:1"/>
  <circle cx="15.5" cy="7.75" r="1" fill="#768d21" style="fill:#768D21;fill:color(display-p3 0.4627 0.5529 0.1294);fill-opacity:1"/>
  <circle cx="15.5" cy="11.25" r="1" fill="#4385be" style="fill:#4385BE;fill:color(display-p3 0.2627 0.5216 0.7451);fill-opacity:1"/>
  <circle cx="17.25" cy="9.5" r="1" fill="#da702c" style="fill:#DA702C;fill:color(display-p3 0.8549 0.4392 0.1725);fill-opacity:1"/>
</svg>
