<svg width="24" height="24" viewBox="0 0 24 24" fill="none" xmlns="http://www.w3.org/2000/svg">
<path d="M1.54106 16.4194L3.07481 8.53125C2.95063 9.23223 2.98167 9.95192 3.16573 10.6396C3.34979 11.3273 3.6824 11.9663 4.14013 12.5115C4.59785 13.0567 5.16957 13.495 5.81499 13.7953C6.46042 14.0957 7.16385 14.2509 7.87575 14.25H9.92981L5.982 18.7313C5.58723 19.1258 5.07696 19.3843 4.52528 19.4692C3.97361 19.554 3.40925 19.4608 2.91416 19.2031C2.41907 18.9453 2.01902 18.5365 1.7721 18.0359C1.52518 17.5353 1.44425 16.9691 1.54106 16.4194Z" fill="#333230" style="fill:#333230;fill:color(display-p3 0.2000 0.1961 0.1882);fill-opacity:1;"/>
<path d="M8.24976 7.25C8.66397 7.25 8.99976 7.58579 8.99976 8V8.75H9.74976C10.164 8.75 10.4998 9.08579 10.4998 9.5C10.4998 9.91421 10.164 10.25 9.74976 10.25H8.99976V11C8.99976 11.4142 8.66397 11.75 8.24976 11.75C7.83563 11.7499 7.49976 11.4141 7.49976 11V10.25H6.74976C6.33563 10.2499 5.99976 9.91415 5.99976 9.5C5.99976 9.08585 6.33563 8.75011 6.74976 8.75H7.49976V8C7.49976 7.58585 7.83563 7.25011 8.24976 7.25Z" fill="#C3BBAC" style="fill:#C3BBAC;fill:color(display-p3 0.7648 0.7349 0.6752);fill-opacity:1;"/>
<path fill-rule="evenodd" clip-rule="evenodd" d="M7.87587 3.75C6.38425 3.75008 4.95313 4.34278 3.89833 5.39746C3.08381 6.21205 2.54687 7.25126 2.34365 8.36914C2.34227 8.37535 2.33999 8.38142 2.33876 8.3877L0.804585 16.2764L0.801655 16.2891C0.677201 16.9958 0.782073 17.7246 1.09951 18.3682C1.41691 19.0114 1.93111 19.5369 2.56728 19.8682C3.20365 20.1994 3.92946 20.3189 4.63857 20.21C5.34773 20.1009 6.00409 19.7689 6.51162 19.2617C6.5228 19.2505 6.53436 19.2384 6.54482 19.2266L10.2685 15H13.7323L17.456 19.2266C17.4664 19.2384 17.478 19.2506 17.4892 19.2617C17.9966 19.7689 18.6531 20.1008 19.3622 20.21C20.0713 20.319 20.7971 20.1994 21.4335 19.8682C22.0697 19.5369 22.5838 19.0114 22.9013 18.3682C23.2187 17.7246 23.3236 16.9958 23.1991 16.2891L23.1962 16.2764L21.663 8.3877C21.432 7.09233 20.7539 5.91873 19.747 5.07129C18.7364 4.22097 17.4583 3.75297 16.1376 3.75H7.87587ZM16.3153 5.25391C17.219 5.29564 18.0864 5.63416 18.7811 6.21875C19.5222 6.8424 20.0198 7.7072 20.1874 8.66113L20.1903 8.6748L21.7235 16.5625C21.7891 16.951 21.7309 17.3505 21.5565 17.7041C21.3802 18.0615 21.0946 18.354 20.7411 18.5381C20.3875 18.7221 19.9837 18.7881 19.5897 18.7275C19.2011 18.6677 18.8417 18.4864 18.5614 18.2109L14.6337 13.7539L14.578 13.6973C14.4404 13.5712 14.2597 13.5 14.0712 13.5H7.87587C6.78207 13.4999 5.73238 13.0654 4.95888 12.292C4.18539 11.5184 3.75087 10.4689 3.75087 9.375C3.75087 8.28106 4.18539 7.23158 4.95888 6.45801C5.73238 5.68463 6.78207 5.25008 7.87587 5.25H16.1337L16.3153 5.25391ZM3.09853 12.3398C3.32432 12.7037 3.59062 13.0448 3.89833 13.3525C4.95313 14.4072 6.38425 14.9999 7.87587 15H8.26943L5.43642 18.2148C5.15655 18.4885 4.79822 18.668 4.41103 18.7275C4.01719 18.7881 3.61412 18.722 3.26064 18.5381C2.90707 18.354 2.62058 18.0616 2.44423 17.7041C2.26989 17.3506 2.21166 16.951 2.27724 16.5625L3.09853 12.3398Z" fill="#C3BBAC" style="fill:#C3BBAC;fill:color(display-p3 0.7648 0.7349 0.6752);fill-opacity:1;"/>
<circle cx="14" cy="9.5" r="1" fill="#CE5D97" style="fill:#CE5D97;fill:color(display-p3 0.8078 0.3647 0.5922);fill-opacity:1;"/>
<circle cx="16" cy="7.5" r="1" fill="#879A39" style="fill:#879A39;fill:color(display-p3 0.5294 0.6039 0.2235);fill-opacity:1;"/>
<circle cx="16" cy="11.5" r="1" fill="#4385BE" style="fill:#4385BE;fill:color(display-p3 0.2627 0.5216 0.7451);fill-opacity:1;"/>
<circle cx="18" cy="9.5" r="1" fill="#DA702C" style="fill:#DA702C;fill:color(display-p3 0.8549 0.4392 0.1725);fill-opacity:1;"/>
</svg>
