<svg width="24" height="24" viewBox="0 0 24 24" fill="none" xmlns="http://www.w3.org/2000/svg">
<path d="M22.4597 16.4194L20.9259 8.53125C21.0501 9.23223 21.0191 9.95192 20.835 10.6396C20.6509 11.3273 20.3183 11.9663 19.8606 12.5115C19.4029 13.0567 18.8312 13.495 18.1857 13.7953C17.5403 14.0957 16.8369 14.2509 16.125 14.25H14.0709L18.0187 18.7313C18.4135 19.1258 18.9238 19.3843 19.4755 19.4692C20.0271 19.554 20.5915 19.4608 21.0866 19.2031C21.5817 18.9453 21.9817 18.5365 22.2286 18.0359C22.4756 17.5353 22.5565 16.9691 22.4597 16.4194Z" fill="#C5C1BB" style="fill:#C5C1BB;fill:color(display-p3 0.7725 0.7569 0.7333);fill-opacity:1;"/>
<path d="M8.24976 7.25C8.66397 7.25 8.99976 7.58579 8.99976 8V8.75H9.74976C10.164 8.75 10.4998 9.08579 10.4998 9.5C10.4998 9.91421 10.164 10.25 9.74976 10.25H8.99976V11C8.99976 11.4142 8.66397 11.75 8.24976 11.75C7.83563 11.7499 7.49976 11.4141 7.49976 11V10.25H6.74976C6.33563 10.2499 5.99976 9.91415 5.99976 9.5C5.99976 9.08585 6.33563 8.75011 6.74976 8.75H7.49976V8C7.49976 7.58585 7.83563 7.25011 8.24976 7.25Z" fill="#2B2B2B" style="fill:#2B2B2B;fill:color(display-p3 0.16863 0.16863 0.16863);fill-opacity:1;"/>
<path fill-rule="evenodd" clip-rule="evenodd" d="M16.1249 3.75C17.6165 3.75008 19.0476 4.34278 20.1024 5.39746C20.9169 6.21205 21.4539 7.25126 21.6571 8.36914C21.6585 8.37535 21.6607 8.38142 21.662 8.3877L23.1961 16.2764L23.1991 16.2891C23.3235 16.9958 23.2187 17.7246 22.9012 18.3682C22.5838 19.0114 22.0696 19.5369 21.4335 19.8682C20.7971 20.1994 20.0713 20.3189 19.3622 20.21C18.653 20.1009 17.9966 19.7689 17.4891 19.2617C17.4779 19.2505 17.4664 19.2384 17.4559 19.2266L13.7323 15H10.2684L6.54478 19.2266C6.53435 19.2384 6.52275 19.2506 6.51158 19.2617C6.0041 19.7689 5.34766 20.1008 4.63853 20.21C3.9294 20.319 3.20366 20.1994 2.56724 19.8682C1.931 19.5369 1.41693 19.0114 1.09947 18.3682C0.782004 17.7246 0.677149 16.9958 0.801617 16.2891L0.804547 16.2764L2.33775 8.3877C2.56869 7.09233 3.24684 5.91873 4.25377 5.07129C5.26435 4.22097 6.54242 3.75297 7.86314 3.75H16.1249ZM7.68541 5.25391C6.78171 5.29564 5.91438 5.63416 5.21959 6.21875C4.47854 6.8424 3.98098 7.7072 3.81334 8.66113L3.81041 8.6748L2.2772 16.5625C2.21159 16.951 2.26979 17.3505 2.4442 17.7041C2.62054 18.0615 2.90612 18.354 3.25962 18.5381C3.6132 18.7221 4.01703 18.7881 4.41099 18.7275C4.79968 18.6677 5.15903 18.4864 5.43931 18.2109L9.36705 13.7539L9.42271 13.6973C9.56029 13.5712 9.74104 13.5 9.92955 13.5H16.1249C17.2187 13.4999 18.2684 13.0654 19.0419 12.292C19.8153 11.5184 20.2499 10.4689 20.2499 9.375C20.2499 8.28106 19.8153 7.23158 19.0419 6.45801C18.2684 5.68463 17.2187 5.25008 16.1249 5.25H7.86705L7.68541 5.25391ZM20.9022 12.3398C20.6764 12.7037 20.4101 13.0448 20.1024 13.3525C19.0476 14.4072 17.6165 14.9999 16.1249 15H15.7313L18.5643 18.2148C18.8442 18.4885 19.2025 18.668 19.5897 18.7275C19.9835 18.7881 20.3866 18.722 20.7401 18.5381C21.0937 18.354 21.3802 18.0616 21.5565 17.7041C21.7308 17.3506 21.7891 16.951 21.7235 16.5625L20.9022 12.3398Z" fill="#2B2B2B" style="fill:#2B2B2B;fill:color(display-p3 0.16863 0.16863 0.16863);fill-opacity:1;"/>
<circle cx="13.75" cy="9.5" r="1" fill="#CE5D97" style="fill:#CE5D97;fill:color(display-p3 0.8078 0.3647 0.5922);fill-opacity:1;"/>
<circle cx="15.5" cy="7.75" r="1" fill="#768D21" style="fill:#768D21;fill:color(display-p3 0.4627 0.5529 0.1294);fill-opacity:1;"/>
<circle cx="15.5" cy="11.25" r="1" fill="#4385BE" style="fill:#4385BE;fill:color(display-p3 0.2627 0.5216 0.7451);fill-opacity:1;"/>
<circle cx="17.25" cy="9.5" r="1" fill="#DA702C" style="fill:#DA702C;fill:color(display-p3 0.8549 0.4392 0.1725);fill-opacity:1;"/>
</svg>
