<svg width="24" height="24" viewBox="0 0 24 24" fill="none" xmlns="http://www.w3.org/2000/svg">
<path d="M1.54106 16.4194L3.07481 8.53125C2.95063 9.23223 2.98167 9.95192 3.16573 10.6396C3.34979 11.3273 3.6824 11.9663 4.14013 12.5115C4.59785 13.0567 5.16957 13.495 5.81499 13.7953C6.46042 14.0957 7.16385 14.2509 7.87575 14.25H9.92981L5.982 18.7313C5.58723 19.1258 5.07696 19.3843 4.52528 19.4692C3.97361 19.554 3.40925 19.4608 2.91416 19.2031C2.41907 18.9453 2.01902 18.5365 1.7721 18.0359C1.52518 17.5353 1.44425 16.9691 1.54106 16.4194Z" fill="#333230" style="fill:#333230;fill:color(display-p3 0.2000 0.1961 0.1882);fill-opacity:1;"/>
<path fill-rule="evenodd" clip-rule="evenodd" d="M16.1373 3.875C17.4286 3.87801 18.6775 4.33557 19.6656 5.16699C20.6509 5.99615 21.3142 7.14446 21.5396 8.41211L23.0728 16.2998L23.0757 16.3105C23.1956 16.9911 23.0953 17.6928 22.7896 18.3125C22.4839 18.9322 21.9884 19.4387 21.3755 19.7578C20.7626 20.0769 20.0634 20.1919 19.3804 20.0869C18.6975 19.9819 18.0654 19.6613 17.5767 19.1729C17.5676 19.1637 17.5589 19.1542 17.5503 19.1445L13.7886 14.875H10.2115L6.45073 19.1445C6.44211 19.1543 6.43261 19.1636 6.42339 19.1729C5.93466 19.6613 5.30264 19.9818 4.61968 20.0869C3.93671 20.1919 3.23749 20.0769 2.62456 19.7578C2.01178 19.4388 1.51716 18.932 1.21148 18.3125C0.905769 17.6927 0.805485 16.9911 0.925343 16.3105L0.927296 16.2998L2.4605 8.41211C2.46133 8.40784 2.46251 8.40365 2.46343 8.39941C2.66094 7.30342 3.18757 6.28476 3.98589 5.48633C5.01733 4.45492 6.41688 3.875 7.87554 3.875H16.1373ZM2.15386 16.5391C2.08318 16.9543 2.14516 17.3818 2.33159 17.7598C2.51965 18.1409 2.82477 18.4521 3.20171 18.6484C3.57875 18.8447 4.00912 18.9161 4.42925 18.8516C4.84613 18.7874 5.23207 18.5924 5.53179 18.2959L8.54546 14.875H7.87554C6.41688 14.875 5.01733 14.2951 3.98589 13.2637C3.60645 12.8842 3.28833 12.4548 3.03765 11.9912L2.15386 16.5391ZM7.87554 5.125C6.7484 5.125 5.6667 5.57313 4.86968 6.37012C4.07281 7.16712 3.62554 8.24795 3.62554 9.375C3.62554 10.502 4.07281 11.5829 4.86968 12.3799C5.6667 13.1769 6.7484 13.625 7.87554 13.625H14.0709C14.2055 13.625 14.3354 13.6685 14.4419 13.7471L14.5396 13.8369L18.4693 18.2959C18.769 18.5922 19.1541 18.7875 19.5709 18.8516C19.991 18.9161 20.4213 18.8447 20.7984 18.6484C21.1753 18.4521 21.4804 18.1409 21.6685 17.7598C21.8549 17.3818 21.9169 16.9543 21.8462 16.5391L20.3121 8.65039L20.3101 8.63965C20.1374 7.65675 19.6245 6.76561 18.8609 6.12305C18.1451 5.52076 17.2519 5.17294 16.3209 5.12988L16.1343 5.125H7.87554Z" fill="#C3BBAC" style="fill:#C3BBAC;fill:color(display-p3 0.7648 0.7349 0.6752);fill-opacity:1;"/>
<path d="M8.24976 7.25C8.66397 7.25 8.99976 7.58579 8.99976 8V8.75H9.74976C10.164 8.75 10.4998 9.08579 10.4998 9.5C10.4998 9.91421 10.164 10.25 9.74976 10.25H8.99976V11C8.99976 11.4142 8.66397 11.75 8.24976 11.75C7.83563 11.7499 7.49976 11.4141 7.49976 11V10.25H6.74976C6.33563 10.2499 5.99976 9.91415 5.99976 9.5C5.99976 9.08585 6.33563 8.75011 6.74976 8.75H7.49976V8C7.49976 7.58585 7.83563 7.25011 8.24976 7.25Z" fill="#C3BBAC" style="fill:#C3BBAC;fill:color(display-p3 0.7648 0.7349 0.6752);fill-opacity:1;"/>
<circle cx="14" cy="9.5" r="1" fill="#CE5D97" style="fill:#CE5D97;fill:color(display-p3 0.8078 0.3647 0.5922);fill-opacity:1;"/>
<circle cx="16" cy="7.5" r="1" fill="#879A39" style="fill:#879A39;fill:color(display-p3 0.5294 0.6039 0.2235);fill-opacity:1;"/>
<circle cx="16" cy="11.5" r="1" fill="#4385BE" style="fill:#4385BE;fill:color(display-p3 0.2627 0.5216 0.7451);fill-opacity:1;"/>
<circle cx="18" cy="9.5" r="1" fill="#DA702C" style="fill:#DA702C;fill:color(display-p3 0.8549 0.4392 0.1725);fill-opacity:1;"/>
</svg>
