<svg xmlns="http://www.w3.org/2000/svg" width="24" height="24" fill="none" viewBox="0 0 24 24">
  <path fill="#cdd597" d="M7.5 7.5a2.25 2.25 0 1 0 0-4.5 2.25 2.25 0 0 0 0 4.5" style="fill:#CDD597;fill:color(display-p3 0.8039 0.8353 0.5922);fill-opacity:1"/>
  <path fill="#2b2b2b" fill-rule="evenodd" d="M7.5 2.25a2.997 2.997 0 0 1 1.353 5.675l3.352 3.908a.75.75 0 0 0 .464.254l3.954.565a3 3 0 1 1-.049 1.508l-4.118-.588a2.25 2.25 0 0 1-1.389-.762L8.25 9.525v6.323a2.998 2.998 0 0 1-.75 5.902 3 3 0 0 1-.75-5.902V8.15A2.998 2.998 0 0 1 7.5 2.25m0 15a1.5 1.5 0 1 0 0 3 1.5 1.5 0 0 0 0-3m12-5.25a1.5 1.5 0 1 0 0 3 1.5 1.5 0 0 0 0-3m-12-8.25a1.5 1.5 0 1 0 0 3 1.5 1.5 0 0 0 0-3" clip-rule="evenodd" style="fill:#2B2B2B;fill:color(display-p3 0.1700 0.1700 0.1700);fill-opacity:1"/>
</svg>
