<svg width="24" height="24" viewBox="0 0 24 24" fill="none" xmlns="http://www.w3.org/2000/svg">
<path d="M7.5 7.5C8.74264 7.5 9.75 6.49264 9.75 5.25C9.75 4.00736 8.74264 3 7.5 3C6.25736 3 5.25 4.00736 5.25 5.25C5.25 6.49264 6.25736 7.5 7.5 7.5Z" fill="#CED59E" style="fill:#CED59E;fill:color(display-p3 0.8078 0.8353 0.6196);fill-opacity:1;"/>
<path fill-rule="evenodd" clip-rule="evenodd" d="M7.5 2.25C9.15685 2.25 10.5 3.59315 10.5 5.25C10.5 6.41966 9.82912 7.43001 8.85254 7.9248L12.2051 11.833C12.3235 11.9711 12.4889 12.0612 12.6689 12.0869L16.623 12.6523C16.9889 11.4085 18.1377 10.5 19.5 10.5C21.1569 10.5 22.5 11.8431 22.5 13.5C22.5 15.1569 21.1569 16.5 19.5 16.5C18.0701 16.5 16.8751 15.4993 16.5742 14.1602L12.4561 13.5723C11.916 13.495 11.4227 13.2236 11.0674 12.8096L8.25 9.52539V15.8477C9.54353 16.181 10.5 17.3524 10.5 18.75C10.5 20.4069 9.15685 21.75 7.5 21.75C5.84315 21.75 4.5 20.4069 4.5 18.75C4.5 17.3524 5.45647 16.181 6.75 15.8477V8.15137C5.45658 7.81799 4.5 6.64752 4.5 5.25C4.5 3.59315 5.84315 2.25 7.5 2.25ZM7.5 17.25C6.67157 17.25 6 17.9216 6 18.75C6 19.5784 6.67157 20.25 7.5 20.25C8.32843 20.25 9 19.5784 9 18.75C9 17.9216 8.32843 17.25 7.5 17.25ZM19.5 12C18.6716 12 18 12.6716 18 13.5C18 14.3284 18.6716 15 19.5 15C20.3284 15 21 14.3284 21 13.5C21 12.6716 20.3284 12 19.5 12ZM7.5 3.75C6.67157 3.75 6 4.42157 6 5.25C6 6.07843 6.67157 6.75 7.5 6.75C8.32843 6.75 9 6.07843 9 5.25C9 4.42157 8.32843 3.75 7.5 3.75Z" fill="#2B2B2B" style="fill:#2B2B2B;fill:color(display-p3 0.16863 0.16863 0.16863);fill-opacity:1;"/>
</svg>
