<svg width="24" height="24" viewBox="0 0 24 24" fill="none" xmlns="http://www.w3.org/2000/svg">
<path d="M7.5 7.5C8.74264 7.5 9.75 6.49264 9.75 5.25C9.75 4.00736 8.74264 3 7.5 3C6.25736 3 5.25 4.00736 5.25 5.25C5.25 6.49264 6.25736 7.5 7.5 7.5Z" fill="#3D4C07" style="fill:#3D4C07;fill:color(display-p3 0.2392 0.2980 0.0275);fill-opacity:1;"/>
<path fill-rule="evenodd" clip-rule="evenodd" d="M7.5 2.375C9.08782 2.375 10.375 3.66218 10.375 5.25C10.375 6.42775 9.66611 7.43847 8.65234 7.88281L12.1104 11.915C12.2484 12.0759 12.4406 12.1808 12.6504 12.2109L16.7158 12.791C17.0318 11.5464 18.1571 10.625 19.5 10.625C21.0878 10.625 22.375 11.9122 22.375 13.5C22.375 15.0878 21.0878 16.375 19.5 16.375C18.1003 16.375 16.9354 15.3745 16.6787 14.0498L12.4736 13.4482C12.0276 13.3844 11.6148 13.1808 11.2939 12.8691L11.1621 12.7285L8.125 9.18848V15.9453C9.41206 16.2309 10.375 17.377 10.375 18.75C10.375 20.3378 9.08782 21.625 7.5 21.625C5.91218 21.625 4.625 20.3378 4.625 18.75C4.625 17.377 5.58794 16.2309 6.875 15.9453V8.05469C5.58794 7.76915 4.625 6.62301 4.625 5.25C4.625 3.66218 5.91218 2.375 7.5 2.375ZM7.5 17.125C6.60254 17.125 5.875 17.8525 5.875 18.75C5.875 19.6475 6.60254 20.375 7.5 20.375C8.39746 20.375 9.125 19.6475 9.125 18.75C9.125 17.8525 8.39746 17.125 7.5 17.125ZM19.5 11.875C18.6025 11.875 17.875 12.6025 17.875 13.5C17.875 14.3975 18.6025 15.125 19.5 15.125C20.3975 15.125 21.125 14.3975 21.125 13.5C21.125 12.6025 20.3975 11.875 19.5 11.875ZM7.5 3.625C6.60254 3.625 5.875 4.35254 5.875 5.25C5.875 6.14746 6.60254 6.875 7.5 6.875C8.39746 6.875 9.125 6.14746 9.125 5.25C9.125 4.35254 8.39746 3.625 7.5 3.625Z" fill="#C3BBAC" style="fill:#C3BBAC;fill:color(display-p3 0.7648 0.7349 0.6752);fill-opacity:1;"/>
</svg>
