<svg xmlns="http://www.w3.org/2000/svg" width="24" height="24" fill="none" viewBox="0 0 24 24">
  <circle cx="12" cy="16.375" r="2.625" fill="#333230" style="fill:#333230;fill:color(display-p3 .2 .1961 .1882);fill-opacity:1"/>
  <rect width="8" height="6" x="8" y="5.25" fill="#4d4a45" rx=".125" style="fill:#4d4a45;fill:color(display-p3 .302 .2902 .2706);fill-opacity:1"/>
  <path fill="#c3bbac" d="M18.125 4.75c0-.897-.727-1.625-1.625-1.625h-9c-.897 0-1.625.728-1.625 1.625v14.5c0 .898.728 1.625 1.625 1.625h9c.898 0 1.625-.727 1.625-1.625zm1.25 14.5a2.875 2.875 0 0 1-2.875 2.875h-9a2.875 2.875 0 0 1-2.875-2.875V4.75A2.875 2.875 0 0 1 7.5 1.875h9a2.875 2.875 0 0 1 2.875 2.875z" style="fill:#c3bbac;fill:color(display-p3 .7648 .7349 .6752);fill-opacity:1"/>
  <path fill="#c3bbac" d="M8.625 10.625h6.75v-4.75h-6.75zm8 .5a.75.75 0 0 1-.75.75h-7.75a.75.75 0 0 1-.75-.75v-5.75a.75.75 0 0 1 .75-.75h7.75a.75.75 0 0 1 .75.75zM14 16.375a2 2 0 1 0-4 0 2 2 0 0 0 4 0m1.25 0a3.25 3.25 0 1 1-6.5 0 3.25 3.25 0 0 1 6.5 0" style="fill:#c3bbac;fill:color(display-p3 .7648 .7349 .6752);fill-opacity:1"/>
</svg>
