<svg xmlns="http://www.w3.org/2000/svg" width="24" height="24" fill="none" viewBox="0 0 24 24">
  <path fill="#f7f5f2" fill-rule="evenodd" d="M16.5 2.5a2.25 2.25 0 0 1 2.25 2.25v14.5a2.25 2.25 0 0 1-2.25 2.25h-9a2.25 2.25 0 0 1-2.25-2.25V4.75A2.25 2.25 0 0 1 7.5 2.5zM12 13.75a2.5 2.5 0 1 0 0 5 2.5 2.5 0 0 0 0-5" clip-rule="evenodd" style="fill:#f7f5f2;fill:color(display-p3 .9686 .9608 .949);fill-opacity:1"/>
  <rect width="7.5" height="5.5" x="8.25" y="5.5" fill="#c5c1bb" rx=".125" style="fill:#c5c1bb;fill:color(display-p3 .7725 .7569 .7333);fill-opacity:1"/>
  <path fill="#2b2b2b" d="M18 4.75a1.5 1.5 0 0 0-1.5-1.5h-9A1.5 1.5 0 0 0 6 4.75v14.5a1.5 1.5 0 0 0 1.5 1.5h9a1.5 1.5 0 0 0 1.5-1.5zm1.5 14.5a3 3 0 0 1-3 3h-9a3 3 0 0 1-3-3V4.75a3 3 0 0 1 3-3h9a3 3 0 0 1 3 3z" style="fill:#2b2b2b;fill:color(display-p3 .17 .17 .17);fill-opacity:1"/>
  <path fill="#2b2b2b" d="M9 10.25h6v-4H9zm7.5.625a.875.875 0 0 1-.875.875h-7.25a.875.875 0 0 1-.875-.875v-5.25c0-.483.392-.875.875-.875h7.25c.483 0 .875.392.875.875zM13.75 16.25a1.75 1.75 0 1 0-3.5 0 1.75 1.75 0 0 0 3.5 0m1.5 0a3.25 3.25 0 1 1-6.5 0 3.25 3.25 0 0 1 6.5 0" style="fill:#2b2b2b;fill:color(display-p3 .17 .17 .17);fill-opacity:1"/>
</svg>
