<svg width="24" height="24" viewBox="0 0 24 24" fill="none" xmlns="http://www.w3.org/2000/svg">
<path d="M3 7.5L12 12.75L21 7.5L12 2.25L3 7.5Z" fill="#CECDC3" style="fill:#CECDC3;fill:color(display-p3 0.8078 0.8039 0.7647);fill-opacity:1;"/>
<path d="M3 16.5L11.4961 21.4561C11.8075 21.6377 12.1925 21.6377 12.5039 21.4561L21 16.5" stroke="#2B2B2B" style="stroke:#2B2B2B;stroke:color(display-p3 0.1700 0.1700 0.1700);stroke-opacity:1;" stroke-width="1.5" stroke-linecap="round" stroke-linejoin="round"/>
<path d="M3 12L11.4961 16.9561C11.8075 17.1377 12.1925 17.1377 12.5039 16.9561L21 12" stroke="#2B2B2B" style="stroke:#2B2B2B;stroke:color(display-p3 0.1700 0.1700 0.1700);stroke-opacity:1;" stroke-width="1.5" stroke-linecap="round" stroke-linejoin="round"/>
<path d="M4.48076 6.63622C3.81926 7.0221 3.81926 7.9779 4.48076 8.36378L11.4961 12.4561C11.8075 12.6377 12.1925 12.6377 12.5039 12.4561L19.5192 8.36378C20.1807 7.9779 20.1807 7.0221 19.5192 6.63622L12.5039 2.54392C12.1925 2.3623 11.8075 2.3623 11.4961 2.54392L4.48076 6.63622Z" stroke="#2B2B2B" style="stroke:#2B2B2B;stroke:color(display-p3 0.1700 0.1700 0.1700);stroke-opacity:1;" stroke-width="1.5" stroke-linecap="round" stroke-linejoin="round"/>
</svg>
