<svg xmlns="http://www.w3.org/2000/svg" width="24" height="24" fill="none" viewBox="0 0 24 24">
  <path fill="#163b66" d="M18 7.5a4.5 4.5 0 1 1-3 7.852c.92-.823 1.5-2.02 1.5-3.352 0-1.333-.58-2.53-1.5-3.354A4.48 4.48 0 0 1 18 7.5" style="fill:#163b66;fill:color(display-p3 .0863 .2314 .4);fill-opacity:1"/>
  <path fill="#3d4c07" d="M12 7.5c1.153 0 2.204.434 3 1.146A4.5 4.5 0 0 0 13.501 12c0 1.332.58 2.529 1.499 3.352a4.48 4.48 0 0 1-3 1.148 4.48 4.48 0 0 1-3-1.148c.92-.823 1.5-2.02 1.5-3.352 0-1.333-.58-2.53-1.5-3.354A4.48 4.48 0 0 1 12 7.5" style="fill:#3d4c07;fill:color(display-p3 .2392 .298 .0275);fill-opacity:1"/>
  <path fill="#71320d" d="M6 7.5c1.153 0 2.204.434 3 1.146-.92.824-1.5 2.021-1.5 3.354 0 1.332.58 2.529 1.5 3.352A4.5 4.5 0 1 1 6 7.5" style="fill:#71320d;fill:color(display-p3 .4431 .1961 .051);fill-opacity:1"/>
  <path fill="#c3bbac" fill-rule="evenodd" d="M18 6.75a5.25 5.25 0 1 1-3 9.558 5.23 5.23 0 0 1-3 .942 5.23 5.23 0 0 1-3-.942 5.25 5.25 0 1 1 0-8.616 5.23 5.23 0 0 1 3-.942c1.116 0 2.15.348 3 .941a5.23 5.23 0 0 1 3-.941M6 8.25a3.75 3.75 0 1 0 1.875 6.996A5.23 5.23 0 0 1 6.75 12c0-1.226.42-2.354 1.125-3.247A3.73 3.73 0 0 0 6 8.25m6 0c-.684 0-1.324.183-1.876.503A5.23 5.23 0 0 1 11.25 12a5.23 5.23 0 0 1-1.126 3.246c.552.32 1.192.504 1.876.504a3.73 3.73 0 0 0 1.875-.504A5.23 5.23 0 0 1 12.75 12c0-1.226.42-2.354 1.125-3.247A3.73 3.73 0 0 0 12 8.25m6 0c-.684 0-1.324.183-1.876.503A5.23 5.23 0 0 1 17.25 12a5.23 5.23 0 0 1-1.126 3.246A3.75 3.75 0 1 0 18 8.25M9 9.749A3.73 3.73 0 0 0 8.25 12c0 .844.28 1.623.75 2.25.47-.627.75-1.406.75-2.25S9.471 10.376 9 9.749m6 0A3.73 3.73 0 0 0 14.25 12c0 .844.28 1.623.75 2.25.47-.627.75-1.406.75-2.25s-.279-1.624-.75-2.251" clip-rule="evenodd" style="fill:#c3bbac;fill:color(display-p3 .7648 .7349 .6752);fill-opacity:1"/>
</svg>
