<svg width="24" height="24" viewBox="0 0 24 24" fill="none" xmlns="http://www.w3.org/2000/svg">
<path d="M7.37812 15.6563C6.48653 14.9598 5.76437 14.0703 5.26588 13.0546C4.76739 12.039 4.50554 10.9236 4.49999 9.79219C4.47749 5.72719 7.75499 2.34375 11.8191 2.25C13.3941 2.21185 14.9411 2.67066 16.2406 3.56132C17.5402 4.45198 18.5263 5.72927 19.059 7.21196C19.5916 8.69464 19.6439 10.3074 19.2083 11.8215C18.7727 13.3355 17.8714 14.674 16.6322 15.6469C16.3589 15.8588 16.1374 16.1302 15.9845 16.4404C15.8317 16.7507 15.7515 17.0917 15.75 17.4375V18C15.75 18.1989 15.671 18.3897 15.5303 18.5303C15.3897 18.671 15.1989 18.75 15 18.75H8.99999C8.80108 18.75 8.61032 18.671 8.46966 18.5303C8.32901 18.3897 8.24999 18.1989 8.24999 18V17.4375C8.24963 17.0939 8.17092 16.7548 8.01984 16.4462C7.86876 16.1375 7.64929 15.8673 7.37812 15.6563Z" fill="#EDD78A" style="fill:#EDD78A;fill:color(display-p3 0.9294 0.8431 0.5412);fill-opacity:1;"/>
<path d="M14.25 20.9995C14.6641 20.9995 14.9997 21.3355 15 21.7495C15 22.1638 14.6642 22.4995 14.25 22.4995H9.75C9.33579 22.4995 9 22.1638 9 21.7495C9.00025 21.3355 9.33594 20.9995 9.75 20.9995H14.25Z" fill="#2B2B2B" style="fill:#2B2B2B;fill:color(display-p3 0.16863 0.16863 0.16863);fill-opacity:1;"/>
<path fill-rule="evenodd" clip-rule="evenodd" d="M11.8008 1.50053C13.5332 1.45859 15.2356 1.96321 16.665 2.94291C18.0943 3.92259 19.1787 5.3278 19.7646 6.95853C20.3505 8.58934 20.4078 10.3635 19.9287 12.0288C19.4495 13.6941 18.4586 15.1667 17.0957 16.2369L17.0918 16.2398C16.9086 16.3819 16.7597 16.5641 16.6572 16.772C16.5548 16.98 16.501 17.2092 16.5 17.441V17.9995C16.5 18.3973 16.3417 18.7788 16.0605 19.0601C15.7793 19.3414 15.3978 19.4995 15 19.4995H9C8.60222 19.4995 8.22073 19.3414 7.93945 19.0601C7.6583 18.7788 7.5 18.3973 7.5 17.9995V17.438C7.49972 17.2086 7.44748 16.982 7.34668 16.7759C7.24576 16.5698 7.09906 16.3886 6.91797 16.2476L6.91699 16.2466C5.93622 15.4804 5.14118 14.5025 4.59277 13.3853C4.0444 12.2679 3.7561 11.0401 3.75 9.79545L3.75098 9.79447C3.72725 5.32299 7.3275 1.60432 11.8008 1.50053ZM11.8369 2.99955C8.18336 3.08383 5.22999 6.13052 5.25 9.78763C5.25503 10.8055 5.49098 11.8104 5.93945 12.7242C6.38778 13.6375 7.0372 14.4375 7.83887 15.064C8.19984 15.345 8.49216 15.7049 8.69336 16.1158C8.89447 16.5266 8.99942 16.9786 9 17.4361V17.9995H11.25V13.8101L8.46973 11.0298C8.17707 10.7369 8.17691 10.2621 8.46973 9.96928C8.76256 9.67669 9.23744 9.6767 9.53027 9.96928L12 12.439L14.4697 9.96928C14.7626 9.67669 15.2374 9.6767 15.5303 9.96928C15.8231 10.2621 15.8229 10.7369 15.5303 11.0298L12.75 13.8101V17.9995H15V17.4341C15.002 16.9746 15.1085 16.5212 15.3115 16.1089C15.5147 15.6967 15.8096 15.3359 16.1729 15.0542C17.2862 14.1789 18.0957 12.9749 18.4873 11.6138C18.8793 10.2513 18.8329 8.79967 18.3535 7.46537C17.8741 6.13102 16.986 4.98178 15.8164 4.18021C14.7199 3.42872 13.4278 3.01856 12.1025 2.99857L11.8369 2.99955Z" fill="#2B2B2B" style="fill:#2B2B2B;fill:color(display-p3 0.16863 0.16863 0.16863);fill-opacity:1;"/>
</svg>
