<svg width="24" height="24" viewBox="0 0 24 24" fill="none" xmlns="http://www.w3.org/2000/svg">
<path d="M7.37812 15.6563C6.48653 14.9598 5.76437 14.0703 5.26588 13.0546C4.76739 12.039 4.50554 10.9236 4.49999 9.79219C4.47749 5.72719 7.75499 2.34375 11.8191 2.25C13.3941 2.21185 14.9411 2.67066 16.2406 3.56132C17.5402 4.45198 18.5263 5.72927 19.059 7.21196C19.5916 8.69464 19.6439 10.3074 19.2083 11.8215C18.7727 13.3355 17.8714 14.674 16.6322 15.6469C16.3589 15.8588 16.1374 16.1302 15.9845 16.4404C15.8317 16.7507 15.7515 17.0917 15.75 17.4375V18C15.75 18.1989 15.671 18.3897 15.5303 18.5303C15.3897 18.671 15.1989 18.75 15 18.75H8.99999C8.80108 18.75 8.61032 18.671 8.46966 18.5303C8.32901 18.3897 8.24999 18.1989 8.24999 18V17.4375C8.24963 17.0939 8.17092 16.7548 8.01984 16.4462C7.86876 16.1375 7.64929 15.8673 7.37812 15.6563Z" fill="#664D01" style="fill:#664D01;fill:color(display-p3 0.4000 0.3020 0.0039);fill-opacity:1;"/>
<path d="M14.4999 21.1246C14.8449 21.1246 15.1246 21.4046 15.1249 21.7496C15.1249 22.0948 14.8451 22.3746 14.4999 22.3746H9.49988C9.15476 22.3745 8.87488 22.0947 8.87488 21.7496C8.87511 21.4046 9.1549 21.1246 9.49988 21.1246H14.4999Z" fill="#C3BBAC" style="fill:#C3BBAC;fill:color(display-p3 0.7648 0.7349 0.6752);fill-opacity:1;"/>
<path fill-rule="evenodd" clip-rule="evenodd" d="M11.8036 1.62555C13.5097 1.58423 15.1859 2.08077 16.5936 3.04548C18.0014 4.01033 19.0702 5.39438 19.6473 7.00055C20.2243 8.60662 20.2802 10.3537 19.8085 11.9937C19.3366 13.6338 18.3607 15.0843 17.0184 16.1382L17.0155 16.1402C16.8172 16.294 16.6557 16.4913 16.5448 16.7164C16.4339 16.9414 16.376 17.1891 16.3749 17.44V17.9996C16.3749 18.3642 16.2303 18.7144 15.9725 18.9722C15.7147 19.2301 15.3646 19.3746 14.9999 19.3746H8.99988C8.6354 19.3745 8.28601 19.2299 8.0282 18.9722C7.7704 18.7144 7.62488 18.3642 7.62488 17.9996V17.4381L7.61414 17.2525C7.59288 17.0682 7.54083 16.8877 7.45886 16.7203C7.34956 16.4971 7.1901 16.3016 6.99402 16.149C6.02806 15.3944 5.24503 14.43 4.70496 13.3297C4.16499 12.2294 3.88095 11.0211 3.87488 9.79548C3.8506 5.39117 7.39812 1.72776 11.8036 1.62555ZM11.8339 2.87458C8.11184 2.96044 5.10436 6.06347 5.12488 9.78864L5.13758 10.1773C5.19319 11.0802 5.42739 11.9645 5.82703 12.7789C6.28366 13.7092 6.94504 14.5245 7.7616 15.1627C8.10771 15.4321 8.38808 15.7775 8.58093 16.1715C8.77373 16.5654 8.87439 16.9985 8.87488 17.4371V17.9996C8.87488 18.0327 8.88861 18.065 8.91199 18.0884C8.93537 18.1117 8.96691 18.1245 8.99988 18.1246H11.3749V13.7593L8.5575 10.942C8.31368 10.6979 8.31351 10.3012 8.5575 10.0572C8.8015 9.81339 9.19822 9.81344 9.44226 10.0572L11.9999 12.6148L14.5575 10.0572C14.8015 9.81339 15.1982 9.81344 15.4423 10.0572C15.6863 10.3012 15.6862 10.6979 15.4423 10.942L12.6249 13.7593V18.1246H14.9999C15.033 18.1246 15.0653 18.1119 15.0887 18.0884C15.1121 18.065 15.1249 18.0327 15.1249 17.9996V17.4351C15.1268 16.9945 15.229 16.5589 15.4237 16.1636C15.6179 15.7696 15.8992 15.4245 16.246 15.1549C17.3818 14.263 18.208 13.0359 18.6073 11.648C19.0064 10.2604 18.9587 8.7823 18.4706 7.42341C17.9823 6.06442 17.0787 4.89313 15.8876 4.07673C14.7707 3.31132 13.4542 2.89395 12.1044 2.8736L11.8339 2.87458Z" fill="#C3BBAC" style="fill:#C3BBAC;fill:color(display-p3 0.7648 0.7349 0.6752);fill-opacity:1;"/>
</svg>
