<svg xmlns="http://www.w3.org/2000/svg" width="24" height="24" fill="none" viewBox="0 0 24 24">
  <path fill="#f1d67e" d="M7.378 15.656A7.49 7.49 0 0 1 4.5 9.792c-.023-4.065 3.255-7.448 7.32-7.542a7.5 7.5 0 0 1 4.812 13.397 2.28 2.28 0 0 0-.882 1.79V18a.75.75 0 0 1-.75.75H9a.75.75 0 0 1-.75-.75v-.562a2.26 2.26 0 0 0-.872-1.782" style="fill:#F1D67E;fill:color(display-p3 0.9451 0.8392 0.4941);fill-opacity:1"/>
  <path fill="#2b2b2b" d="M14.25 21a.75.75 0 0 1 0 1.5h-4.5a.75.75 0 0 1 0-1.5z" style="fill:#2B2B2B;fill:color(display-p3 0.1700 0.1700 0.1700);fill-opacity:1"/>
  <path fill="#2b2b2b" fill-rule="evenodd" d="M11.8 1.5a8.25 8.25 0 0 1 7.965 5.458 8.25 8.25 0 0 1-2.67 9.279l-.003.003a1.53 1.53 0 0 0-.592 1.2V18a1.5 1.5 0 0 1-1.5 1.5H9A1.5 1.5 0 0 1 7.5 18v-.562a1.51 1.51 0 0 0-.582-1.19l-.001-.001A8.24 8.24 0 0 1 3.75 9.795h.001c-.024-4.472 3.577-8.19 8.05-8.295m.037 1.5C8.183 3.083 5.23 6.13 5.25 9.787a6.74 6.74 0 0 0 2.589 5.276A3.01 3.01 0 0 1 9 17.436V18h2.25v-4.19l-2.78-2.78a.75.75 0 0 1 1.06-1.06L12 12.438l2.47-2.47a.75.75 0 0 1 1.06 1.06l-2.78 2.781V18H15v-.566a3.03 3.03 0 0 1 1.173-2.38A6.75 6.75 0 0 0 12.103 3z" clip-rule="evenodd" style="fill:#2B2B2B;fill:color(display-p3 0.1700 0.1700 0.1700);fill-opacity:1"/>
</svg>
