<svg width="24" height="24" viewBox="0 0 24 24" fill="none" xmlns="http://www.w3.org/2000/svg">
<path d="M19.1512 10.1513C19.8343 9.44399 20.2123 8.49673 20.2037 7.5135C20.1952 6.53026 19.8008 5.58971 19.1055 4.89443C18.4102 4.19915 17.4697 3.80477 16.4864 3.79622C15.5032 3.78768 14.5559 4.16566 13.8487 4.84875L4.84869 13.8488C4.1656 14.556 3.78762 15.5033 3.79616 16.4865C3.80471 17.4697 4.19909 18.4103 4.89437 19.1056C5.58965 19.8008 6.5302 20.1952 7.51343 20.2038C8.49667 20.2123 9.44393 19.8343 10.1512 19.1512L19.1512 10.1513Z" fill="#632620" style="fill:#632620;fill:color(display-p3 0.3882 0.1490 0.1255);fill-opacity:1;"/>
<path d="M16.4922 3.17106C17.6392 3.1811 18.7367 3.64121 19.5478 4.45231C20.3589 5.26345 20.8191 6.36093 20.8291 7.50798C20.8391 8.65507 20.3975 9.76 19.6006 10.5851C19.5947 10.5912 19.5891 10.5978 19.583 10.6037L18.4316 11.7023C18.182 11.9406 17.7862 11.9313 17.5478 11.6818C17.3096 11.4322 17.3188 11.0363 17.5683 10.798L18.706 9.71208C19.2724 9.12321 19.5862 8.33589 19.5791 7.51872C19.5719 6.69947 19.2433 5.91545 18.664 5.3361C18.0847 4.75679 17.3007 4.42828 16.4814 4.42106C15.6645 4.41396 14.8769 4.72708 14.2881 5.29313L13.2021 6.43181C12.9638 6.68135 12.568 6.69055 12.3183 6.45231C12.0686 6.21401 12.0596 5.81823 12.2978 5.56852L13.3965 4.41716C13.4023 4.41102 13.4089 4.40547 13.415 4.39958C14.2402 3.60267 15.3451 3.1611 16.4922 3.17106Z" fill="#C3BBAC" style="fill:#C3BBAC;fill:color(display-p3 0.7648 0.7349 0.6752);fill-opacity:1;"/>
<path d="M5.56852 12.2978C5.81823 12.0596 6.21401 12.0686 6.45231 12.3183C6.69055 12.568 6.68135 12.9638 6.43181 13.2021L5.29313 14.2881C4.72708 14.8769 4.41396 15.6645 4.42106 16.4814C4.42828 17.3007 4.75679 18.0847 5.3361 18.664C5.91545 19.2433 6.69947 19.5719 7.51872 19.5791C8.33589 19.5862 9.12321 19.2724 9.71208 18.706L10.798 17.5683C11.0363 17.3188 11.4322 17.3096 11.6818 17.5478C11.9313 17.7862 11.9406 18.182 11.7023 18.4316L10.6037 19.583C10.5978 19.5891 10.5912 19.5947 10.5851 19.6006C9.76 20.3975 8.65507 20.8391 7.50798 20.8291C6.36093 20.8191 5.26345 20.3589 4.45231 19.5478C3.64121 18.7367 3.1811 17.6392 3.17106 16.4922C3.1611 15.3451 3.60267 14.2402 4.39958 13.415L4.41716 13.3965L5.56852 12.2978Z" fill="#C3BBAC" style="fill:#C3BBAC;fill:color(display-p3 0.7648 0.7349 0.6752);fill-opacity:1;"/>
<path d="M20.25 14.375C20.5952 14.375 20.875 14.6548 20.875 15C20.875 15.3452 20.5952 15.625 20.25 15.625H18C17.6548 15.625 17.375 15.3452 17.375 15C17.375 14.6548 17.6548 14.375 18 14.375H20.25Z" fill="#8F8570" style="fill:#8F8570;fill:color(display-p3 0.5600 0.5220 0.4400);fill-opacity:1;"/>
<path d="M6 8.375C6.34518 8.375 6.625 8.65482 6.625 9C6.625 9.34518 6.34518 9.625 6 9.625H3.75C3.40482 9.625 3.125 9.34518 3.125 9C3.125 8.65482 3.40482 8.375 3.75 8.375H6Z" fill="#8F8570" style="fill:#8F8570;fill:color(display-p3 0.5600 0.5220 0.4400);fill-opacity:1;"/>
<path d="M14.375 20.25V18C14.375 17.6548 14.6548 17.375 15 17.375C15.3452 17.375 15.625 17.6548 15.625 18V20.25C15.625 20.5952 15.3452 20.875 15 20.875C14.6548 20.875 14.375 20.5952 14.375 20.25Z" fill="#8F8570" style="fill:#8F8570;fill:color(display-p3 0.5600 0.5220 0.4400);fill-opacity:1;"/>
<path d="M8.375 6V3.75C8.375 3.40482 8.65482 3.125 9 3.125C9.34518 3.125 9.625 3.40482 9.625 3.75V6C9.625 6.34518 9.34518 6.625 9 6.625C8.65482 6.625 8.375 6.34518 8.375 6Z" fill="#8F8570" style="fill:#8F8570;fill:color(display-p3 0.5600 0.5220 0.4400);fill-opacity:1;"/>
</svg>
