<svg width="24" height="24" viewBox="0 0 24 24" fill="none" xmlns="http://www.w3.org/2000/svg">
<path d="M19.1512 10.1513C19.8343 9.44399 20.2123 8.49673 20.2037 7.5135C20.1952 6.53026 19.8008 5.58971 19.1055 4.89443C18.4102 4.19915 17.4697 3.80477 16.4864 3.79622C15.5032 3.78768 14.5559 4.16566 13.8487 4.84875L4.84869 13.8488C4.1656 14.556 3.78762 15.5033 3.79616 16.4865C3.80471 17.4697 4.19909 18.4103 4.89437 19.1056C5.58965 19.8008 6.5302 20.1952 7.51343 20.2038C8.49667 20.2123 9.44393 19.8343 10.1512 19.1512L19.1512 10.1513Z" fill="#F2B5A5" style="fill:#F2B5A5;fill:color(display-p3 0.9490 0.7098 0.6471);fill-opacity:1;"/>
<path d="M16.4932 3.04607C17.673 3.05636 18.8014 3.53012 19.6357 4.36443C20.47 5.19876 20.9438 6.32716 20.9541 7.50701C20.9643 8.68688 20.5101 9.82334 19.6904 10.672C19.6834 10.6793 19.6763 10.6865 19.6689 10.6935L18.5176 11.7922C18.2179 12.0781 17.743 12.0674 17.457 11.7677C17.1713 11.4681 17.1828 10.9931 17.4824 10.7072L18.6113 9.62908C19.1576 9.06331 19.4609 8.30613 19.4541 7.5197C19.4472 6.73326 19.1313 5.98112 18.5752 5.42497C18.0191 4.86886 17.2669 4.55303 16.4805 4.54607C15.6968 4.53926 14.9411 4.83937 14.376 5.38201L13.293 6.51775C13.007 6.81739 12.5321 6.82814 12.2324 6.54216C11.933 6.25631 11.9215 5.78224 12.207 5.48259L13.3066 4.33122L13.3281 4.30974C14.1768 3.49003 15.3133 3.03582 16.4932 3.04607Z" fill="#2B2B2B" style="fill:#2B2B2B;fill:color(display-p3 0.16863 0.16863 0.16863);fill-opacity:1;"/>
<path d="M5.48259 12.207C5.78224 11.9215 6.25631 11.933 6.54216 12.2324C6.82814 12.5321 6.81739 13.007 6.51775 13.293L5.38201 14.376C4.83937 14.9411 4.53926 15.6968 4.54607 16.4805C4.55303 17.2669 4.86886 18.0191 5.42497 18.5752C5.98112 19.1313 6.73326 19.4472 7.5197 19.4541C8.30629 19.4609 9.06425 19.1578 9.63005 18.6113L10.7072 17.4824C10.9931 17.1828 11.4681 17.1713 11.7677 17.457C12.0674 17.743 12.0781 18.2179 11.7922 18.5176L10.6935 19.6689C10.6865 19.6763 10.6793 19.6834 10.672 19.6904C9.82334 20.5101 8.68688 20.9643 7.50701 20.9541C6.32716 20.9438 5.19876 20.47 4.36443 19.6357C3.53012 18.8014 3.05636 17.673 3.04607 16.4932C3.03582 15.3133 3.49003 14.1768 4.30974 13.3281L4.33122 13.3066L5.48259 12.207Z" fill="#2B2B2B" style="fill:#2B2B2B;fill:color(display-p3 0.16863 0.16863 0.16863);fill-opacity:1;"/>
<path d="M20.25 14.25C20.6642 14.25 21 14.5858 21 15C21 15.4142 20.6642 15.75 20.25 15.75H18C17.5858 15.75 17.25 15.4142 17.25 15C17.25 14.5858 17.5858 14.25 18 14.25H20.25Z" fill="#2B2B2B" style="fill:#2B2B2B;fill:color(display-p3 0.16863 0.16863 0.16863);fill-opacity:1;"/>
<path d="M6 8.25C6.41421 8.25 6.75 8.58579 6.75 9C6.75 9.41421 6.41421 9.75 6 9.75H3.75C3.33579 9.75 3 9.41421 3 9C3 8.58579 3.33579 8.25 3.75 8.25H6Z" fill="#2B2B2B" style="fill:#2B2B2B;fill:color(display-p3 0.16863 0.16863 0.16863);fill-opacity:1;"/>
<path d="M14.25 20.25V18C14.25 17.5858 14.5858 17.25 15 17.25C15.4142 17.25 15.75 17.5858 15.75 18V20.25C15.75 20.6642 15.4142 21 15 21C14.5858 21 14.25 20.6642 14.25 20.25Z" fill="#2B2B2B" style="fill:#2B2B2B;fill:color(display-p3 0.16863 0.16863 0.16863);fill-opacity:1;"/>
<path d="M8.25 6V3.75C8.25 3.33579 8.58579 3 9 3C9.41421 3 9.75 3.33579 9.75 3.75V6C9.75 6.41421 9.41421 6.75 9 6.75C8.58579 6.75 8.25 6.41421 8.25 6Z" fill="#2B2B2B" style="fill:#2B2B2B;fill:color(display-p3 0.16863 0.16863 0.16863);fill-opacity:1;"/>
</svg>
