<svg xmlns="http://www.w3.org/2000/svg" width="24" height="24" fill="none" viewBox="0 0 24 24">
  <path fill="#fdb2a2" d="M19.151 10.151A3.75 3.75 0 0 0 13.85 4.85l-9 9a3.75 3.75 0 0 0 5.302 5.302z" style="fill:#fdb2a2;fill:color(display-p3 .9922 .698 .6353);fill-opacity:1"/>
  <path fill="#2b2b2b" d="M16.493 3.046a4.5 4.5 0 0 1 3.176 7.648l-1.151 1.098a.75.75 0 1 1-1.036-1.085l1.13-1.078a3 3 0 0 0-4.236-4.247l-1.083 1.136a.75.75 0 0 1-1.086-1.035l1.1-1.152.021-.021a4.5 4.5 0 0 1 3.165-1.264M5.483 12.207a.75.75 0 0 1 1.035 1.086l-1.136 1.083a3.001 3.001 0 0 0 2.138 5.078 3 3 0 0 0 2.11-.843l1.077-1.129a.75.75 0 0 1 1.085 1.036l-1.098 1.15-.022.022a4.5 4.5 0 0 1-6.362-6.362l.021-.021z" style="fill:#2b2b2b;fill:color(display-p3 .17 .17 .17);fill-opacity:1"/>
  <path fill="#928177" d="M20.25 14.25a.75.75 0 0 1 0 1.5H18a.75.75 0 0 1 0-1.5zM6 8.25a.75.75 0 0 1 0 1.5H3.75a.75.75 0 0 1 0-1.5zM14.25 20.25V18a.75.75 0 0 1 1.5 0v2.25a.75.75 0 0 1-1.5 0M8.25 6V3.75a.75.75 0 0 1 1.5 0V6a.75.75 0 0 1-1.5 0" style="fill:#928177;fill:color(display-p3 .5728 .5042 .4672);fill-opacity:1"/>
</svg>
