<svg xmlns="http://www.w3.org/2000/svg" width="24" height="24" fill="none" viewBox="0 0 24 24">
  <path fill="#3c2a62" d="M3.75 6.75a3 3 0 0 1 3-3h10.5a3 3 0 0 1 3 3v6.75a3 3 0 0 1-3 3H3.75z" style="fill:#3c2a62;fill:color(display-p3 .2353 .1647 .3843);fill-opacity:1"/>
  <path fill="#c3bbac" d="M14.25 6.75a3 3 0 0 1 3 3v3a.75.75 0 0 1-1.5 0v-3a1.5 1.5 0 0 0-3 0v3a.75.75 0 0 1-1.5 0v-3a1.5 1.5 0 0 0-3 0v3a.75.75 0 0 1-1.5 0v-3a3 3 0 0 1 5.121-2.121q.067.069.129.142.062-.073.129-.142a3 3 0 0 1 2.121-.879" style="fill:#c3bbac;fill:color(display-p3 .7648 .7349 .6752);fill-opacity:1"/>
  <path fill="#c3bbac" fill-rule="evenodd" d="M17.25 3A3.75 3.75 0 0 1 21 6.75v6.75a3.75 3.75 0 0 1-3.75 3.75H4.5V18a2.25 2.25 0 0 0 2.25 2.25H15a.75.75 0 0 1 0 1.5H6.75A3.75 3.75 0 0 1 3 18V6.75A3.75 3.75 0 0 1 6.75 3zM6.75 4.5A2.25 2.25 0 0 0 4.5 6.75v9h12.75a2.25 2.25 0 0 0 2.25-2.25V6.75a2.25 2.25 0 0 0-2.25-2.25z" clip-rule="evenodd" style="fill:#c3bbac;fill:color(display-p3 .7648 .7349 .6752);fill-opacity:1"/>
</svg>
