<svg width="24" height="24" viewBox="0 0 24 24" fill="none" xmlns="http://www.w3.org/2000/svg">
<path d="M7.5 20.25H4.5C4.30109 20.25 4.11032 20.171 3.96967 20.0303C3.82902 19.8897 3.75 19.6989 3.75 19.5V4.5C3.75 4.30109 3.82902 4.11032 3.96967 3.96967C4.11032 3.82902 4.30109 3.75 4.5 3.75H7.5V20.25Z" fill="#FCC192" style="fill:#FCC192;fill:color(display-p3 0.9882 0.7569 0.5725);fill-opacity:1;"/>
<path d="M16.5 12.75C16.9142 12.75 17.25 13.0858 17.25 13.5C17.25 13.9142 16.9142 14.25 16.5 14.25H10.5C10.0858 14.25 9.75 13.9142 9.75 13.5C9.75 13.0858 10.0858 12.75 10.5 12.75H16.5Z" fill="#2B2B2B" style="fill:#2B2B2B;fill:color(display-p3 0.16863 0.16863 0.16863);fill-opacity:1;"/>
<path d="M16.5 9.75C16.9142 9.75 17.25 10.0858 17.25 10.5C17.25 10.9142 16.9142 11.25 16.5 11.25H10.5C10.0858 11.25 9.75 10.9142 9.75 10.5C9.75 10.0858 10.0858 9.75 10.5 9.75H16.5Z" fill="#2B2B2B" style="fill:#2B2B2B;fill:color(display-p3 0.16863 0.16863 0.16863);fill-opacity:1;"/>
<path fill-rule="evenodd" clip-rule="evenodd" d="M19.5 3C20.3284 3 21 3.67157 21 4.5V19.5C21 20.3284 20.3284 21 19.5 21H4.5C3.67157 21 3 20.3284 3 19.5V4.5C3 3.67157 3.67157 3 4.5 3H19.5ZM8.25 19.5H19.5V4.5H8.25V19.5ZM4.5 19.5H6.75V4.5H4.5V19.5Z" fill="#2B2B2B" style="fill:#2B2B2B;fill:color(display-p3 0.16863 0.16863 0.16863);fill-opacity:1;"/>
</svg>
