<svg width="24" height="24" viewBox="0 0 24 24" fill="none" xmlns="http://www.w3.org/2000/svg">
<path d="M7.5 20.25H4.5C4.30109 20.25 4.11032 20.171 3.96967 20.0303C3.82902 19.8897 3.75 19.6989 3.75 19.5V4.5C3.75 4.30109 3.82902 4.11032 3.96967 3.96967C4.11032 3.82902 4.30109 3.75 4.5 3.75H7.5V20.25Z" fill="#693617" style="fill:#693617;fill:color(display-p3 0.4118 0.2118 0.0902);fill-opacity:1;"/>
<path d="M16.5 12.875C16.8452 12.875 17.125 13.1548 17.125 13.5C17.125 13.8452 16.8452 14.125 16.5 14.125H10.5C10.1548 14.125 9.875 13.8452 9.875 13.5C9.875 13.1548 10.1548 12.875 10.5 12.875H16.5Z" fill="#C3BBAC" style="fill:#C3BBAC;fill:color(display-p3 0.7648 0.7349 0.6752);fill-opacity:1;"/>
<path d="M16.5 9.875C16.8452 9.875 17.125 10.1548 17.125 10.5C17.125 10.8452 16.8452 11.125 16.5 11.125H10.5C10.1548 11.125 9.875 10.8452 9.875 10.5C9.875 10.1548 10.1548 9.875 10.5 9.875H16.5Z" fill="#C3BBAC" style="fill:#C3BBAC;fill:color(display-p3 0.7648 0.7349 0.6752);fill-opacity:1;"/>
<path fill-rule="evenodd" clip-rule="evenodd" d="M19.5 3.125C20.2594 3.125 20.875 3.74061 20.875 4.5V19.5C20.875 20.2594 20.2594 20.875 19.5 20.875H4.5C3.74061 20.875 3.125 20.2594 3.125 19.5V4.5C3.125 3.74061 3.74061 3.125 4.5 3.125H19.5ZM8.125 19.625H19.5C19.569 19.625 19.625 19.569 19.625 19.5V4.5C19.625 4.43096 19.569 4.375 19.5 4.375H8.125V19.625ZM4.5 4.375C4.43096 4.375 4.375 4.43096 4.375 4.5V19.5C4.375 19.569 4.43096 19.625 4.5 19.625H6.875V4.375H4.5Z" fill="#C3BBAC" style="fill:#C3BBAC;fill:color(display-p3 0.7648 0.7349 0.6752);fill-opacity:1;"/>
</svg>
