<svg width="24" height="24" viewBox="0 0 24 24" fill="none" xmlns="http://www.w3.org/2000/svg">
<path d="M19.4994 12L17.4013 6.405C17.3551 6.28187 17.2773 6.17306 17.1758 6.08947C17.0743 6.00588 16.9525 5.95045 16.8228 5.92875L3.74939 3.75L5.92814 16.8234C5.94984 16.9531 6.00526 17.0749 6.08885 17.1764C6.17244 17.2779 6.28126 17.3557 6.40439 17.4019L11.9994 19.5L19.4994 12ZM9.74939 11.625C9.74939 11.2542 9.85936 10.8916 10.0654 10.5833C10.2714 10.275 10.5642 10.0346 10.9069 9.89273C11.2495 9.75081 11.6265 9.71368 11.9902 9.78603C12.3539 9.85837 12.688 10.037 12.9502 10.2992C13.2124 10.5614 13.391 10.8955 13.4634 11.2592C13.5357 11.6229 13.4986 11.9999 13.3567 12.3425C13.2147 12.6851 12.9744 12.978 12.6661 13.184C12.3577 13.39 11.9952 13.5 11.6244 13.5C11.1271 13.5 10.6502 13.3025 10.2986 12.9508C9.94693 12.5992 9.74939 12.1223 9.74939 11.625Z" fill="#CECDC3" style="fill:#CECDC3;fill:color(display-p3 0.8078 0.8039 0.7647);fill-opacity:1;"/>
<path fill-rule="evenodd" clip-rule="evenodd" d="M23.2494 15.3136C23.2494 15.7112 23.091 16.0928 22.8099 16.3741L16.3705 22.8116C16.0892 23.0926 15.7075 23.2501 15.3099 23.2501C14.9124 23.25 14.5306 23.0926 14.2494 22.8116L11.5843 20.1446L6.14099 18.1046C5.89485 18.0122 5.67729 17.8563 5.51013 17.6534C5.34299 17.4504 5.23226 17.2067 5.18884 16.9474L5.18787 16.9464L3.00916 3.87314C3.00272 3.83441 3.00069 3.79557 3.00037 3.75693C3.00033 3.75171 3.0003 3.74652 3.00037 3.74131C3.0015 3.65083 3.01859 3.56208 3.05115 3.47861C3.05332 3.47303 3.05567 3.46754 3.05798 3.46201C3.07488 3.42157 3.09563 3.38293 3.11951 3.3458C3.12838 3.33204 3.13699 3.31806 3.14685 3.30478C3.1525 3.29714 3.15847 3.28976 3.16443 3.28232C3.1735 3.27103 3.18293 3.25999 3.19275 3.24912C3.2015 3.23941 3.20982 3.22912 3.21912 3.21982C3.2296 3.20934 3.24132 3.2003 3.25232 3.19052C3.26185 3.18206 3.27079 3.17302 3.28064 3.16513C3.29252 3.15561 3.30537 3.14751 3.31775 3.13877C3.32538 3.13338 3.33243 3.12723 3.34021 3.12216C3.37951 3.09653 3.42119 3.07548 3.46423 3.05771C3.46748 3.05638 3.47074 3.05509 3.474 3.05381C3.59893 3.00428 3.73621 2.98722 3.87244 3.00986L16.9467 5.18955C17.206 5.23297 17.4497 5.3437 17.6527 5.51084C17.8556 5.67797 18.0115 5.89557 18.1039 6.1417L20.1449 11.5841L22.8109 14.253C23.0919 14.5343 23.2493 14.916 23.2494 15.3136ZM16.6996 6.66806L5.93396 4.87314L10.3763 9.31552C10.7476 9.11451 11.1726 9.00009 11.6244 9.00009C13.0741 9.00009 14.2493 10.1754 14.2494 11.6251C14.2494 13.0748 13.0741 14.2501 11.6244 14.2501C10.1746 14.2501 8.99939 13.0748 8.99939 11.6251C8.99941 11.1728 9.11437 10.7476 9.3158 10.3761L4.87537 5.93564L6.66833 16.6993L11.8109 18.628L18.6283 11.8106L16.6996 6.66806ZM12.7494 11.6251C12.7493 11.0038 12.2457 10.5001 11.6244 10.5001C11.3165 10.5001 11.0375 10.6239 10.8344 10.8243C10.8326 10.8261 10.8313 10.8284 10.8295 10.8302C10.8279 10.8317 10.8261 10.8335 10.8246 10.8351C10.6239 11.0382 10.4994 11.3169 10.4994 11.6251C10.4994 12.2464 11.0031 12.7501 11.6244 12.7501C12.2457 12.7501 12.7494 12.2464 12.7494 11.6251ZM19.4994 13.0606L13.0599 19.5001L15.3099 21.7501L21.7494 15.3136L19.4994 13.0606Z" fill="#2B2B2B" style="fill:#2B2B2B;fill:color(display-p3 0.1700 0.1700 0.1700);fill-opacity:1;"/>
</svg>
