<svg xmlns="http://www.w3.org/2000/svg" width="24" height="24" fill="none" viewBox="0 0 24 24">
  <path fill="#71320d" d="M5.25 18.75v-15a15 15 0 0 1 15 15z" style="fill:#71320d;fill:color(display-p3 .4431 .1961 .051);fill-opacity:1"/>
  <path fill="#c3bbac" d="M10.5 18.75a5.25 5.25 0 0 0-5.25-5.25.75.75 0 0 1 0-1.5A6.75 6.75 0 0 1 12 18.75a.75.75 0 0 1-1.5 0" style="fill:#c3bbac;fill:color(display-p3 .7648 .7349 .6752);fill-opacity:1"/>
  <path fill="#c3bbac" d="M15 18.75A9.75 9.75 0 0 0 5.25 9a.75.75 0 0 1 0-1.5A11.25 11.25 0 0 1 16.5 18.75a.75.75 0 0 1-1.5 0" style="fill:#c3bbac;fill:color(display-p3 .7648 .7349 .6752);fill-opacity:1"/>
  <path fill="#c3bbac" d="M19.5 18.75A14.25 14.25 0 0 0 5.25 4.5a.75.75 0 0 1 0-1.5A15.75 15.75 0 0 1 21 18.75a.75.75 0 0 1-1.5 0M5.625 17.25a1.125 1.125 0 1 1 0 2.25 1.125 1.125 0 0 1 0-2.25" style="fill:#c3bbac;fill:color(display-p3 .7648 .7349 .6752);fill-opacity:1"/>
</svg>
