<svg width="24" height="24" viewBox="0 0 24 24" fill="none" xmlns="http://www.w3.org/2000/svg">
<path d="M3.75 3.75C4.34674 3.75 4.91903 3.98705 5.34099 4.40901C5.76295 4.83097 6 5.40326 6 6V18C6 18.5967 6.23705 19.169 6.65901 19.591C7.08097 20.0129 7.65326 20.25 8.25 20.25C8.84674 20.25 9.41903 20.0129 9.84099 19.591C10.2629 19.169 10.5 18.5967 10.5 18C10.5 17.0625 9.75 16.5 9.75 16.5H18.75V6C18.75 5.40326 18.5129 4.83097 18.091 4.40901C17.669 3.98705 17.0967 3.75 16.5 3.75H3.75Z" fill="#C8BEB5" style="fill:#C8BEB5;fill:color(display-p3 0.7843 0.7451 0.7098);fill-opacity:1;"/>
<path d="M15.75 12C16.1642 12 16.5 12.3358 16.5 12.75C16.5 13.1642 16.1642 13.5 15.75 13.5H9.75C9.33579 13.5 9 13.1642 9 12.75C9 12.3358 9.33579 12 9.75 12H15.75Z" fill="#2B2B2B" style="fill:#2B2B2B;fill:color(display-p3 0.1700 0.1700 0.1700);fill-opacity:1;"/>
<path d="M15.75 9C16.1642 9 16.5 9.33579 16.5 9.75C16.5 10.1642 16.1642 10.5 15.75 10.5H9.75C9.33579 10.5 9 10.1642 9 9.75C9 9.33579 9.33579 9 9.75 9H15.75Z" fill="#2B2B2B" style="fill:#2B2B2B;fill:color(display-p3 0.1700 0.1700 0.1700);fill-opacity:1;"/>
<path fill-rule="evenodd" clip-rule="evenodd" d="M16.5 3C17.2956 3 18.0585 3.3163 18.6211 3.87891C19.1837 4.44152 19.5 5.20435 19.5 6V15.75H20.25C20.4123 15.75 20.5704 15.803 20.7002 15.9004L20.7041 15.9033C20.7057 15.9046 20.708 15.9057 20.71 15.9072C20.714 15.9103 20.7182 15.9147 20.7236 15.9189C20.7345 15.9275 20.7487 15.9378 20.7646 15.9512C20.7965 15.9779 20.8376 16.0154 20.8857 16.0615C20.9814 16.1532 21.1066 16.2854 21.2314 16.457C21.4792 16.7977 21.75 17.3246 21.75 18C21.75 18.7956 21.4337 19.5585 20.8711 20.1211C20.3085 20.6837 19.5456 21 18.75 21H8.25C7.45435 21 6.69152 20.6837 6.12891 20.1211C5.5663 19.5585 5.25 18.7956 5.25 18V6C5.25 5.60218 5.09185 5.22076 4.81055 4.93945C4.52924 4.65815 4.14782 4.5 3.75 4.5C3.35218 4.5 2.97076 4.65815 2.68945 4.93945C2.40815 5.22076 2.25 5.60218 2.25 6C2.25 6.26199 2.35426 6.48521 2.48145 6.66016C2.54403 6.7462 2.6064 6.81335 2.65137 6.85645C2.67351 6.87766 2.69108 6.89177 2.7002 6.89941L2.70117 6.90039L2.75879 6.94922C3.03836 7.20685 3.08262 7.63951 2.84961 7.9502C2.61646 8.26073 2.18882 8.33903 1.86328 8.14258L1.7998 8.09961L1.7959 8.09668C1.79427 8.09544 1.79204 8.09432 1.79004 8.09277C1.78604 8.08969 1.78179 8.08535 1.77637 8.08105C1.76553 8.07248 1.75132 8.06223 1.73535 8.04883C1.70345 8.02206 1.66241 7.98462 1.61426 7.93848C1.51865 7.84685 1.3934 7.7146 1.26855 7.54297C1.02082 7.20233 0.75 6.6754 0.75 6C0.75 5.20435 1.0663 4.44152 1.62891 3.87891C2.19152 3.3163 2.95435 3 3.75 3H16.5ZM6.34375 4.5C6.60558 4.95257 6.75 5.46807 6.75 6V18C6.75 18.3978 6.90815 18.7792 7.18945 19.0605C7.47076 19.3419 7.85217 19.5 8.25 19.5C8.64783 19.5 9.02924 19.3419 9.31055 19.0605C9.59185 18.7792 9.75 18.3978 9.75 18C9.75 17.738 9.64574 17.5148 9.51855 17.3398C9.45598 17.2538 9.3936 17.1866 9.34863 17.1436C9.32649 17.1223 9.30892 17.1082 9.2998 17.1006C9.2958 17.0972 9.29352 17.0952 9.29297 17.0947C9.29318 17.0949 9.29413 17.0951 9.29492 17.0957L9.2998 17.1006C9.04177 16.9069 8.93604 16.5688 9.03809 16.2627C9.14017 15.9564 9.42718 15.75 9.75 15.75H18V6C18 5.60217 17.8419 5.22076 17.5605 4.93945C17.2792 4.65815 16.8978 4.5 16.5 4.5H6.34375ZM11.1328 17.25C11.2031 17.4737 11.25 17.7242 11.25 18C11.25 18.5317 11.1063 19.0475 10.8447 19.5H18.75C19.1478 19.5 19.5292 19.3419 19.8105 19.0605C20.0919 18.7792 20.25 18.3978 20.25 18C20.25 17.738 20.1457 17.5148 20.0186 17.3398C19.9945 17.3067 19.9694 17.2771 19.9463 17.25H11.1328Z" fill="#2B2B2B" style="fill:#2B2B2B;fill:color(display-p3 0.1700 0.1700 0.1700);fill-opacity:1;"/>
</svg>
