<svg xmlns="http://www.w3.org/2000/svg" width="24" height="24" fill="none" viewBox="0 0 24 24">
  <path fill="#ece7df" d="M3.75 3.75A2.25 2.25 0 0 1 6 6v12a2.25 2.25 0 0 0 4.5 0c0-.937-.75-1.5-.75-1.5h9V6a2.25 2.25 0 0 0-2.25-2.25z" style="fill:#ece7df;fill:color(display-p3 .9255 .9059 .8745);fill-opacity:1"/>
  <path fill="#c8beb5" d="M9.841 19.591a2.25 2.25 0 0 1-1.591.659h10.5A2.25 2.25 0 0 0 21 18c0-.937-.75-1.5-.75-1.5H9.75s.75.563.75 1.5a2.25 2.25 0 0 1-.659 1.591" style="fill:#c8beb5;fill:color(display-p3 .7843 .7451 .7098);fill-opacity:1"/>
  <path fill="#2b2b2b" d="M15.75 12a.75.75 0 0 1 0 1.5h-6a.75.75 0 0 1 0-1.5zM15.75 9a.75.75 0 0 1 0 1.5h-6a.75.75 0 0 1 0-1.5z" style="fill:#2b2b2b;fill:color(display-p3 .17 .17 .17);fill-opacity:1"/>
  <path fill="#2b2b2b" fill-rule="evenodd" d="M16.5 3a3 3 0 0 1 3 3v9.5h.75a.75.75 0 0 1 .55.241l.004.003.004.005.011.012.034.039q.041.048.107.133c.086.11.2.268.313.462.219.374.477.947.477 1.605a3 3 0 0 1-3 3H8.25a3 3 0 0 1-3-3V6a1.5 1.5 0 0 0-3 0c0 .262.104.485.231.66.063.086.125.153.17.196q.035.033.05.043V6.9l.058.05a.75.75 0 0 1-.896 1.193L1.8 8.1l-.004-.003-.006-.004-.014-.012-.04-.032a2.97 2.97 0 0 1-.467-.506A2.62 2.62 0 0 1 .75 6a3 3 0 0 1 3-3zM6.344 4.5c.262.453.406.968.406 1.5v12a1.5 1.5 0 0 0 3 0c0-.28-.117-.581-.272-.848a3 3 0 0 0-.28-.394.75.75 0 0 1 .552-1.258H18V6a1.5 1.5 0 0 0-1.5-1.5zM11.06 17c.108.294.19.634.19 1 0 .532-.144 1.047-.405 1.5h7.905a1.5 1.5 0 0 0 1.5-1.5c0-.28-.117-.581-.273-.848a3 3 0 0 0-.095-.152z" clip-rule="evenodd" style="fill:#2b2b2b;fill:color(display-p3 .17 .17 .17);fill-opacity:1"/>
</svg>
