<svg width="24" height="24" viewBox="0 0 24 24" fill="none" xmlns="http://www.w3.org/2000/svg">
<path d="M20.375 18C20.375 17.7035 20.2564 17.4544 20.1191 17.2656C20.0795 17.2112 20.0398 17.1642 20.0039 17.125H10.957C11.0558 17.3765 11.125 17.6695 11.125 18C11.125 18.5846 10.9452 19.1496 10.6191 19.625H18.75C19.181 19.625 19.5947 19.4542 19.8994 19.1494C20.2042 18.8447 20.375 18.431 20.375 18Z" fill="#49453C" style="fill:#49453C;fill:color(display-p3 0.2863 0.2706 0.2353);fill-opacity:1;"/>
<path d="M15.75 12.125C16.0952 12.125 16.375 12.4048 16.375 12.75C16.375 13.0952 16.0952 13.375 15.75 13.375H9.75C9.40482 13.375 9.125 13.0952 9.125 12.75C9.125 12.4048 9.40482 12.125 9.75 12.125H15.75Z" fill="#C3BBAC" style="fill:#C3BBAC;fill:color(display-p3 0.7648 0.7349 0.6752);fill-opacity:1;"/>
<path d="M15.75 9.125C16.0952 9.125 16.375 9.40482 16.375 9.75C16.375 10.0952 16.0952 10.375 15.75 10.375H9.75C9.40482 10.375 9.125 10.0952 9.125 9.75C9.125 9.40482 9.40482 9.125 9.75 9.125H15.75Z" fill="#C3BBAC" style="fill:#C3BBAC;fill:color(display-p3 0.7648 0.7349 0.6752);fill-opacity:1;"/>
<path fill-rule="evenodd" clip-rule="evenodd" d="M16.5 3.125C17.2625 3.125 17.994 3.42763 18.5332 3.9668C19.0724 4.50596 19.375 5.2375 19.375 6V15.875H20.25C20.3852 15.875 20.5168 15.9189 20.625 16L20.626 16.001L20.6289 16.0029C20.6303 16.004 20.6321 16.0055 20.6338 16.0068C20.6373 16.0095 20.6417 16.0128 20.6465 16.0166C20.6563 16.0244 20.6688 16.0345 20.6836 16.0469C20.7136 16.0721 20.7538 16.1073 20.7998 16.1514C20.8912 16.239 21.0112 16.3667 21.1309 16.5312C21.3685 16.8581 21.625 17.3593 21.625 18C21.625 18.7625 21.3224 19.494 20.7832 20.0332C20.244 20.5724 19.5125 20.875 18.75 20.875H8.25C7.4875 20.875 6.75596 20.5724 6.2168 20.0332C5.67763 19.494 5.375 18.7625 5.375 18V6C5.375 5.56902 5.20416 5.15533 4.89941 4.85059C4.59467 4.54584 4.18098 4.375 3.75 4.375C3.31902 4.375 2.90533 4.54584 2.60059 4.85059C2.29584 5.15533 2.125 5.56902 2.125 6C2.125 6.29654 2.24356 6.54559 2.38086 6.73438C2.44852 6.82734 2.51632 6.89923 2.56543 6.94629C2.58946 6.96931 2.6081 6.98584 2.61914 6.99512C2.62132 6.99695 2.62349 6.99876 2.625 7C2.90114 7.20711 2.95711 7.59886 2.75 7.875C2.54289 8.15114 2.15114 8.20711 1.875 8L1.87305 7.99902L1.87109 7.99707C1.86972 7.99603 1.86791 7.99448 1.86621 7.99316C1.86271 7.99046 1.85833 7.98721 1.85352 7.9834C1.84368 7.97561 1.83118 7.96552 1.81641 7.95312C1.78641 7.92795 1.74618 7.8927 1.7002 7.84863C1.60878 7.76101 1.48881 7.6333 1.36914 7.46875C1.13154 7.1419 0.875 6.64065 0.875 6C0.875 5.2375 1.17763 4.50596 1.7168 3.9668C2.25596 3.42763 2.9875 3.125 3.75 3.125H16.5ZM6.12109 4.375C6.44666 4.85026 6.625 5.4158 6.625 6V18C6.625 18.431 6.79584 18.8447 7.10059 19.1494C7.40533 19.4542 7.81902 19.625 8.25 19.625C8.68098 19.625 9.09467 19.4542 9.39941 19.1494C9.70416 18.8447 9.875 18.431 9.875 18C9.875 17.7035 9.75644 17.4544 9.61914 17.2656C9.55148 17.1727 9.48368 17.1008 9.43457 17.0537C9.41054 17.0307 9.3919 17.0142 9.38086 17.0049C9.37711 17.0017 9.37379 16.9994 9.37207 16.998C9.15853 16.8364 9.07261 16.557 9.15723 16.3027C9.2423 16.0475 9.48098 15.875 9.75 15.875H18.125V6C18.125 5.56902 17.9542 5.15533 17.6494 4.85059C17.3447 4.54584 16.931 4.375 16.5 4.375H6.12109ZM10.957 17.125C11.0558 17.3765 11.125 17.6695 11.125 18C11.125 18.5846 10.9452 19.1496 10.6191 19.625H18.75C19.181 19.625 19.5947 19.4542 19.8994 19.1494C20.2042 18.8447 20.375 18.431 20.375 18C20.375 17.7035 20.2564 17.4544 20.1191 17.2656C20.0795 17.2112 20.0398 17.1642 20.0039 17.125H10.957Z" fill="#C3BBAC" style="fill:#C3BBAC;fill:color(display-p3 0.7648 0.7349 0.6752);fill-opacity:1;"/>
</svg>
