<svg xmlns="http://www.w3.org/2000/svg" width="24" height="24" fill="none" viewBox="0 0 24 24">
  <path fill="#4d4a45" d="M14.25 19.5V6.75H3.75A.75.75 0 0 0 3 7.5v11.25a.75.75 0 0 0 .75.75z" style="fill:#4D4A45;fill:color(display-p3 0.3020 0.2902 0.2706);fill-opacity:1"/>
  <path fill="#c3bbac" d="M17.625 14.25a1.125 1.125 0 1 1 0 2.25 1.125 1.125 0 0 1 0-2.25M17.625 9.75a1.125 1.125 0 1 1 0 2.25 1.125 1.125 0 0 1 0-2.25" style="fill:#C3BBAC;fill:color(display-p3 0.7648 0.7349 0.6752);fill-opacity:1"/>
  <path fill="#c3bbac" fill-rule="evenodd" d="M16.058 1.807a.627.627 0 0 1 .884.885L13.51 6.125h6.74c.76 0 1.375.615 1.375 1.375v11.25c0 .759-.616 1.375-1.375 1.375H3.75c-.76 0-1.375-.616-1.375-1.375V7.5c0-.76.616-1.375 1.375-1.375h6.74L7.058 2.692a.626.626 0 0 1 .884-.885L12 5.865zm-1.183 17.068h5.375a.125.125 0 0 0 .125-.125V7.5a.125.125 0 0 0-.125-.125h-5.375zM3.75 7.375a.125.125 0 0 0-.125.125v11.25c0 .069.056.125.125.125h9.875v-11.5H3.75" clip-rule="evenodd" style="fill:#C3BBAC;fill:color(display-p3 0.7648 0.7349 0.6752);fill-opacity:1"/>
</svg>
