<svg xmlns="http://www.w3.org/2000/svg" width="24" height="24" fill="none" viewBox="0 0 24 24">
  <path fill="#c2c2c2" d="M7 11h2v2H7zM7 17h2v2H7zM3 9h2v2H3zM3 15h2v2H3zM5 7h2v2H5zM5 13h2v2H5zM11 7h2v2h-2zM11 13h2v2h-2zM9 9h2v2H9zM9 15h2v2H9zM13 11h2v2h-2zM13 17h2v2h-2z" style="fill:#C2C2C2;fill:color(display-p3 0.7600 0.7600 0.7600);fill-opacity:1"/>
  <path fill="#d6d6d6" d="M5 11h2v2H5zM5 17h2v2H5zM7 9h2v2H7zM7 15h2v2H7zM3 7h2v2H3zM3 13h2v2H3zM11 11h2v2h-2zM11 17h2v2h-2zM13 9h2v2h-2zM13 15h2v2h-2zM9 7h2v2H9zM9 13h2v2H9z" style="fill:#D6D6D6;fill:color(display-p3 0.8400 0.8400 0.8400);fill-opacity:1"/>
  <path fill="#f7f5f2" d="M3 11h2v2H3zM3 17h2v2H3zM5 9h2v2H5zM5 15h2v2H5zM13 7h2v2h-2zM13 13h2v2h-2zM9 11h2v2H9zM9 17h2v2H9zM11 9h2v2h-2zM11 15h2v2h-2zM7 7h2v2H7zM7 13h2v2H7z" style="fill:#F7F5F2;fill:color(display-p3 0.9686 0.9608 0.9490);fill-opacity:1"/>
  <path fill="#d6d6d6" d="M20.25 6.75h-6V19.5h6a.75.75 0 0 0 .75-.75V7.5a.75.75 0 0 0-.75-.75" style="fill:#D6D6D6;fill:color(display-p3 0.8400 0.8400 0.8400);fill-opacity:1"/>
  <path stroke="#2b2b2b" stroke-linecap="round" stroke-linejoin="round" stroke-width="1.5" d="M20.25 6.75H3.75A.75.75 0 0 0 3 7.5v11.25c0 .414.336.75.75.75h16.5a.75.75 0 0 0 .75-.75V7.5a.75.75 0 0 0-.75-.75M7.5 2.25l4.5 4.5 4.5-4.5" style="stroke:#2B2B2B;stroke:color(display-p3 0.1700 0.1700 0.1700);stroke-opacity:1"/>
  <path fill="#2b2b2b" stroke="#2b2b2b" stroke-width="1.5" d="M17.625 10.5a.375.375 0 1 1 0 .75.375.375 0 0 1 0-.75ZM17.625 15a.375.375 0 1 1 0 .75.375.375 0 0 1 0-.75Z" style="fill:#2B2B2B;fill:color(display-p3 0.1700 0.1700 0.1700);fill-opacity:1;stroke:#2B2B2B;stroke:color(display-p3 0.1700 0.1700 0.1700);stroke-opacity:1"/>
  <path stroke="#2b2b2b" stroke-linecap="round" stroke-linejoin="round" stroke-width="1.5" d="M14.25 19.5V6.75" style="stroke:#2B2B2B;stroke:color(display-p3 0.1700 0.1700 0.1700);stroke-opacity:1"/>
</svg>
