<?xml version="1.0" encoding="UTF-8"?>
<svg width="24px" height="24px" viewBox="0 0 24 24" version="1.1" xmlns="http://www.w3.org/2000/svg" xmlns:xlink="http://www.w3.org/1999/xlink">
    <title>Backpack</title>
    <g id="Backpack" stroke="none" fill="none" fill-rule="evenodd" stroke-width="1">
        <g id="Group">
            <path d="M15.75,3.804375 L15.75,3 C15.75,1.75735931 14.7426407,0.75 13.5,0.75 L10.5,0.75 C9.25735931,0.75 8.25,1.75735931 8.25,3 L8.25,3.804375 C5.66904811,4.18056266 3.75388385,6.39177939 3.75,9 L3.75,20.25 C3.75,21.0784271 4.42157288,21.75 5.25,21.75 L18.75,21.75 C19.5784271,21.75 20.25,21.0784271 20.25,20.25 L20.25,9 C20.2461161,6.39177939 18.3309519,4.18056266 15.75,3.804375 Z M10.5,2.25 L13.5,2.25 C13.9142136,2.25 14.25,2.58578644 14.25,3 L14.25,3.75 L9.75,3.75 L9.75,3 C9.75,2.58578644 10.0857864,2.25 10.5,2.25 Z M15.75,15 L8.25,15 L8.25,14.25 C8.25,13.8357864 8.58578644,13.5 9,13.5 L15,13.5 C15.4142136,13.5 15.75,13.8357864 15.75,14.25 L15.75,15 Z M8.25,16.5 L12.75,16.5 L12.75,17.25 C12.75,17.6642136 13.0857864,18 13.5,18 C13.9142136,18 14.25,17.6642136 14.25,17.25 L14.25,16.5 L15.75,16.5 L15.75,20.25 L8.25,20.25 L8.25,16.5 Z M18.75,20.25 L17.25,20.25 L17.25,14.25 C17.25,13.0073593 16.2426407,12 15,12 L9,12 C7.75735931,12 6.75,13.0073593 6.75,14.25 L6.75,20.25 L5.25,20.25 L5.25,9 C5.25,6.92893219 6.92893219,5.25 9,5.25 L15,5.25 C17.0710678,5.25 18.75,6.92893219 18.75,9 L18.75,20.25 Z M14.25,8.25 C14.25,8.66421356 13.9142136,9 13.5,9 L10.5,9 C10.0857864,9 9.75,8.66421356 9.75,8.25 C9.75,7.83578644 10.0857864,7.5 10.5,7.5 L13.5,7.5 C13.9142136,7.5 14.25,7.83578644 14.25,8.25 Z" id="Shape" fill="color(display-p3 0.000 0.000 0.000)" fill-rule="nonzero"></path>
            <rect id="Rectangle" x="0" y="0" width="24" height="24"></rect>
        </g>
    </g>
</svg>