<?xml version="1.0" encoding="UTF-8"?>
<svg width="24px" height="24px" viewBox="0 0 24 24" version="1.1" xmlns="http://www.w3.org/2000/svg" xmlns:xlink="http://www.w3.org/1999/xlink">
    <title>Brain</title>
    <g id="Brain" stroke="none" fill="none" fill-rule="evenodd" stroke-width="1">
        <g id="Group">
            <path d="M23.25,11.625 C23.2479772,9.59744032 22.0808385,7.75153744 20.25,6.8803125 L20.25,6.75 C20.2482238,4.76581481 18.9470796,3.01695901 17.0471098,2.44502491 C15.1471399,1.8730908 13.0967989,2.61307338 12,4.2665625 C10.9032011,2.61307338 8.85286007,1.8730908 6.95289022,2.44502491 C5.05292037,3.01695901 3.75177623,4.76581481 3.75,6.75 L3.75,6.8803125 C1.91745752,7.74923094 0.749296765,9.59595224 0.749296765,11.6240625 C0.749296765,13.6521728 1.91745752,15.4988941 3.75,16.3678125 L3.75,16.5 C3.75177623,18.4841852 5.05292037,20.233041 6.95289022,20.8049751 C8.85286007,21.3769092 10.9032011,20.6369266 12,18.9834375 C13.0967989,20.6369266 15.1471399,21.3769092 17.0471098,20.8049751 C18.9470796,20.233041 20.2482238,18.4841852 20.25,16.5 L20.25,16.3678125 C22.0805426,15.4972342 23.2477107,13.6520144 23.25,11.625 Z M8.25,19.5 C6.7181351,19.4997816 5.43248796,18.3454879 5.2678125,16.8225 C5.51034685,16.8571019 5.75501004,16.874645 6,16.875 L6.75,16.875 C7.16421356,16.875 7.5,16.5392136 7.5,16.125 C7.5,15.7107864 7.16421356,15.375 6.75,15.375 L6,15.375 C4.17184686,15.3771361 2.60857461,14.0606921 2.29957329,12.2588412 C1.99057197,10.4569903 3.02590462,8.69490883 4.7503125,8.0878125 C5.04976887,7.98178977 5.24994866,7.69860861 5.25,7.3809375 L5.25,6.75 C5.25,5.09314575 6.59314575,3.75 8.25,3.75 C9.90685425,3.75 11.25,5.09314575 11.25,6.75 L11.25,13.149375 C10.4264206,12.4086442 9.35768427,11.9991846 8.25,12 C7.83578644,12 7.5,12.3357864 7.5,12.75 C7.5,13.1642136 7.83578644,13.5 8.25,13.5 C9.90685425,13.5 11.25,14.8431458 11.25,16.5 C11.25,18.1568542 9.90685425,19.5 8.25,19.5 Z M18,15.375 L17.25,15.375 C16.8357864,15.375 16.5,15.7107864 16.5,16.125 C16.5,16.5392136 16.8357864,16.875 17.25,16.875 L18,16.875 C18.24499,16.874645 18.4896531,16.8571019 18.7321875,16.8225 C18.5585748,18.4281428 17.1450332,19.6082018 15.5341988,19.492259 C13.9233645,19.3763162 12.6933919,18.0059853 12.7515158,16.39203 C12.8096397,14.7780747 14.1349985,13.4997697 15.75,13.5 C16.1642136,13.5 16.5,13.1642136 16.5,12.75 C16.5,12.3357864 16.1642136,12 15.75,12 C14.6423157,11.9991846 13.5735794,12.4086442 12.75,13.149375 L12.75,6.75 C12.75,5.09314575 14.0931458,3.75 15.75,3.75 C17.4068542,3.75 18.75,5.09314575 18.75,6.75 L18.75,7.3809375 C18.7500513,7.69860861 18.9502311,7.98178977 19.2496875,8.0878125 C20.9740954,8.69490883 22.009428,10.4569903 21.7004267,12.2588412 C21.3914254,14.0606921 19.8281531,15.3771361 18,15.375 L18,15.375 Z M19.5,10.5 C19.5,10.9142136 19.1642136,11.25 18.75,11.25 L18.375,11.25 C16.511039,11.25 15,9.73896103 15,7.875 L15,7.5 C15,7.08578644 15.3357864,6.75 15.75,6.75 C16.1642136,6.75 16.5,7.08578644 16.5,7.5 L16.5,7.875 C16.5,8.91053391 17.3394661,9.75 18.375,9.75 L18.75,9.75 C19.1642136,9.75 19.5,10.0857864 19.5,10.5 Z M5.625,11.25 L5.25,11.25 C4.83578644,11.25 4.5,10.9142136 4.5,10.5 C4.5,10.0857864 4.83578644,9.75 5.25,9.75 L5.625,9.75 C6.66053391,9.75 7.5,8.91053391 7.5,7.875 L7.5,7.5 C7.5,7.08578644 7.83578644,6.75 8.25,6.75 C8.66421356,6.75 9,7.08578644 9,7.5 L9,7.875 C9,9.73896103 7.48896103,11.25 5.625,11.25 L5.625,11.25 Z" id="Shape" fill="color(display-p3 0.000 0.000 0.000)" fill-rule="nonzero"></path>
            <rect id="Rectangle" x="0" y="0" width="24" height="24"></rect>
        </g>
    </g>
</svg>