<?xml version="1.0" encoding="UTF-8"?>
<svg width="24px" height="24px" viewBox="0 0 24 24" version="1.1" xmlns="http://www.w3.org/2000/svg" xmlns:xlink="http://www.w3.org/1999/xlink">
    <title>LinkBreak</title>
    <g id="LinkBreak" stroke="none" fill="none" fill-rule="evenodd" stroke-width="1">
        <g id="Group">
            <path d="M18.6215625,5.3784375 C17.452239,4.2093549 15.5574238,4.2068391 14.385,5.3728125 L13.2928125,6.5175 C13.0028419,6.78852132 12.5519208,6.78669855 12.2641507,6.51334183 C11.9763806,6.23998511 11.9514104,5.7897522 12.2071875,5.48625 L13.3059375,4.3340625 C13.3097615,4.32976834 13.3138308,4.32569903 13.318125,4.321875 C15.0795441,2.58891391 17.9088194,2.60043445 19.6560675,4.3476825 C21.4033156,6.09493055 21.4148361,8.92420587 19.681875,10.685625 C19.678051,10.6899192 19.6739817,10.6939885 19.6696875,10.6978125 L18.5175,11.7965625 C18.2139978,12.0523396 17.7637649,12.0273694 17.4904082,11.7395993 C17.2170514,11.4518292 17.2152287,11.0009081 17.48625,10.7109375 L18.6309375,9.61875 C19.7983735,8.44485876 19.7941778,6.54715507 18.6215625,5.3784375 Z M10.7071875,17.4825 L9.615,18.6271875 C8.43869451,19.7695993 6.56307333,19.7558917 5.4035908,18.5964092 C4.24410828,17.4369267 4.23040065,15.5613055 5.3728125,14.385 L6.5175,13.2928125 C6.78852132,13.0028419 6.78669855,12.5519208 6.51334183,12.2641507 C6.23998511,11.9763806 5.7897522,11.9514104 5.48625,12.2071875 L4.3303125,13.3059375 C4.32601834,13.3097615 4.32194903,13.3138308 4.318125,13.318125 C2.58516391,15.0795441 2.59668445,17.9088194 4.3439325,19.6560675 C6.09118055,21.4033156 8.92045587,21.4148361 10.681875,19.681875 C10.6861692,19.678051 10.6902385,19.6739817 10.6940625,19.6696875 L11.7928125,18.5175 C11.9963484,18.327265 12.0776648,18.0398851 12.0039814,17.7712087 C11.9302981,17.5025324 11.7137583,17.2968382 11.4416534,17.2370457 C11.1695486,17.1772531 10.8867223,17.2732161 10.7071875,17.48625 L10.7071875,17.4825 Z M20.25,14.25 L18,14.25 C17.5857864,14.25 17.25,14.5857864 17.25,15 C17.25,15.4142136 17.5857864,15.75 18,15.75 L20.25,15.75 C20.6642136,15.75 21,15.4142136 21,15 C21,14.5857864 20.6642136,14.25 20.25,14.25 Z M3.75,9.75 L6,9.75 C6.41421356,9.75 6.75,9.41421356 6.75,9 C6.75,8.58578644 6.41421356,8.25 6,8.25 L3.75,8.25 C3.33578644,8.25 3,8.58578644 3,9 C3,9.41421356 3.33578644,9.75 3.75,9.75 Z M15,17.25 C14.5857864,17.25 14.25,17.5857864 14.25,18 L14.25,20.25 C14.25,20.6642136 14.5857864,21 15,21 C15.4142136,21 15.75,20.6642136 15.75,20.25 L15.75,18 C15.75,17.5857864 15.4142136,17.25 15,17.25 Z M9,6.75 C9.41421356,6.75 9.75,6.41421356 9.75,6 L9.75,3.75 C9.75,3.33578644 9.41421356,3 9,3 C8.58578644,3 8.25,3.33578644 8.25,3.75 L8.25,6 C8.25,6.41421356 8.58578644,6.75 9,6.75 Z" id="Shape" fill="color(display-p3 0.000 0.000 0.000)" fill-rule="nonzero"></path>
            <rect id="Rectangle" x="0" y="0" width="24" height="24"></rect>
        </g>
    </g>
</svg>