<?xml version="1.0" encoding="UTF-8"?>
<svg width="24px" height="24px" viewBox="0 0 24 24" version="1.1" xmlns="http://www.w3.org/2000/svg" xmlns:xlink="http://www.w3.org/1999/xlink">
    <title>Coffee</title>
    <g id="Coffee" stroke="none" fill="none" fill-rule="evenodd" stroke-width="1">
        <g id="Group">
            <path d="M7.5,5.25 L7.5,2.25 C7.5,1.83578644 7.83578644,1.5 8.25,1.5 C8.66421356,1.5 9,1.83578644 9,2.25 L9,5.25 C9,5.66421356 8.66421356,6 8.25,6 C7.83578644,6 7.5,5.66421356 7.5,5.25 Z M11.25,6 C11.6642136,6 12,5.66421356 12,5.25 L12,2.25 C12,1.83578644 11.6642136,1.5 11.25,1.5 C10.8357864,1.5 10.5,1.83578644 10.5,2.25 L10.5,5.25 C10.5,5.66421356 10.8357864,6 11.25,6 Z M14.25,6 C14.6642136,6 15,5.66421356 15,5.25 L15,2.25 C15,1.83578644 14.6642136,1.5 14.25,1.5 C13.8357864,1.5 13.5,1.83578644 13.5,2.25 L13.5,5.25 C13.5,5.66421356 13.8357864,6 14.25,6 Z M23.25,11.25 L23.25,12 C23.249385,13.979974 21.7095716,15.6183092 19.7334375,15.7415625 C19.2218467,17.18865 18.350826,18.4819544 17.2021875,19.5 L19.5,19.5 C19.9142136,19.5 20.25,19.8357864 20.25,20.25 C20.25,20.6642136 19.9142136,21 19.5,21 L3,21 C2.58578644,21 2.25,20.6642136 2.25,20.25 C2.25,19.8357864 2.58578644,19.5 3,19.5 L5.300625,19.5 C3.36503604,17.7899474 2.25453387,15.3327822 2.25,12.75 L2.25,8.25 C2.25,7.83578644 2.58578644,7.5 3,7.5 L19.5,7.5 C21.5710678,7.5 23.25,9.17893219 23.25,11.25 Z M18.75,9 L3.75,9 L3.75,12.75 C3.75589944,15.6229895 5.39710191,18.2419296 7.98,19.5 L14.52,19.5 C17.1028981,18.2419296 18.7441006,15.6229895 18.75,12.75 L18.75,9 Z M21.75,11.25 C21.7497054,10.2967435 21.1487389,9.44712715 20.25,9.129375 L20.25,12.75 C20.2494375,13.220975 20.2118214,13.6911757 20.1375,14.15625 C21.0931965,13.8738992 21.7493142,12.9965327 21.75,12 L21.75,11.25 Z" id="Shape" fill="color(display-p3 0.000 0.000 0.000)" fill-rule="nonzero"></path>
            <rect id="Rectangle" x="0" y="0" width="24" height="24"></rect>
        </g>
    </g>
</svg>