<?xml version="1.0" encoding="UTF-8"?>
<svg width="24px" height="24px" viewBox="0 0 24 24" version="1.1" xmlns="http://www.w3.org/2000/svg" xmlns:xlink="http://www.w3.org/1999/xlink">
    <title>CodeBlock</title>
    <g id="CodeBlock" stroke="none" fill="none" fill-rule="evenodd" stroke-width="1">
        <g id="Group">
            <path d="M5.469375,9.530625 L2.469375,6.530625 C2.32854222,6.38994881 2.24941001,6.19905694 2.24941001,6 C2.24941001,5.80094306 2.32854222,5.61005119 2.469375,5.469375 L5.469375,2.469375 C5.7624311,2.17631891 6.2375689,2.17631892 6.53062499,2.46937501 C6.82368108,2.7624311 6.82368109,3.2375689 6.530625,3.530625 L4.0603125,6 L6.530625,8.469375 C6.82368108,8.7624311 6.82368107,9.23756889 6.53062498,9.53062498 C6.23756889,9.82368107 5.7624311,9.82368108 5.469375,9.530625 L5.469375,9.530625 Z M9.219375,9.530625 C9.36005119,9.67145778 9.55094306,9.75058999 9.75,9.75058999 C9.94905694,9.75058999 10.1399488,9.67145778 10.280625,9.530625 L13.280625,6.530625 C13.4214578,6.38994881 13.50059,6.19905694 13.50059,6 C13.50059,5.80094306 13.4214578,5.61005119 13.280625,5.469375 L10.280625,2.469375 C9.9875689,2.1763189 9.5124311,2.1763189 9.219375,2.469375 C8.9263189,2.7624311 8.9263189,3.2375689 9.219375,3.530625 L11.6896875,6 L9.219375,8.469375 C9.07854222,8.61005119 8.99941001,8.80094306 8.99941001,9 C8.99941001,9.19905694 9.07854222,9.38994881 9.219375,9.530625 Z M18.75,3.75 L16.5,3.75 C16.0857864,3.75 15.75,4.08578644 15.75,4.5 C15.75,4.91421356 16.0857864,5.25 16.5,5.25 L18.75,5.25 L18.75,18.75 L5.25,18.75 L5.25,12.75 C5.25,12.3357864 4.91421356,12 4.5,12 C4.08578644,12 3.75,12.3357864 3.75,12.75 L3.75,18.75 C3.75,19.5784271 4.42157288,20.25 5.25,20.25 L18.75,20.25 C19.5784271,20.25 20.25,19.5784271 20.25,18.75 L20.25,5.25 C20.25,4.42157288 19.5784271,3.75 18.75,3.75 Z" id="Shape" fill="color(display-p3 0.000 0.000 0.000)" fill-rule="nonzero"></path>
            <rect id="Rectangle" x="0" y="0" width="24" height="24"></rect>
        </g>
    </g>
</svg>