<?xml version="1.0" encoding="UTF-8"?>
<svg width="24px" height="24px" viewBox="0 0 24 24" version="1.1" xmlns="http://www.w3.org/2000/svg" xmlns:xlink="http://www.w3.org/1999/xlink">
    <title>ChatsCircle</title>
    <g id="ChatsCircle" stroke="none" fill="none" fill-rule="evenodd" stroke-width="1">
        <g id="Group">
            <path d="M21.7565625,17.50875 C22.8079896,15.3279765 22.742059,12.7737759 21.5795243,10.6501504 C20.4169896,8.52652501 18.3008392,7.09467476 15.8971875,6.8053125 C14.8241839,4.31053474 12.4863645,2.59070563 9.78526819,2.30904705 C7.08417189,2.02738848 4.44183118,3.22790815 2.87721834,5.44764674 C1.3126055,7.66738533 1.07018326,10.5595201 2.2434375,13.00875 L1.561875,15.3253125 C1.40664528,15.8521068 1.5517131,16.4216165 1.94004831,16.8099517 C2.32838353,17.1982869 2.89789322,17.3433547 3.4246875,17.188125 L5.74125,16.5065625 C6.48509248,16.8639431 7.28258134,17.0967288 8.101875,17.195625 C8.9062315,19.0802624 10.4466744,20.5537275 12.3651839,21.273567 C14.2836934,21.9934065 16.41319,21.8969309 18.25875,21.0065625 L20.5753125,21.688125 C21.1019013,21.843174 21.6711252,21.6981916 22.0593826,21.3101296 C22.44764,20.9220677 22.5929089,20.3529167 22.438125,19.82625 L21.7565625,17.50875 Z M5.8125,14.953125 C5.74082871,14.9532958 5.66952638,14.9633917 5.600625,14.983125 L3,15.75 L3.7659375,13.1475 C3.82041266,12.9594772 3.7992163,12.7576071 3.706875,12.585 C2.30459542,9.96250779 3.03489674,6.70853986 5.42338607,4.93682541 C7.81187541,3.16511095 11.1377623,3.41031214 13.2406001,5.51314991 C15.3434379,7.61598768 15.588639,10.9418746 13.8169246,13.3303639 C12.0452101,15.7188533 8.79124221,16.4491546 6.16875,15.046875 C6.05964056,14.9864941 5.93719726,14.9542722 5.8125,14.953125 Z M20.2303125,17.6465625 L21,20.25 L18.3975,19.4840625 C18.2094772,19.4295873 18.0076071,19.4507837 17.835,19.543125 C14.9629727,21.0766962 11.3920018,20.042042 9.7846875,17.210625 C11.8606907,16.99395 13.7522442,15.921212 15.0037862,14.250769 C16.2553283,12.580326 16.7534287,10.4635744 16.378125,8.4103125 C18.1915498,8.83776681 19.7035058,10.0833895 20.4701112,11.7814893 C21.2367166,13.4795891 21.1709752,15.4374616 20.2921875,17.0803125 C20.198841,17.2539633 20.1776231,17.4573861 20.233125,17.6465625 L20.2303125,17.6465625 Z" id="Shape" fill="color(display-p3 0.000 0.000 0.000)" fill-rule="nonzero"></path>
            <rect id="Rectangle" x="0" y="0" width="24" height="24"></rect>
        </g>
    </g>
</svg>