<?xml version="1.0" encoding="UTF-8"?>
<svg width="24px" height="24px" viewBox="0 0 24 24" version="1.1" xmlns="http://www.w3.org/2000/svg" xmlns:xlink="http://www.w3.org/1999/xlink">
    <title>Briefcase</title>
    <g id="Briefcase" stroke="none" fill="none" fill-rule="evenodd" stroke-width="1">
        <g id="Group">
            <path d="M20.25,5.25 L16.5,5.25 L16.5,4.5 C16.5,3.25735931 15.4926407,2.25 14.25,2.25 L9.75,2.25 C8.50735931,2.25 7.5,3.25735931 7.5,4.5 L7.5,5.25 L3.75,5.25 C2.92157288,5.25 2.25,5.92157288 2.25,6.75 L2.25,18.75 C2.25,19.5784271 2.92157288,20.25 3.75,20.25 L20.25,20.25 C21.0784271,20.25 21.75,19.5784271 21.75,18.75 L21.75,6.75 C21.75,5.92157288 21.0784271,5.25 20.25,5.25 Z M9,4.5 C9,4.08578644 9.33578644,3.75 9.75,3.75 L14.25,3.75 C14.6642136,3.75 15,4.08578644 15,4.5 L15,5.25 L9,5.25 L9,4.5 Z M20.25,6.75 L20.25,10.6509375 C17.7185419,12.0288535 14.8821749,12.7505155 12,12.75 C9.11794078,12.7505241 6.28164641,12.0292029 3.75,10.651875 L3.75,6.75 L20.25,6.75 Z M20.25,18.75 L3.75,18.75 L3.75,12.34125 C6.31868011,13.597685 9.14049896,14.2505513 12,14.25 C14.8595517,14.250061 17.68133,13.5968834 20.25,12.3403125 L20.25,18.75 Z M9.75,10.5 C9.75,10.0857864 10.0857864,9.75 10.5,9.75 L13.5,9.75 C13.9142136,9.75 14.25,10.0857864 14.25,10.5 C14.25,10.9142136 13.9142136,11.25 13.5,11.25 L10.5,11.25 C10.0857864,11.25 9.75,10.9142136 9.75,10.5 Z" id="Shape" fill="color(display-p3 0.000 0.000 0.000)" fill-rule="nonzero"></path>
            <rect id="Rectangle" x="0" y="0" width="24" height="24"></rect>
        </g>
    </g>
</svg>