<?xml version="1.0" encoding="UTF-8"?>
<svg width="24px" height="24px" viewBox="0 0 24 24" version="1.1" xmlns="http://www.w3.org/2000/svg" xmlns:xlink="http://www.w3.org/1999/xlink">
    <title>CompassTool</title>
    <g id="CompassTool" stroke="none" fill="none" fill-rule="evenodd" stroke-width="1">
        <g id="Group">
            <path d="M20.1675,11.59125 C20.2990213,11.3517447 20.2898821,11.0596635 20.1436445,10.8288492 C19.997407,10.598035 19.7372137,10.4650148 19.4644786,10.4816352 C19.1917435,10.4982556 18.949628,10.6618863 18.8325,10.90875 C18.1391673,12.2444502 17.0580969,13.3392464 15.73125,14.049375 L14.176875,10.550625 C15.3908977,9.68376401 15.9756711,8.17977524 15.6660808,6.7205107 C15.3564905,5.26124617 14.2114195,4.12425254 12.75,3.825 L12.75,2.25 C12.75,1.83578644 12.4142136,1.5 12,1.5 C11.5857864,1.5 11.25,1.83578644 11.25,2.25 L11.25,3.825 C9.78858047,4.12425254 8.64350949,5.26124617 8.33391921,6.7205107 C8.02432894,8.17977524 8.60910229,9.68376401 9.823125,10.550625 L5.3146875,20.6953125 C5.20434494,20.9404039 5.23359446,21.2258039 5.3913579,21.4434183 C5.54912133,21.6610326 5.81127444,21.7775849 6.07852764,21.7489315 C6.34578085,21.7202781 6.57726737,21.5508004 6.6853125,21.3046875 L9.0421875,16.0021875 C9.993108,16.3333051 10.9930809,16.5016048 12,16.5 C13.0074468,16.4988374 14.0080019,16.3338725 14.9625,16.0115625 L17.3146875,21.3046875 C17.4841699,21.6811396 17.9260251,21.8498346 18.3032658,21.6821147 C18.6805064,21.5143949 18.8512661,21.0733335 18.6853125,20.6953125 L16.3415625,15.421875 C17.9804987,14.5688847 19.3165171,13.2312294 20.1675,11.59125 Z M12,5.25 C13.2426407,5.25 14.25,6.25735931 14.25,7.5 C14.25,8.74264069 13.2426407,9.75 12,9.75 C10.7573593,9.75 9.75,8.74264069 9.75,7.5 C9.75,6.25735931 10.7573593,5.25 12,5.25 Z M12,15.0000055 C11.2037366,15.0009694 10.4124599,14.8743651 9.65625,14.625 L11.195625,11.161875 C11.7267033,11.2793763 12.2770467,11.2793763 12.808125,11.161875 L14.353125,14.63625 C13.5919848,14.877198 12.7983673,14.9998767 12,15.0000055 Z" id="Shape" fill="color(display-p3 0.000 0.000 0.000)" fill-rule="nonzero"></path>
            <rect id="Rectangle" x="0" y="0" width="24" height="24"></rect>
        </g>
    </g>
</svg>