<?xml version="1.0" encoding="UTF-8"?>
<svg width="24px" height="24px" viewBox="0 0 24 24" version="1.1" xmlns="http://www.w3.org/2000/svg" xmlns:xlink="http://www.w3.org/1999/xlink">
    <title>FilmSlate</title>
    <g id="FilmSlate" stroke="none" fill="none" fill-rule="evenodd" stroke-width="1">
        <g id="Group">
            <path d="M20.25,9.75 L9.5709375,9.75 L19.6875,7.0790625 C19.8809156,7.02809922 20.0459617,6.90198883 20.1459554,6.72876031 C20.2459491,6.55553178 20.2726055,6.34953796 20.22,6.1565625 L19.455,3.3440625 C19.2358933,2.55665477 18.4245311,2.09164643 17.634375,2.300625 L3.3571875,6.069375 C2.97316884,6.16906101 2.64542337,6.41909364 2.4478125,6.763125 C2.24894349,7.10298774 2.19663504,7.50891681 2.3025,7.888125 L3,10.45875 C3,10.471875 3,10.4859375 3,10.5 L3,18.75 C3,19.5784271 3.67157288,20.25 4.5,20.25 L19.5,20.25 C20.3284271,20.25 21,19.5784271 21,18.75 L21,10.5 C21,10.0857864 20.6642136,9.75 20.25,9.75 Z M18.015,3.75 L18.5775,5.8190625 L16.456875,6.3815625 L13.820625,4.8590625 L18.015,3.75 Z M11.7628125,5.4 L14.3990625,6.9225 L10.9359375,7.8365625 L8.2996875,6.3159375 L11.7628125,5.4 Z M4.3190625,9.583125 L3.7565625,7.513125 L6.2409375,6.856875 L8.8771875,8.38125 L4.3190625,9.583125 Z M19.5,18.75 L4.5,18.75 L4.5,11.25 L19.5,11.25 L19.5,18.75 Z" id="Shape" fill="color(display-p3 0.000 0.000 0.000)" fill-rule="nonzero"></path>
            <rect id="Rectangle" x="0" y="0" width="24" height="24"></rect>
        </g>
    </g>
</svg>