<?xml version="1.0" encoding="UTF-8"?>
<svg width="24px" height="24px" viewBox="0 0 24 24" version="1.1" xmlns="http://www.w3.org/2000/svg" xmlns:xlink="http://www.w3.org/1999/xlink">
    <title>FlowerTulip</title>
    <g id="FlowerTulip" stroke="none" fill="none" fill-rule="evenodd" stroke-width="1">
        <g id="Group">
            <path d="M19.5,4.5 C18.3585669,4.49897007 17.2294869,4.73621736 16.185,5.1965625 C14.769375,2.818125 12.4425,1.6340625 12.335625,1.57875 C12.124362,1.47303393 11.875638,1.47303393 11.664375,1.57875 C11.5575,1.633125 9.226875,2.818125 7.815,5.1965625 C6.77051307,4.73621736 5.6414331,4.49897007 4.5,4.5 C4.08578644,4.5 3.75,4.83578644 3.75,5.25 L3.75,9 C3.75512807,13.2636537 7.00444242,16.8228714 11.25,17.2153125 L11.25,20.536875 L7.835625,18.82875 C7.59581047,18.7088427 7.31024294,18.7259834 7.08649293,18.8737152 C6.86274292,19.021447 6.73480339,19.2773261 6.75086792,19.5449652 C6.76693245,19.8126043 6.92456046,20.0513427 7.164375,20.17125 L11.664375,22.42125 C11.875638,22.5269661 12.124362,22.5269661 12.335625,22.42125 L16.835625,20.17125 C17.2063461,19.9858894 17.3566105,19.5350961 17.17125,19.164375 C16.9858894,18.7936539 16.5350961,18.6433895 16.164375,18.82875 L12.75,20.536875 L12.75,17.2153125 C16.9955576,16.8228714 20.2448719,13.2636537 20.25,9 L20.25,5.25 C20.25,4.83578644 19.9142136,4.5 19.5,4.5 Z M11.25,15.70875 C7.83547727,15.3227074 5.25398282,12.4362739 5.25,9 L5.25,6.04125 C8.66452273,6.42729259 11.2460172,9.31372607 11.25,12.75 L11.25,15.70875 Z M12,9.315 C11.3690652,7.94425506 10.3758534,6.77178544 9.1275,5.9240625 C10.0246875,4.44375 11.3775,3.4959375 12,3.1115625 C12.6234375,3.4940625 13.97625,4.441875 14.8725,5.9240625 C13.6243388,6.77199922 12.6311773,7.9444095 12,9.315 L12,9.315 Z M18.75,9 C18.7460172,12.4362739 16.1645227,15.3227074 12.75,15.70875 L12.75,12.75 C12.7539828,9.31372607 15.3354773,6.42729259 18.75,6.04125 L18.75,9 Z" id="Shape" fill="color(display-p3 0.000 0.000 0.000)" fill-rule="nonzero"></path>
            <rect id="Rectangle" x="0" y="0" width="24" height="24"></rect>
        </g>
    </g>
</svg>