<?xml version="1.0" encoding="UTF-8"?>
<svg width="24px" height="24px" viewBox="0 0 24 24" version="1.1" xmlns="http://www.w3.org/2000/svg" xmlns:xlink="http://www.w3.org/1999/xlink">
    <title>Ghost</title>
    <g id="Ghost" stroke="none" fill="none" fill-rule="evenodd" stroke-width="1">
        <g id="Group">
            <path d="M10.5,10.875 C10.5,11.4963203 9.99632034,12 9.375,12 C8.75367966,12 8.25,11.4963203 8.25,10.875 C8.25,10.2536797 8.75367966,9.75 9.375,9.75 C9.99632034,9.75 10.5,10.2536797 10.5,10.875 L10.5,10.875 Z M14.625,9.75 C14.0036797,9.75 13.5,10.2536797 13.5,10.875 C13.5,11.4963203 14.0036797,12 14.625,12 C15.2463203,12 15.75,11.4963203 15.75,10.875 C15.75,10.2536797 15.2463203,9.75 14.625,9.75 Z M21,11.2500001 L21,20.2500001 C21,20.5399106 20.8330316,20.803894 20.5710202,20.9279836 C20.3090088,21.0520731 19.9989444,21.0140434 19.7746875,20.8303125 L17.5003125,18.969375 L15.225,20.8303125 C14.9487562,21.0562629 14.5515563,21.0562629 14.2753125,20.8303125 L12,18.969375 L9.7246875,20.8303125 C9.44844373,21.0562629 9.05124377,21.0562629 8.775,20.8303125 L6.4996875,18.969375 L4.2253125,20.8303125 C4.00105563,21.0140434 3.69099119,21.0520731 3.42897981,20.9279836 C3.16696843,20.803894 2.99999998,20.5399106 2.99999998,20.2500001 L2.99999998,11.2500001 C2.99999998,6.2794373 7.0294373,2.25000013 12,2.25000013 C16.9705627,2.25000013 21,6.2794373 21,11.2500001 Z M19.5,11.25 C19.5,7.10786438 16.1421356,3.75 12,3.75 C7.85786438,3.75 4.5,7.10786438 4.5,11.25 L4.5,18.6675 L6.0253125,17.4196875 C6.30155627,17.1937371 6.69875623,17.1937371 6.975,17.4196875 L9.2503125,19.280625 L11.5246875,17.4196875 C11.8011009,17.1932254 12.1988991,17.1932254 12.4753125,17.4196875 L14.7496875,19.280625 L17.025,17.4196875 C17.3012438,17.1937371 17.6984437,17.1937371 17.9746875,17.4196875 L19.5,18.6675 L19.5,11.25 Z" id="Shape" fill="color(display-p3 0.000 0.000 0.000)" fill-rule="nonzero"></path>
            <rect id="Rectangle" x="0" y="0" width="24" height="24"></rect>
        </g>
    </g>
</svg>