<?xml version="1.0" encoding="UTF-8"?>
<svg width="24px" height="24px" viewBox="0 0 24 24" version="1.1" xmlns="http://www.w3.org/2000/svg" xmlns:xlink="http://www.w3.org/1999/xlink">
    <title>Spade</title>
    <g id="Spade" stroke="none" fill="none" fill-rule="evenodd" stroke-width="1">
        <g id="Group">
            <path d="M12.335625,1.5796875 C12.124362,1.47397143 11.875638,1.47397143 11.664375,1.5796875 C11.28,1.771875 2.24999956,6.36 2.24999956,12.75 C2.2493078,14.4456587 3.06763698,16.0372491 4.44713701,17.0232707 C5.82663704,18.0092923 7.59743472,18.2683253 9.2015625,17.71875 L8.281875,20.784375 C8.21371928,21.0114297 8.25692386,21.2573404 8.39839241,21.4475657 C8.53986096,21.637791 8.76293667,21.75 9,21.75 L15,21.75 C15.2370633,21.75 15.460139,21.637791 15.6016076,21.4475657 C15.7430761,21.2573404 15.7862807,21.0114297 15.718125,20.784375 L14.7984375,17.71875 C16.4025653,18.2683253 18.173363,18.0092923 19.552863,17.0232707 C20.932363,16.0372491 21.7506922,14.4456587 21.7499996,12.75 C21.7499996,6.36 12.72,1.771875 12.335625,1.5796875 Z M16.5,16.5 C15.5938515,16.5000804 14.7183219,16.1720482 14.0353125,15.5765625 C13.7834959,15.3569685 13.4167867,15.3304304 13.1359763,15.5114792 C12.8551659,15.692528 12.7279814,16.0374976 12.8240625,16.3575 L13.9921875,20.25 L10.0078125,20.25 L11.1759375,16.3575 C11.2720186,16.0374976 11.1448341,15.692528 10.8640237,15.5114792 C10.5832133,15.3304304 10.2165041,15.3569685 9.9646875,15.5765625 C8.85653665,16.5429398 7.28586794,16.7725446 5.94746305,16.1638116 C4.60905817,15.5550787 3.75,14.2203345 3.75,12.75 C3.75,9.94875 6.0384375,7.4484375 7.9584375,5.844375 C9.21707564,4.80534275 10.5701586,3.88633857 12,3.099375 C13.4298414,3.88633857 14.7829244,4.80534275 16.0415625,5.844375 C19.5196875,8.750625 20.25,11.2040625 20.25,12.75 C20.25,14.8210678 18.5710678,16.5 16.5,16.5 Z" id="Shape" fill="color(display-p3 0.000 0.000 0.000)" fill-rule="nonzero"></path>
            <rect id="Rectangle" x="0" y="0" width="24" height="24"></rect>
        </g>
    </g>
</svg>