<?xml version="1.0" encoding="UTF-8"?>
<svg width="24px" height="24px" viewBox="0 0 24 24" version="1.1" xmlns="http://www.w3.org/2000/svg" xmlns:xlink="http://www.w3.org/1999/xlink">
    <title>InstagramLogo</title>
    <g id="InstagramLogo" stroke="none" fill="none" fill-rule="evenodd" stroke-width="1">
        <g id="Group">
            <path d="M12,7.5 C9.51471863,7.5 7.5,9.51471863 7.5,12 C7.5,14.4852814 9.51471863,16.5 12,16.5 C14.4852814,16.5 16.5,14.4852814 16.5,12 C16.4974163,9.51578961 14.4842104,7.50258368 12,7.5 Z M12,15 C10.3431458,15 9,13.6568542 9,12 C9,10.3431458 10.3431458,9 12,9 C13.6568542,9 15,10.3431458 15,12 C15,12.7956495 14.6839295,13.5587112 14.1213203,14.1213203 C13.5587112,14.6839295 12.7956495,15 12,15 Z M16.5,2.25 L7.5,2.25 C4.6017902,2.25310024 2.25310024,4.6017902 2.25,7.5 L2.25,16.5 C2.25310024,19.3982098 4.6017902,21.7468998 7.5,21.75 L16.5,21.75 C19.3982098,21.7468998 21.7468998,19.3982098 21.75,16.5 L21.75,7.5 C21.7468998,4.6017902 19.3982098,2.25310024 16.5,2.25 L16.5,2.25 Z M20.25,16.5 C20.25,18.5710678 18.5710678,20.25 16.5,20.25 L7.5,20.25 C5.42893219,20.25 3.75,18.5710678 3.75,16.5 L3.75,7.5 C3.75,5.42893219 5.42893219,3.75 7.5,3.75 L16.5,3.75 C18.5710678,3.75 20.25,5.42893219 20.25,7.5 L20.25,16.5 Z" id="Shape" fill="color(display-p3 0.000 0.000 0.000)" fill-rule="nonzero"></path>
            <rect id="Rectangle" x="0" y="0" width="24" height="24"></rect>
        </g>
    </g>
</svg>