<?xml version="1.0" encoding="UTF-8"?>
<svg width="24px" height="24px" viewBox="0 0 24 24" version="1.1" xmlns="http://www.w3.org/2000/svg" xmlns:xlink="http://www.w3.org/1999/xlink">
    <title>LightbulbFilament</title>
    <g id="LightbulbFilament" stroke="none" fill="none" fill-rule="evenodd" stroke-width="1">
        <g id="Group">
            <path d="M15,21.75 C15,22.1642136 14.7761424,22.5 14.5,22.5 L9.5,22.5 C9.22385763,22.5 9,22.1642136 9,21.75 C9,21.3357864 9.22385763,21 9.5,21 L14.5,21 C14.7761424,21 15,21.3357864 15,21.75 Z M20.2500275,9.75 C20.2565501,12.2836493 19.0926064,14.6783147 17.09625,16.2384375 C16.722959,16.5245707 16.5028704,16.9671702 16.5,17.4375 L16.5,18 C16.5,18.8284271 15.8284271,19.5 15,19.5 L9,19.5 C8.17157288,19.5 7.5,18.8284271 7.5,18 L7.5,17.4375 C7.49968859,16.9727578 7.28397626,16.5344082 6.9159375,16.250625 C4.92505424,14.7001002 3.75762575,12.3203023 3.74987733,9.796875 C3.725625,5.3278125 7.336875,1.6078125 11.80125,1.5 C14.023516,1.44644796 16.1733596,2.2919429 17.7637907,3.84496034 C19.3542217,5.39797778 20.2506452,7.52708893 20.2500275,9.75 Z M18.7500249,9.75 C18.7505312,7.9311637 18.0170239,6.18908321 16.7156502,4.91841721 C15.4142764,3.6477512 13.6551802,2.95604471 11.836875,3 C8.180625,3.08625 5.2303125,6.1303125 5.24990204,9.7865625 C5.2568008,11.850647 6.21233047,13.7969683 7.84125,15.0646875 L7.84125,15.0646875 C8.57354432,15.6339645 9.00133219,16.5099605 9,17.4375 L9,18 L11.25,18 L11.25,13.8103125 L8.469375,11.030625 C8.1763189,10.7375689 8.1763189,10.2624311 8.469375,9.969375 C8.7624311,9.6763189 9.2375689,9.6763189 9.530625,9.969375 L12,12.4396875 L14.469375,9.969375 C14.6589491,9.77980095 14.9352593,9.70576385 15.1942222,9.77515277 C15.4531852,9.84454169 15.6554583,10.0468148 15.7248472,10.3057778 C15.7942361,10.5647407 15.7201991,10.8410509 15.530625,11.030625 L12.75,13.8103125 L12.75,18 L15,18 L15,17.4375 C15.001684,16.5072637 15.4332088,15.6300261 16.1690625,15.0609375 C17.8030788,13.7839502 18.7556429,11.8238067 18.7500249,9.75 L18.7500249,9.75 Z" id="Shape" fill="color(display-p3 0.000 0.000 0.000)" fill-rule="nonzero"></path>
            <rect id="Rectangle" x="0" y="0" width="24" height="24"></rect>
        </g>
    </g>
</svg>