<?xml version="1.0" encoding="UTF-8"?>
<svg width="24px" height="24px" viewBox="0 0 24 24" version="1.1" xmlns="http://www.w3.org/2000/svg" xmlns:xlink="http://www.w3.org/1999/xlink">
    <title>medal-military</title>
    <g id="medal-military" stroke="none" fill="none" fill-rule="nonzero">
        <path d="M19.40625,3.75 L4.59375,3.75 C3.71354618,3.75 3,4.46354618 3,5.34375 L3,9.9571875 C3.00080729,10.582713 3.36746407,11.149931 3.9375,11.4075 L9.80625,14.0746875 C8.0190859,15.074773 7.13260181,17.1554523 7.6493667,19.1371386 C8.16613158,21.1188249 9.95579333,22.5016448 12.00375,22.5016448 C14.0517067,22.5016448 15.8413684,21.1188249 16.3581333,19.1371386 C16.8748982,17.1554523 15.9884141,15.074773 14.20125,14.0746875 L20.0625,11.4075 C20.6325359,11.149931 20.9991927,10.582713 21,9.9571875 L21,5.34375 C21,4.46354618 20.2864538,3.75 19.40625,3.75 Z M15,5.25 L15,12.0628125 L12,13.4259375 L9,12.0628125 L9,5.25 L15,5.25 Z M4.5,9.9571875 L4.5,5.34375 C4.5,5.2919733 4.5419733,5.25 4.59375,5.25 L7.5,5.25 L7.5,11.3803125 L4.5553125,10.0425 C4.52171634,10.027398 4.50007686,9.99402182 4.5,9.9571875 Z M12,21 C10.3431458,21 9,19.6568542 9,18 C9,16.3431458 10.3431458,15 12,15 C13.6568542,15 15,16.3431458 15,18 C15,19.6568542 13.6568542,21 12,21 Z M19.5,9.9571875 C19.4999231,9.99402182 19.4782837,10.027398 19.4446875,10.0425 L16.5,11.3803125 L16.5,5.25 L19.40625,5.25 C19.4580267,5.25 19.5,5.2919733 19.5,5.34375 L19.5,9.9571875 Z" id="Shape" fill="color(display-p3 0.000 0.000 0.000)"></path>
    </g>
</svg>