<?xml version="1.0" encoding="UTF-8"?>
<svg width="24px" height="24px" viewBox="0 0 24 24" version="1.1" xmlns="http://www.w3.org/2000/svg" xmlns:xlink="http://www.w3.org/1999/xlink">
    <title>Aperture</title>
    <g id="Aperture" stroke="none" fill="none" fill-rule="evenodd" stroke-width="1">
        <g id="Group">
            <path d="M18.894375,5.105625 C15.0867168,1.29796692 8.91328323,1.29796697 5.1056251,5.1056251 C1.29796697,8.91328323 1.29796692,15.0867168 5.105625,18.894375 C8.91328317,22.7020332 15.0867168,22.7020332 18.894375,18.894375 C22.7020332,15.0867168 22.7020332,8.91328317 18.894375,5.105625 Z M17.8340625,6.166875 C18.2186315,6.55309988 18.5640625,6.97640984 18.8653125,7.430625 L15.7078125,11.15625 L13.0903125,3.823125 C14.887366,4.05786705 16.5557634,4.88217403 17.8340625,6.166875 L17.8340625,6.166875 Z M14.5865625,12.46875 L12.8840625,14.4721875 L10.2975,14.0034375 L9.4134375,11.53125 L11.1159375,9.5278125 L13.7025,9.9965625 L14.5865625,12.46875 Z M6.1659375,6.166875 C7.58237689,4.7427376 9.47286801,3.8889136 11.4778125,3.7678125 L13.119375,8.3615625 L5.465625,6.9675 C5.68159716,6.68583838 5.91552074,6.41840767 6.1659375,6.166875 Z M4.3734375,15.144375 C3.4731509,12.9458805 3.5595207,10.4667602 4.610625,8.33625 L9.4115625,9.2128125 L4.3734375,15.144375 Z M6.1659375,17.833125 C5.78136849,17.4469001 5.43593751,17.0235902 5.1346875,16.569375 L8.2921875,12.84375 L10.9096875,20.173125 C9.11310593,19.9394102 7.44476637,19.1164506 6.1659375,17.833125 L6.1659375,17.833125 Z M17.8340625,17.833125 C16.4176231,19.2572624 14.527132,20.1110864 12.5221875,20.2321875 L10.880625,15.6384375 L18.534375,17.03625 C18.3182754,17.3166244 18.0843544,17.5827995 17.8340625,17.833125 Z M14.5884375,14.7871875 L19.6265625,8.855625 C20.5268491,11.0541195 20.4404793,13.5332398 19.389375,15.66375 L14.5884375,14.7871875 Z" id="Shape" fill="color(display-p3 0.000 0.000 0.000)" fill-rule="nonzero"></path>
            <rect id="Rectangle" x="0" y="0" width="24" height="24"></rect>
        </g>
    </g>
</svg>