<?xml version="1.0" encoding="UTF-8"?>
<svg width="24px" height="24px" viewBox="0 0 24 24" version="1.1" xmlns="http://www.w3.org/2000/svg" xmlns:xlink="http://www.w3.org/1999/xlink">
    <title>Planet</title>
    <g id="Planet" stroke="none" fill="none" fill-rule="evenodd" stroke-width="1">
        <g id="Group">
            <path d="M22.9790625,5.68875 C22.261875,4.4521875 20.3690625,4.17375 17.4946875,4.876875 C14.7797998,2.77764244 11.1068779,2.40645878 8.02687872,3.92006294 C4.94687952,5.4336671 2.99676274,8.56818093 3,12 C3.00011762,12.3858414 3.02454098,12.7712921 3.073125,13.1540625 C0.4771875,15.84375 0.5146875,17.4375 1.021875,18.31125 C1.5,19.14 2.4975,19.5 3.81,19.5 C4.72126997,19.4811485 5.62716856,19.3552855 6.5090625,19.125 C9.22423378,21.2221659 12.8960345,21.5918755 15.9747881,20.0780935 C19.0535418,18.5643116 21.0028458,15.4307801 21,12 C21.000186,11.6160481 20.9760753,11.2324691 20.9278125,10.8515625 C22.0996875,9.6328125 22.8796875,8.475 23.145,7.4840625 C23.3278125,6.7978125 23.2725,6.1940625 22.9790625,5.68875 Z M12,4.49999812 C15.4980596,4.50359367 18.5304487,6.92172958 19.3125,10.33125 C17.713125,11.836875 15.5484375,13.3809375 13.4934375,14.5621875 C10.910625,16.044375 8.67,16.96875 6.883125,17.475 C4.6309287,15.3744535 3.89305246,12.109921 5.02289924,9.24493757 C6.15274602,6.37995416 8.9202794,4.49782954 12,4.49999812 L12,4.49999812 Z M2.319375,17.5584375 C2.1825,17.323125 2.2584375,16.8796875 2.5275,16.3396875 C2.79357021,15.8337436 3.11728508,15.3602831 3.4921875,14.92875 C3.86381262,16.0054671 4.43644875,17.001854 5.1796875,17.865 C3.5625,18.136875 2.55375,17.9634375 2.319375,17.5584375 Z M12,19.5000038 C10.7354321,19.5012821 9.49135756,19.1805844 8.385,18.568125 C10.4157109,17.8499257 12.3751115,16.9441384 14.2378125,15.8625 C16.2609375,14.7009375 18.0515625,13.441875 19.494375,12.19875 C19.3832739,16.2593865 16.0621529,19.4949244 12,19.5000038 L12,19.5000038 Z M21.695625,7.0959375 C21.53625,7.6875 21.1153125,8.364375 20.5115625,9.076875 C20.1409067,7.99886939 19.5681886,7.00138539 18.8240625,6.1378125 C20.15625,5.9175 21.39,5.934375 21.6834375,6.4415625 C21.7678125,6.58875 21.7725,6.8090625 21.695625,7.0959375 Z" id="Shape" fill="color(display-p3 0.000 0.000 0.000)" fill-rule="nonzero"></path>
            <rect id="Rectangle" x="0" y="0" width="24" height="24"></rect>
        </g>
    </g>
</svg>