<?xml version="1.0" encoding="UTF-8"?>
<svg width="24px" height="24px" viewBox="0 0 24 24" version="1.1" xmlns="http://www.w3.org/2000/svg" xmlns:xlink="http://www.w3.org/1999/xlink">
    <title>Books</title>
    <g id="Books" stroke="none" fill="none" fill-rule="evenodd" stroke-width="1">
        <g id="Group">
            <path d="M21.7171875,18.2390625 L18.605625,3.4453125 C18.5243457,3.05457663 18.2907034,2.71234115 17.9564025,2.49434175 C17.6221016,2.27634236 17.2147074,2.20055457 16.824375,2.28375 L12.4359375,3.226875 C11.6280166,3.40377691 11.1134843,4.19858287 11.2828125,5.008125 L14.394375,19.801875 C14.5373026,20.4975632 15.1485353,20.9976627 15.85875,21 C15.9652644,21 16.0714703,20.9885466 16.175625,20.96625 L20.5640625,20.023125 C21.3730031,19.8458021 21.8877153,19.0494628 21.7171875,18.2390625 L21.7171875,18.2390625 Z M12.75,4.7015625 C12.75,4.6959375 12.75,4.693125 12.75,4.693125 L17.1375,3.755625 L17.4496875,5.2434375 L13.0621875,6.1875 L12.75,4.7015625 Z M13.370625,7.651875 L17.76,6.7096875 L18.073125,8.2003125 L13.6875,9.1434375 L13.370625,7.651875 Z M13.993125,10.6115625 L18.3825,9.6684375 L19.629375,15.5971875 L15.24,16.5403125 L13.993125,10.6115625 Z M20.25,18.556875 L15.8625,19.494375 L15.5503125,18.0065625 L19.9378125,17.0625 L20.25,18.5484375 C20.25,18.5540625 20.25,18.556875 20.25,18.556875 Z M9.75,3 L5.25,3 C4.42157288,3 3.75,3.67157288 3.75,4.5 L3.75,19.5 C3.75,20.3284271 4.42157288,21 5.25,21 L9.75,21 C10.5784271,21 11.25,20.3284271 11.25,19.5 L11.25,4.5 C11.25,3.67157288 10.5784271,3 9.75,3 Z M5.25,4.5 L9.75,4.5 L9.75,6 L5.25,6 L5.25,4.5 Z M5.25,7.5 L9.75,7.5 L9.75,16.5 L5.25,16.5 L5.25,7.5 Z M9.75,19.5 L5.25,19.5 L5.25,18 L9.75,18 L9.75,19.5 Z" id="Shape" fill="color(display-p3 0.000 0.000 0.000)" fill-rule="nonzero"></path>
            <rect id="Rectangle" x="0" y="0" width="24" height="24"></rect>
        </g>
    </g>
</svg>