<?xml version="1.0" encoding="UTF-8"?>
<svg width="24px" height="24px" viewBox="0 0 24 24" version="1.1" xmlns="http://www.w3.org/2000/svg" xmlns:xlink="http://www.w3.org/1999/xlink">
    <title>Swatches</title>
    <g id="Swatches" stroke="none" fill="none" fill-rule="evenodd" stroke-width="1">
        <g id="Group">
            <path d="M8.25,16.875 C8.25,17.4963203 7.74632034,18 7.125,18 C6.50367966,18 6,17.4963203 6,16.875 C6,16.2536797 6.50367966,15.75 7.125,15.75 C7.74632034,15.75 8.25,16.2536797 8.25,16.875 Z M22.5,14.6428125 L22.5,19.5 C22.5,20.3284271 21.8284271,21.0000008 21,21.0000008 L7.125,21.0000008 C6.87550515,21.0000008 6.6264603,20.9788259 6.380625,20.93625 C4.14795959,20.5289071 2.66372638,18.3945102 3.0590625,16.1596875 L5.4028125,2.74125 C5.47009586,2.34964954 5.69056426,2.00096762 6.01548886,1.77227137 C6.34041347,1.54357511 6.74303882,1.45369619 7.134375,1.5225 L12.26625,2.4375 C13.0791987,2.58400696 13.6206981,3.36021195 13.4775,4.17375 L12.345,10.6425 L18.7021875,8.34375 C19.4779404,8.06354982 20.3343816,8.46224515 20.619375,9.23625 L22.40625,14.1271875 C22.4636504,14.2932659 22.4952672,14.4671582 22.5,14.6428125 Z M9.65625,17.3315625 L12,3.913125 L6.886875,3 L4.543125,16.415625 C4.28840593,17.8360864 5.2280915,19.1957829 6.646875,19.4596875 C7.3208202,19.5805503 8.01508957,19.4262307 8.574375,19.03125 C9.14795791,18.632327 9.53765451,18.0200914 9.65625,17.3315625 Z M10.948125,18.28125 L21,14.6353125 L19.21125,9.75 L12.046875,12.346875 L11.13,17.589375 C11.0892382,17.8247693 11.0283908,18.0562402 10.948125,18.28125 Z M21,16.23 L11.975625,19.5 L21,19.5 L21,16.23 Z" id="Shape" fill="color(display-p3 0.000 0.000 0.000)" fill-rule="nonzero"></path>
            <rect id="Rectangle" x="0" y="0" width="24" height="24"></rect>
        </g>
    </g>
</svg>