<?xml version="1.0" encoding="UTF-8"?>
<svg width="24px" height="24px" viewBox="0 0 24 24" version="1.1" xmlns="http://www.w3.org/2000/svg" xmlns:xlink="http://www.w3.org/1999/xlink">
    <title>AppWindow</title>
    <g id="AppWindow" stroke="none" fill="none" fill-rule="evenodd" stroke-width="1">
        <g id="Group">
            <path d="M20.25,3.75 L3.75,3.75 C2.92157288,3.75 2.25,4.42157288 2.25,5.25 L2.25,18.75 C2.25,19.5784271 2.92157288,20.25 3.75,20.25 L20.25,20.25 C21.0784271,20.25 21.75,19.5784271 21.75,18.75 L21.75,5.25 C21.75,4.42157288 21.0784271,3.75 20.25,3.75 Z M20.25,18.75 L3.75,18.75 L3.75,5.25 L20.25,5.25 L20.25,18.75 Z M7.5,7.875 C7.5,8.49632034 6.99632034,9 6.375,9 C5.75367966,9 5.25,8.49632034 5.25,7.875 C5.25,7.25367966 5.75367966,6.75 6.375,6.75 C6.99632034,6.75 7.5,7.25367966 7.5,7.875 Z M11.25,7.875 C11.25,8.49632034 10.7463203,9 10.125,9 C9.50367966,9 9,8.49632034 9,7.875 C9,7.25367966 9.50367966,6.75 10.125,6.75 C10.7463203,6.75 11.25,7.25367966 11.25,7.875 Z" id="Shape" fill="color(display-p3 0.000 0.000 0.000)" fill-rule="nonzero"></path>
            <rect id="Rectangle" x="0" y="0" width="24" height="24"></rect>
        </g>
    </g>
</svg>