<?xml version="1.0" encoding="UTF-8"?>
<svg width="24px" height="24px" viewBox="0 0 24 24" version="1.1" xmlns="http://www.w3.org/2000/svg" xmlns:xlink="http://www.w3.org/1999/xlink">
    <title>Scroll</title>
    <g id="Scroll" stroke="none" fill="none" fill-rule="evenodd" stroke-width="1">
        <g id="Group">
            <path d="M9,9.75 C9,9.33578644 9.33578644,9 9.75,9 L15.75,9 C16.1642136,9 16.5,9.33578644 16.5,9.75 C16.5,10.1642136 16.1642136,10.5 15.75,10.5 L9.75,10.5 C9.33578644,10.5 9,10.1642136 9,9.75 Z M9.75,13.5 L15.75,13.5 C16.1642136,13.5 16.5,13.1642136 16.5,12.75 C16.5,12.3357864 16.1642136,12 15.75,12 L9.75,12 C9.33578644,12 9,12.3357864 9,12.75 C9,13.1642136 9.33578644,13.5 9.75,13.5 Z M21.75,18 C21.75,19.6568542 20.4068542,21 18.75,21 L8.25,21 C6.59314575,21 5.25,19.6568542 5.25,18 L5.25,6 C5.25,5.17157288 4.57842712,4.5 3.75,4.5 C2.92157288,4.5 2.25,5.17157288 2.25,6 C2.25,6.538125 2.7028125,6.901875 2.7075,6.905625 L2.7075,6.905625 C2.9619956,7.10147322 3.06356547,7.43761355 2.96010921,7.74162233 C2.85665295,8.04563111 2.57113009,8.25004114 2.25,8.25 C2.08781292,8.25027988 1.93002933,8.19724615 1.8009375,8.0990625 L1.8009375,8.0990625 C1.6921875,8.019375 0.75,7.2759375 0.75,6 C0.75,4.34314575 2.09314575,3 3.75,3 L16.5,3 C18.1568542,3 19.5,4.34314575 19.5,6 L19.5,15.75 L20.25,15.75 C20.4122777,15.75 20.5701779,15.8026334 20.7,15.9 C20.8125,15.980625 21.75,16.7240625 21.75,18 Z M9.024375,16.26375 C9.12949915,15.9534513 9.42240123,15.7460736 9.75,15.75 L18,15.75 L18,6 C18,5.17157288 17.3284271,4.5 16.5,4.5 L6.3459375,4.5 C6.61119314,4.95534923 6.75064195,5.47302461 6.75,4.5 L6.75,18 C6.75,18.8284271 7.42157288,19.5 8.25,19.5 C9.07842712,19.5 9.75,18.8284271 9.75,18 C9.75,17.461875 9.2971875,17.098125 9.2925,17.094375 C9.03008808,16.9066628 8.92123949,16.5694606 9.024375,16.26375 Z M20.25,18 C20.2406239,17.7221217 20.1333753,17.4564905 19.9471875,17.25 L11.1346875,17.25 C11.2100682,17.4928575 11.2483126,17.7457128 11.248125,18 C11.2488434,18.5267389 11.1100786,19.0442766 10.8459375,19.5 L18.75,19.5 C19.5784271,19.5 20.25,18.8284271 20.25,18 Z" id="Shape" fill="color(display-p3 0.000 0.000 0.000)" fill-rule="nonzero"></path>
            <rect id="Rectangle" x="0" y="0" width="24" height="24"></rect>
        </g>
    </g>
</svg>