<svg width="20" height="20" viewBox="0 0 20 20" fill="none" xmlns="http://www.w3.org/2000/svg">
<path d="M15.3031 4.69688C14.2542 3.64793 12.9179 2.93358 11.463 2.64415C10.0081 2.35472 8.5001 2.50322 7.12962 3.07086C5.75915 3.6385 4.58778 4.5998 3.76365 5.83317C2.93951 7.06655 2.49963 8.51662 2.49963 10C2.49963 11.4834 2.93951 12.9335 3.76365 14.1668C4.58778 15.4002 5.75915 16.3615 7.12962 16.9291C8.5001 17.4968 10.0081 17.6453 11.463 17.3559C12.9179 17.0664 14.2542 16.3521 15.3031 15.3031C16.7095 13.8966 17.4996 11.989 17.4996 10C17.4996 8.01097 16.7095 6.10339 15.3031 4.69688ZM12.8656 10.5234L10.9797 12.743L8.11405 12.2203L7.13436 9.47657L9.0203 7.25703L11.8859 7.77969L12.8656 10.5234Z" fill="#4D4A45" style="fill:#4D4A45;fill:color(display-p3 0.3020 0.2902 0.2706);fill-opacity:1;"/>
<path fill-rule="evenodd" clip-rule="evenodd" d="M10 1.875C13.0156 1.875 15.6449 3.51941 17.0469 5.95898C17.0491 5.96312 17.0526 5.96653 17.0547 5.9707C17.7346 7.15849 18.125 8.53334 18.125 10C18.125 14.4873 14.4873 18.125 10 18.125C5.51269 18.125 1.875 14.4873 1.875 10C1.875 8.51412 2.27519 7.12217 2.97168 5.92383C2.97603 5.91672 2.97976 5.90924 2.98438 5.90234C4.39428 3.49364 7.00749 1.875 10 1.875ZM10.4346 16.8594C12.474 16.7321 14.27 15.7158 15.4443 14.1934L9.06641 13.0303L10.4346 16.8594ZM4.27539 13.8076C5.34877 15.4182 7.08355 16.5484 9.0918 16.8135L6.90918 10.7051L4.27539 13.8076ZM12.1562 12.3223L16.1592 13.0537C16.6163 12.1335 16.875 11.0972 16.875 10C16.875 9.07124 16.6893 8.18614 16.3555 7.37793L12.1562 12.3223ZM3.83984 6.94629C3.38285 7.8664 3.125 8.90297 3.125 10C3.125 10.9279 3.30939 11.8125 3.64258 12.6201L7.84277 7.67676L3.83984 6.94629ZM7.84375 9.60449L8.58105 11.6699L10.7354 12.0625L12.1553 10.3926L11.418 8.3291L9.2627 7.93555L7.84375 9.60449ZM13.0889 9.29297L15.7236 6.19141C14.6502 4.5814 12.916 3.45057 10.9082 3.18555L13.0889 9.29297ZM9.56445 3.13965C7.52526 3.26715 5.72791 4.28324 4.55371 5.80566L10.9326 6.96973L9.56445 3.13965Z" fill="#C3BBAC" style="fill:#C3BBAC;fill:color(display-p3 0.7648 0.7349 0.6752);fill-opacity:1;"/>
</svg>
