<svg width="20" height="20" viewBox="0 0 20 20" fill="none" xmlns="http://www.w3.org/2000/svg">
<path d="M17.1042 3.75H2.89583C2.53915 3.75 2.25 4.02982 2.25 4.375V15.625C2.25 15.9702 2.53915 16.25 2.89583 16.25H17.1042C17.4608 16.25 17.75 15.9702 17.75 15.625V4.375C17.75 4.02982 17.4608 3.75 17.1042 3.75Z" fill="#F7F5F2" style="fill:#F7F5F2;fill:color(display-p3 0.9686 0.9608 0.9490);fill-opacity:1;"/>
<path d="M17.1045 3.125C17.7867 3.12517 18.375 3.6656 18.375 4.375V15.625C18.375 16.3344 17.7867 16.8748 17.1045 16.875H2.89551C2.21326 16.8748 1.625 16.3344 1.625 15.625V4.375C1.625 3.6656 2.21326 3.12517 2.89551 3.125H17.1045ZM2.88086 4.37793C2.87849 4.37895 2.87639 4.37976 2.875 4.38086V15.6182C2.87642 15.6194 2.8782 15.6209 2.88086 15.6221C2.88391 15.6233 2.88877 15.625 2.89551 15.625H17.1045C17.1112 15.625 17.1161 15.6233 17.1191 15.6221C17.1218 15.6209 17.1236 15.6194 17.125 15.6182V4.38086C17.1236 4.37976 17.1215 4.37895 17.1191 4.37793C17.1161 4.37668 17.1112 4.37504 17.1045 4.375H2.89551C2.88877 4.37504 2.88391 4.37668 2.88086 4.37793Z" fill="#2B2B2B" style="fill:#2B2B2B;fill:color(display-p3 0.16863 0.16863 0.16863);fill-opacity:1;"/>
<path d="M9 8C9.55228 8 10 7.55228 10 7C10 6.44772 9.55228 6 9 6C8.44772 6 8 6.44772 8 7C8 7.55228 8.44772 8 9 8Z" fill="#B79432" style="fill:#B79432;fill:color(display-p3 0.7176 0.5804 0.1961);fill-opacity:1;"/>
<path d="M12.5 8C13.0523 8 13.5 7.55228 13.5 7C13.5 6.44772 13.0523 6 12.5 6C11.9477 6 11.5 6.44772 11.5 7C11.5 7.55228 11.9477 8 12.5 8Z" fill="#7A8C35" style="fill:#7A8C35;fill:color(display-p3 0.4784 0.5490 0.2078);fill-opacity:1;"/>
<path d="M5.5 8C6.05228 8 6.5 7.55228 6.5 7C6.5 6.44772 6.05228 6 5.5 6C4.94772 6 4.5 6.44772 4.5 7C4.5 7.55228 4.94772 8 5.5 8Z" fill="#B1483C" style="fill:#B1483C;fill:color(display-p3 0.6941 0.2824 0.2353);fill-opacity:1;"/>
</svg>
