<svg width="20" height="20" viewBox="0 0 20 20" fill="none" xmlns="http://www.w3.org/2000/svg">
<path d="M13.75 2.5H6.25C5.25544 2.5 4.30161 2.89509 3.59835 3.59835C2.89509 4.30161 2.5 5.25544 2.5 6.25V13.75C2.5 14.7446 2.89509 15.6984 3.59835 16.4017C4.30161 17.1049 5.25544 17.5 6.25 17.5H13.75C14.7446 17.5 15.6984 17.1049 16.4017 16.4017C17.1049 15.6984 17.5 14.7446 17.5 13.75V6.25C17.5 5.25544 17.1049 4.30161 16.4017 3.59835C15.6984 2.89509 14.7446 2.5 13.75 2.5ZM10 13.125C9.38193 13.125 8.77775 12.9417 8.26384 12.5983C7.74994 12.255 7.3494 11.7669 7.11288 11.1959C6.87635 10.6249 6.81447 9.99653 6.93505 9.39034C7.05562 8.78415 7.35325 8.22733 7.79029 7.79029C8.22733 7.35325 8.78415 7.05562 9.39034 6.93505C9.99653 6.81447 10.6249 6.87635 11.1959 7.11288C11.7669 7.3494 12.255 7.74994 12.5983 8.26384C12.9417 8.77775 13.125 9.38193 13.125 10C13.125 10.8288 12.7958 11.6237 12.2097 12.2097C11.6237 12.7958 10.8288 13.125 10 13.125Z" fill="#532C14" style="fill:#532C14;fill:color(display-p3 0.3255 0.1725 0.0784);fill-opacity:1;"/>
<path d="M10 13.125C11.7259 13.125 13.125 11.7259 13.125 10C13.125 8.27411 11.7259 6.875 10 6.875C8.27411 6.875 6.875 8.27411 6.875 10C6.875 11.7259 8.27411 13.125 10 13.125Z" fill="#203A63" style="fill:#203A63;fill:color(display-p3 0.1255 0.2275 0.3882);fill-opacity:1;"/>
<path d="M16.875 6.25C16.875 4.52411 15.4759 3.125 13.75 3.125H6.25C4.52411 3.125 3.125 4.52411 3.125 6.25V13.75C3.125 15.4759 4.52411 16.875 6.25 16.875H13.75C15.4759 16.875 16.875 15.4759 16.875 13.75V6.25ZM18.125 13.75C18.125 16.1662 16.1662 18.125 13.75 18.125H6.25C3.83375 18.125 1.875 16.1662 1.875 13.75V6.25C1.875 3.83375 3.83375 1.875 6.25 1.875H13.75C16.1662 1.875 18.125 3.83375 18.125 6.25V13.75Z" fill="#C3BBAC" style="fill:#C3BBAC;fill:color(display-p3 0.7648 0.7349 0.6752);fill-opacity:1;"/>
<path d="M12.5 10C12.5 8.61929 11.3807 7.5 10 7.5C8.61929 7.5 7.5 8.61929 7.5 10C7.5 11.3807 8.61929 12.5 10 12.5C11.3807 12.5 12.5 11.3807 12.5 10ZM13.75 10C13.75 12.0711 12.0711 13.75 10 13.75C7.92893 13.75 6.25 12.0711 6.25 10C6.25 7.92893 7.92893 6.25 10 6.25C12.0711 6.25 13.75 7.92893 13.75 10Z" fill="#C3BBAC" style="fill:#C3BBAC;fill:color(display-p3 0.7648 0.7349 0.6752);fill-opacity:1;"/>
</svg>
