<svg width="20" height="20" viewBox="0 0 20 20" fill="none" xmlns="http://www.w3.org/2000/svg">
<path d="M8.75 5.625H3.75V14.375H8.75V5.625Z" fill="#F2B5A5" style="fill:#F2B5A5;fill:color(display-p3 0.9490 0.7098 0.6471);fill-opacity:1;"/>
<path d="M10.921 8.35936L15.8007 7.31092L14.8937 2.9992C14.877 2.91849 14.8446 2.84186 14.7982 2.77373C14.7519 2.7056 14.6925 2.64731 14.6235 2.60222C14.5545 2.55713 14.4773 2.52613 14.3963 2.51099C14.3153 2.49586 14.2321 2.4969 14.1515 2.51405L10.4945 3.2953C10.3319 3.33122 10.1901 3.43 10.1001 3.57007C10.0101 3.71015 9.97911 3.88014 10.014 4.04295L10.921 8.35936Z" fill="#CED59E" style="fill:#CED59E;fill:color(display-p3 0.8078 0.8353 0.6196);fill-opacity:1;"/>
<path d="M17.4861 15.3282C17.4947 15.3689 17.4993 15.4101 17.4997 15.4512C17.5009 15.5331 17.4857 15.6143 17.4558 15.6905C17.4407 15.7287 17.4216 15.7658 17.3991 15.8008L17.323 15.8975C17.2434 15.98 17.142 16.0378 17.03 16.0674C17.0219 16.0696 17.0138 16.0734 17.0056 16.0753L13.3484 16.8565L13.2263 16.8702C13.1853 16.8707 13.1437 16.867 13.1032 16.8594C13.0628 16.8518 13.0232 16.8404 12.9851 16.8253C12.9472 16.81 12.911 16.791 12.8767 16.7686C12.8078 16.7236 12.7482 16.6657 12.7019 16.5977C12.6786 16.5635 12.6593 16.5263 12.6433 16.4883C12.6274 16.4505 12.6145 16.4114 12.6062 16.3712L12.4372 15.5704L12.2956 14.8936L17.1736 13.8448L17.4861 15.3282Z" fill="#CED59E" style="fill:#CED59E;fill:color(display-p3 0.8078 0.8353 0.6196);fill-opacity:1;"/>
<path fill-rule="evenodd" clip-rule="evenodd" d="M8.125 2.50017C8.81536 2.50017 9.375 3.05981 9.375 3.75017V16.2502C9.37491 16.9404 8.8153 17.5002 8.125 17.5002H4.375C3.6847 17.5002 3.12509 16.9404 3.125 16.2502V3.75017C3.125 3.05981 3.68464 2.50017 4.375 2.50017H8.125ZM4.375 16.2502H8.125V15.0002H4.375V16.2502ZM4.375 13.7502H8.125V6.25017H4.375V13.7502ZM4.375 5.00017H8.125V3.75017H4.375V5.00017Z" fill="#2B2B2B" style="fill:#2B2B2B;fill:color(display-p3 0.16863 0.16863 0.16863);fill-opacity:1;"/>
<path fill-rule="evenodd" clip-rule="evenodd" d="M14.0215 1.90642C14.1825 1.87216 14.3489 1.87038 14.5107 1.90056C14.6727 1.93081 14.8279 1.99306 14.9658 2.08318C15.1035 2.17325 15.2218 2.28996 15.3145 2.42595C15.4066 2.56141 15.4714 2.71381 15.5049 2.87419L15.8906 4.71013C15.8912 4.71269 15.893 4.71537 15.8936 4.71794C15.8941 4.72044 15.8931 4.72325 15.8936 4.72575L16.4072 7.16911C16.4083 7.17378 16.4111 7.17807 16.4121 7.18279C16.413 7.18709 16.4123 7.19216 16.4131 7.19646L18.0977 15.1994C18.1663 15.5229 18.1046 15.8606 17.9258 16.1388C17.7466 16.4177 17.4642 16.6141 17.1406 16.6857L17.1357 16.6867L13.4785 17.4679C13.3175 17.5022 13.1511 17.504 12.9893 17.4738C12.8273 17.4435 12.6721 17.3823 12.5342 17.2922C12.3963 17.202 12.2773 17.0846 12.1846 16.9484C12.0923 16.8127 12.0274 16.6599 11.9941 16.4992L10.3115 8.50017C10.311 8.49801 10.31 8.4955 10.3096 8.49333C10.309 8.49046 10.3092 8.48742 10.3086 8.48454L9.40234 4.17497L9.40332 4.174C9.33508 3.85085 9.39562 3.51344 9.57422 3.23552C9.75342 2.95683 10.0359 2.76021 10.3594 2.68864L10.3643 2.68767L14.0215 1.90642ZM12.957 15.006L13.2178 16.2433L16.8691 15.465C16.8705 15.4647 16.8732 15.4642 16.874 15.4631C16.8747 15.462 16.8752 15.4604 16.875 15.4592L16.874 15.4562L16.6133 14.2199L12.957 15.006ZM11.6602 8.84196L12.6992 13.7834L16.3564 12.9972L15.3174 8.05681L11.6602 8.84196ZM11.1426 6.37712L11.4033 7.61833L15.0596 6.83318L14.7988 5.59099L11.1426 6.37712ZM10.6279 3.90935L10.626 3.9113L10.625 3.91618L10.626 3.91814L10.8857 5.15349L14.542 4.36833L14.2822 3.132L14.2812 3.12907L10.6279 3.90935Z" fill="#2B2B2B" style="fill:#2B2B2B;fill:color(display-p3 0.16863 0.16863 0.16863);fill-opacity:1;"/>
</svg>
