<svg width="20" height="20" viewBox="0 0 20 20" fill="none" xmlns="http://www.w3.org/2000/svg">
<path d="M17.4609 14.5313C17.9077 13.6971 18.1369 12.7636 18.1271 11.8173C18.1174 10.871 17.869 9.94251 17.4051 9.1177C16.9411 8.29289 16.2766 7.59846 15.473 7.09869C14.6694 6.59892 13.7527 6.30998 12.8078 6.25861C13.1061 7.10691 13.1968 8.01438 13.0721 8.90494C12.9474 9.7955 12.611 10.6432 12.0912 11.3769C11.5713 12.1107 10.8831 12.7091 10.0842 13.122C9.28539 13.5349 8.3992 13.7502 7.49995 13.75C7.39683 13.75 7.29448 13.75 7.19214 13.7414C7.46162 14.5069 7.89344 15.2051 8.45801 15.7881C9.02257 16.3711 9.70652 16.8251 10.463 17.119C11.2194 17.413 12.0305 17.5398 12.8406 17.491C13.6506 17.4421 14.4406 17.2187 15.1562 16.8359L17.325 17.4734C17.4326 17.5051 17.5469 17.5071 17.6556 17.4794C17.7644 17.4516 17.8636 17.3951 17.943 17.3157C18.0224 17.2364 18.0789 17.1371 18.1066 17.0283C18.1344 16.9196 18.1324 16.8054 18.1007 16.6977L17.4609 14.5313Z" fill="#AFDCCF" style="fill:#AFDCCF;fill:color(display-p3 0.6863 0.8627 0.8118);fill-opacity:1;"/>
<path d="M2.53907 10.7813C1.90239 9.59183 1.71442 8.21318 2.00943 6.89671C2.30444 5.58025 3.06277 4.41366 4.14615 3.60967C5.22954 2.80568 6.56579 2.41785 7.91127 2.5169C9.25675 2.61594 10.5218 3.19527 11.4758 4.14924C12.4297 5.10321 13.0091 6.36827 13.1081 7.71375C13.2072 9.05922 12.8193 10.3955 12.0154 11.4789C11.2114 12.5622 10.0448 13.3206 8.7283 13.6156C7.41184 13.9106 6.03319 13.7226 4.84375 13.086L2.675 13.7235C2.56731 13.7551 2.4531 13.7571 2.34434 13.7294C2.23559 13.7016 2.13632 13.6451 2.05696 13.5657C1.97759 13.4864 1.92107 13.3871 1.89331 13.2783C1.86556 13.1696 1.8676 13.0554 1.89922 12.9477L2.53907 10.7813Z" fill="#F3C399" style="fill:#F3C399;fill:color(display-p3 0.9529 0.7647 0.6000);fill-opacity:1;"/>
<path fill-rule="evenodd" clip-rule="evenodd" d="M3.77373 3.10816C4.97747 2.21485 6.46237 1.78328 7.95732 1.89332C9.45224 2.00339 10.8573 2.64785 11.9173 3.70777C12.4851 4.27558 12.9324 4.94302 13.2435 5.66968C14.1506 5.77803 15.0255 6.08396 15.804 6.56812C16.6966 7.12339 17.4351 7.89505 17.9505 8.81129C18.4659 9.72768 18.7414 10.76 18.7522 11.8113C18.7621 12.7741 18.5464 13.7235 18.1292 14.5886L18.6985 16.5242C18.7617 16.7394 18.7657 16.968 18.7103 17.1853C18.6548 17.4026 18.5416 17.6009 18.3831 17.7595C18.2245 17.9182 18.0253 18.0321 17.8079 18.0877C17.5907 18.143 17.3619 18.1381 17.1468 18.075L15.2151 17.5046C14.484 17.8568 13.691 18.0659 12.8792 18.115C11.9795 18.1693 11.0778 18.0282 10.2376 17.7019C9.39723 17.3754 8.63629 16.8701 8.00908 16.2224C7.47711 15.673 7.05199 15.0309 6.75224 14.3298C6.07264 14.2479 5.40664 14.0558 4.78252 13.7546L2.85088 14.323C2.63558 14.3862 2.40715 14.3902 2.18974 14.3347C1.97241 14.2792 1.77417 14.1662 1.61553 14.0076C1.4569 13.8489 1.34294 13.6507 1.2874 13.4334C1.2319 13.2159 1.23588 12.9866 1.29912 12.7712L1.3001 12.7703L1.87041 10.8416C1.25948 9.57515 1.09122 8.13755 1.39971 6.7605C1.72747 5.29786 2.57009 4.00148 3.77373 3.10816ZM13.6458 7.00953C13.6853 7.22652 13.7154 7.44595 13.7317 7.66773C13.8418 9.1627 13.4102 10.6476 12.5169 11.8513C11.6236 13.055 10.3272 13.8976 8.86455 14.2253C8.62805 14.2783 8.38958 14.3155 8.15068 14.3406C8.3588 14.7076 8.61235 15.0485 8.90752 15.3533C9.40936 15.8714 10.0174 16.2756 10.6897 16.5369C11.362 16.798 12.0832 16.9103 12.803 16.8669C13.5229 16.8235 14.2257 16.625 14.8616 16.2849L14.9749 16.238C15.0907 16.2029 15.2155 16.2014 15.3333 16.2361L17.4983 16.8757L16.8616 14.7078C16.8153 14.5504 16.833 14.3807 16.9104 14.2361C17.3075 13.4947 17.5109 12.665 17.5022 11.824C17.4936 10.9829 17.273 10.1567 16.8606 9.42359C16.4484 8.69085 15.8577 8.07376 15.1438 7.62964C14.6803 7.34137 14.1735 7.13358 13.6458 7.00953ZM7.86553 3.14039C6.66971 3.05237 5.48177 3.39662 4.51885 4.11109C3.55598 4.82566 2.88172 5.86296 2.61943 7.03296C2.35722 8.20308 2.52429 9.42886 3.09014 10.4861C3.16767 10.6309 3.1855 10.8012 3.13896 10.9587L2.49834 13.1228L4.66728 12.4861C4.82463 12.4398 4.99437 12.4575 5.13896 12.5349C5.78743 12.882 6.49941 13.0779 7.22295 13.1179C7.22752 13.1182 7.23206 13.1186 7.23662 13.1189C7.68823 13.1426 8.14421 13.106 8.59209 13.0056C9.7621 12.7433 10.7994 12.0691 11.514 11.1062C12.2284 10.1433 12.5727 8.95536 12.4847 7.75953C12.3966 6.5636 11.8814 5.4395 11.0335 4.59156C10.1856 3.74364 9.06144 3.22845 7.86553 3.14039Z" fill="#2B2B2B" style="fill:#2B2B2B;fill:color(display-p3 0.16863 0.16863 0.16863);fill-opacity:1;"/>
</svg>
