<svg width="20" height="20" viewBox="0 0 20 20" fill="none" xmlns="http://www.w3.org/2000/svg">
<rect x="3.75" y="3.75" width="12.5" height="12.5" rx="0.5" fill="#CED59E" style="fill:#CED59E;fill:color(display-p3 0.8078 0.8353 0.6196);fill-opacity:1;"/>
<path d="M4.55757 2.05763C4.80165 1.81355 5.19826 1.81355 5.44234 2.05763C5.68641 2.30171 5.68641 2.69832 5.44234 2.9424L3.38472 5.00001L5.44234 7.05763C5.68641 7.30171 5.68641 7.69832 5.44234 7.9424C5.19826 8.18647 4.80165 8.18647 4.55757 7.9424L2.05757 5.4424C1.81349 5.19832 1.81349 4.80171 2.05757 4.55763L4.55757 2.05763Z" fill="#2B2B2B" style="fill:#2B2B2B;fill:color(display-p3 0.16863 0.16863 0.16863);fill-opacity:1;"/>
<path d="M7.68257 2.05763C7.92665 1.81355 8.32326 1.81355 8.56734 2.05763L11.0673 4.55763C11.3114 4.80171 11.3114 5.19832 11.0673 5.4424L8.56734 7.9424C8.32326 8.18647 7.92665 8.18647 7.68257 7.9424C7.43849 7.69832 7.43849 7.30171 7.68257 7.05763L9.74019 5.00001L7.68257 2.9424C7.43849 2.69832 7.43849 2.30171 7.68257 2.05763Z" fill="#2B2B2B" style="fill:#2B2B2B;fill:color(display-p3 0.16863 0.16863 0.16863);fill-opacity:1;"/>
<path d="M3.12495 15.625V10.625C3.12495 10.2798 3.40477 10 3.74995 10C4.09513 10 4.37495 10.2798 4.37495 10.625V15.625H15.625V4.37501H13.75C13.4048 4.37501 13.125 4.09519 13.125 3.75001C13.125 3.40484 13.4048 3.12501 13.75 3.12501H15.625C15.9565 3.12501 16.2743 3.2568 16.5087 3.49122C16.7432 3.72565 16.875 4.04349 16.875 4.37501V15.625C16.875 15.9565 16.7432 16.2744 16.5087 16.5088C16.2743 16.7432 15.9565 16.875 15.625 16.875H4.37495C4.04343 16.875 3.72558 16.7432 3.49116 16.5088C3.25674 16.2744 3.12495 15.9565 3.12495 15.625Z" fill="#2B2B2B" style="fill:#2B2B2B;fill:color(display-p3 0.16863 0.16863 0.16863);fill-opacity:1;"/>
</svg>
