<svg width="20" height="20" viewBox="0 0 20 20" fill="none" xmlns="http://www.w3.org/2000/svg">
<path d="M6.50781 16.875C5.31162 16.3261 4.29811 15.4454 3.58767 14.3375C2.87723 13.2296 2.49973 11.9411 2.5 10.625L2.5 9.5H16.25V10.625C16.2503 11.9411 15.8728 13.2296 15.1623 14.3375C14.4519 15.4454 13.4384 16.3261 12.2422 16.875H6.50781Z" fill="#B6AAA1" style="fill:#B6AAA1;fill:color(display-p3 0.7137 0.6667 0.6314);fill-opacity:1;"/>
<path fill-rule="evenodd" clip-rule="evenodd" d="M16.25 6.25L16.4043 6.25391C17.1767 6.29214 17.9105 6.61566 18.46 7.16504C19.0459 7.75107 19.375 8.54628 19.375 9.375V10C19.375 10.8287 19.0459 11.6239 18.46 12.21C17.9209 12.7489 17.2045 13.069 16.4482 13.1172C16.2567 13.6613 16.0029 14.1844 15.6885 14.6748C15.3112 15.2632 14.8548 15.7922 14.3359 16.25H16.25C16.5952 16.25 16.875 16.5298 16.875 16.875C16.875 17.2202 16.5952 17.5 16.25 17.5H2.5C2.15482 17.5 1.875 17.2202 1.875 16.875C1.875 16.5298 2.15482 16.25 2.5 16.25H4.41406C3.8952 15.7922 3.43883 15.2632 3.06152 14.6748C2.33495 13.5417 1.9277 12.2354 1.87988 10.8936L1.875 10.625V6.875C1.875 6.52982 2.15482 6.25 2.5 6.25H16.25ZM3.125 10.625C3.12475 11.8215 3.46841 12.9928 4.11426 14C4.7365 14.9703 5.61458 15.7482 6.65039 16.25H12.0996C13.1354 15.7482 14.0135 14.9703 14.6357 14C14.9586 13.4965 15.2055 12.9519 15.3721 12.3838C15.3764 12.3606 15.3847 12.3386 15.3916 12.3164C15.5456 11.7686 15.6251 11.1998 15.625 10.625V7.5H3.125V10.625ZM16.875 10.625L16.8701 10.8936C16.8593 11.1971 16.8284 11.4986 16.7812 11.7969C17.0786 11.709 17.3531 11.5492 17.5762 11.3262C17.9277 10.9746 18.125 10.4972 18.125 10V9.375C18.125 8.87781 17.9277 8.40044 17.5762 8.04883C17.3768 7.84951 17.1359 7.70168 16.875 7.60938V10.625Z" fill="#2B2B2B" style="fill:#2B2B2B;fill:color(display-p3 0.16863 0.16863 0.16863);fill-opacity:1;"/>
<path d="M6.875 1.25C7.22018 1.25 7.5 1.52982 7.5 1.875V4.375C7.5 4.72018 7.22018 5 6.875 5C6.52982 5 6.25 4.72018 6.25 4.375V1.875C6.25 1.52982 6.52982 1.25 6.875 1.25Z" fill="#2B2B2B" style="fill:#2B2B2B;fill:color(display-p3 0.16863 0.16863 0.16863);fill-opacity:1;"/>
<path d="M9.375 1.25C9.72018 1.25 10 1.52982 10 1.875V4.375C10 4.72018 9.72018 5 9.375 5C9.02982 5 8.75 4.72018 8.75 4.375V1.875C8.75 1.52982 9.02982 1.25 9.375 1.25Z" fill="#2B2B2B" style="fill:#2B2B2B;fill:color(display-p3 0.16863 0.16863 0.16863);fill-opacity:1;"/>
<path d="M11.875 1.25C12.2202 1.25 12.5 1.52982 12.5 1.875V4.375C12.5 4.72018 12.2202 5 11.875 5C11.5298 5 11.25 4.72018 11.25 4.375V1.875C11.25 1.52982 11.5298 1.25 11.875 1.25Z" fill="#2B2B2B" style="fill:#2B2B2B;fill:color(display-p3 0.16863 0.16863 0.16863);fill-opacity:1;"/>
</svg>
