<svg width="20" height="20" viewBox="0 0 20 20" fill="none" xmlns="http://www.w3.org/2000/svg">
<path d="M9.375 3.75V1.875C9.375 1.52982 9.65482 1.25 10 1.25C10.3452 1.25 10.625 1.52982 10.625 1.875V3.75C10.625 4.09518 10.3452 4.375 10 4.375C9.65482 4.375 9.375 4.09518 9.375 3.75Z" fill="#B79432" style="fill:#B79432;fill:color(display-p3 0.7176 0.5804 0.1961);fill-opacity:1;"/>
<path fill-rule="evenodd" clip-rule="evenodd" d="M9.99971 3.125C11.7256 3.125 13.1247 4.52411 13.1247 6.25C13.1247 7.29894 12.6061 8.22423 11.8132 8.79102L15.571 17.2461C15.7112 17.5615 15.569 17.9311 15.2536 18.0713C14.9383 18.2113 14.5686 18.0692 14.4284 17.7539L10.6716 9.30078C10.4551 9.34821 10.2304 9.375 9.99971 9.375C9.7686 9.37498 9.54368 9.3484 9.32686 9.30078L5.571 17.7539C5.43077 18.0692 5.06119 18.2115 4.74581 18.0713C4.43062 17.931 4.28837 17.5614 4.42843 17.2461L8.18526 8.79102C7.39296 8.22416 6.87471 7.2985 6.87471 6.25C6.87471 4.5242 8.27395 3.12515 9.99971 3.125ZM9.99971 4.375C8.96431 4.37515 8.12471 5.21456 8.12471 6.25C8.12471 7.28544 8.96431 8.12485 9.99971 8.125C11.0352 8.125 11.8747 7.28553 11.8747 6.25C11.8747 5.21447 11.0352 4.375 9.99971 4.375Z" fill="#C3BBAC" style="fill:#C3BBAC;fill:color(display-p3 0.7648 0.7349 0.6752);fill-opacity:1;"/>
<path d="M15.6934 9.0908C15.8505 8.78361 16.227 8.66147 16.5342 8.81834C16.8414 8.97544 16.9636 9.35191 16.8067 9.65916C15.56 12.0969 12.9032 13.749 10 13.749C8.95047 13.7504 7.91229 13.5317 6.95317 13.1054C6.63779 12.9652 6.4956 12.5957 6.63579 12.2803C6.77602 11.965 7.14563 11.8228 7.46098 11.9629C8.25997 12.318 9.12472 12.5012 9.99907 12.5H10C12.4405 12.5 14.6635 11.1044 15.6934 9.0908Z" fill="#B79432" style="fill:#B79432;fill:color(display-p3 0.7176 0.5804 0.1961);fill-opacity:1;"/>
</svg>
