<svg width="20" height="20" viewBox="0 0 20 20" fill="none" xmlns="http://www.w3.org/2000/svg">
<path d="M13.3933 3.05371L12.4837 7.33311L16.7631 8.24272L13.3933 3.05371Z" fill="#4D4A45" style="fill:#4D4A45;fill:color(display-p3 0.3020 0.2902 0.2706);fill-opacity:1;"/>
<path d="M7.14173 13.2263C7.47936 13.298 7.69489 13.6299 7.62312 13.9675C7.55136 14.3052 7.21947 14.5207 6.88184 14.4489L5.65915 14.189C5.32152 14.1173 5.10599 13.7854 5.17776 13.4478C5.24952 13.1101 5.58141 12.8946 5.91904 12.9664L7.14173 13.2263Z" fill="#C3BBAC" style="fill:#C3BBAC;fill:color(display-p3 0.7648 0.7349 0.6752);fill-opacity:1;"/>
<path d="M12.5215 14.3698C12.8592 14.4415 13.0747 14.7734 13.0029 15.1111C12.9312 15.4487 12.5993 15.6642 12.2616 15.5925L9.57174 15.0207C9.23411 14.9489 9.01858 14.617 9.09035 14.2794C9.16211 13.9418 9.494 13.7262 9.83163 13.798L12.5215 14.3698Z" fill="#C3BBAC" style="fill:#C3BBAC;fill:color(display-p3 0.7648 0.7349 0.6752);fill-opacity:1;"/>
<path d="M13.4301 10.0951C13.7677 10.1669 13.9832 10.4988 13.9115 10.8364C13.8398 11.1741 13.5079 11.3896 13.1702 11.3178L10.4803 10.7461C10.1427 10.6743 9.92718 10.3424 9.99894 10.0048C10.0708 9.66722 10.4026 9.45163 10.7402 9.52339L13.4301 10.0951Z" fill="#C3BBAC" style="fill:#C3BBAC;fill:color(display-p3 0.7648 0.7349 0.6752);fill-opacity:1;"/>
<path d="M8.05134 8.94686C8.38898 9.01862 8.60451 9.35051 8.53274 9.68814C8.46097 10.0258 8.12909 10.2413 7.79145 10.1695L6.56877 9.90965C6.23113 9.83789 6.0156 9.506 6.08737 9.16836C6.15914 8.83073 6.49102 8.6152 6.82866 8.68697L8.05134 8.94686Z" fill="#C3BBAC" style="fill:#C3BBAC;fill:color(display-p3 0.7648 0.7349 0.6752);fill-opacity:1;"/>
<path d="M9.9391 4.87537C10.2767 4.94714 10.4923 5.27902 10.4205 5.61666C10.3487 5.95429 10.0168 6.16982 9.67921 6.09806L7.47838 5.63026C7.14075 5.55849 6.92522 5.2266 6.99698 4.88897C7.06875 4.55133 7.40064 4.3358 7.73827 4.40757L9.9391 4.87537Z" fill="#C3BBAC" style="fill:#C3BBAC;fill:color(display-p3 0.7648 0.7349 0.6752);fill-opacity:1;"/>
<path fill-rule="evenodd" clip-rule="evenodd" d="M13.5233 2.4424C13.6452 2.46831 13.7556 2.52992 13.8414 2.61784C13.8569 2.63383 13.8696 2.65218 13.8833 2.66968C13.8947 2.6842 13.9079 2.69739 13.918 2.713L17.2878 7.90201C17.3781 8.04103 17.4089 8.21055 17.3744 8.37269L15.2953 18.1542C15.2264 18.4784 15.0314 18.7619 14.7534 18.9425C14.4753 19.1231 14.137 19.1859 13.8128 19.117L2.8086 16.778C2.48432 16.709 2.20082 16.514 2.02026 16.236C1.8397 15.958 1.77688 15.6197 1.8458 15.2954L4.70459 1.84585C4.77352 1.52158 4.96851 1.23808 5.24655 1.05752C5.52458 0.876958 5.86289 0.814131 6.18716 0.883059L13.5233 2.4424ZM3.06849 15.5553L14.0726 17.8943L16.0218 8.72415L12.3538 7.94448C12.0161 7.87271 11.8006 7.54082 11.8724 7.20319L12.652 3.53514L5.92727 2.10574L3.06849 15.5553ZM13.225 6.85174L15.4163 7.31751L13.6908 4.66046L13.225 6.85174Z" fill="#C3BBAC" style="fill:#C3BBAC;fill:color(display-p3 0.7648 0.7349 0.6752);fill-opacity:1;"/>
</svg>
