<svg width="20" height="20" viewBox="0 0 20 20" fill="none" xmlns="http://www.w3.org/2000/svg">
<path d="M13.3934 3.05371L12.4838 7.33311L16.7631 8.24272L13.3934 3.05371Z" fill="#C8BEB5" style="fill:#C8BEB5;fill:color(display-p3 0.7843 0.7451 0.7098);fill-opacity:1;"/>
<path d="M7.14177 13.2263C7.4794 13.298 7.69493 13.6299 7.62316 13.9675C7.5514 14.3052 7.21951 14.5207 6.88188 14.4489L5.65919 14.189C5.32156 14.1173 5.10603 13.7854 5.17779 13.4478C5.24956 13.1101 5.58145 12.8946 5.91908 12.9664L7.14177 13.2263Z" fill="#2B2B2B" style="fill:#2B2B2B;fill:color(display-p3 0.16863 0.16863 0.16863);fill-opacity:1;"/>
<path d="M12.5216 14.3698C12.8592 14.4415 13.0747 14.7734 13.003 15.1111C12.9312 15.4487 12.5993 15.6642 12.2617 15.5925L9.57178 15.0207C9.23415 14.9489 9.01862 14.617 9.09038 14.2794C9.16215 13.9418 9.49404 13.7262 9.83167 13.798L12.5216 14.3698Z" fill="#2B2B2B" style="fill:#2B2B2B;fill:color(display-p3 0.16863 0.16863 0.16863);fill-opacity:1;"/>
<path d="M13.4302 10.0951C13.7678 10.1669 13.9833 10.4988 13.9116 10.8364C13.8398 11.1741 13.5079 11.3896 13.1703 11.3178L10.4804 10.7461C10.1427 10.6743 9.92722 10.3424 9.99898 10.0048C10.0708 9.66722 10.4027 9.45163 10.7403 9.52339L13.4302 10.0951Z" fill="#2B2B2B" style="fill:#2B2B2B;fill:color(display-p3 0.16863 0.16863 0.16863);fill-opacity:1;"/>
<path d="M8.05138 8.94686C8.38901 9.01862 8.60454 9.35051 8.53278 9.68814C8.46101 10.0258 8.12912 10.2413 7.79149 10.1695L6.56881 9.90965C6.23117 9.83789 6.01564 9.506 6.08741 9.16836C6.15917 8.83073 6.49106 8.6152 6.82869 8.68697L8.05138 8.94686Z" fill="#2B2B2B" style="fill:#2B2B2B;fill:color(display-p3 0.16863 0.16863 0.16863);fill-opacity:1;"/>
<path d="M9.93914 4.87537C10.2768 4.94714 10.4923 5.27902 10.4205 5.61666C10.3488 5.95429 10.0169 6.16982 9.67925 6.09806L7.47842 5.63026C7.14078 5.55849 6.92525 5.2266 6.99702 4.88897C7.06879 4.55133 7.40067 4.3358 7.73831 4.40757L9.93914 4.87537Z" fill="#2B2B2B" style="fill:#2B2B2B;fill:color(display-p3 0.16863 0.16863 0.16863);fill-opacity:1;"/>
<path fill-rule="evenodd" clip-rule="evenodd" d="M13.5233 2.4424C13.6452 2.46831 13.7556 2.52992 13.8414 2.61784C13.857 2.63383 13.8696 2.65218 13.8833 2.66968C13.8947 2.6842 13.9079 2.69739 13.9181 2.713L17.2878 7.90201C17.3781 8.04103 17.409 8.21055 17.3745 8.37269L15.2954 18.1542C15.2264 18.4784 15.0314 18.7619 14.7534 18.9425C14.4754 19.1231 14.1371 19.1859 13.8128 19.117L2.80864 16.778C2.48436 16.709 2.20086 16.514 2.0203 16.236C1.83974 15.958 1.77691 15.6197 1.84584 15.2954L4.70463 1.84585C4.77355 1.52158 4.96855 1.23808 5.24658 1.05752C5.52462 0.876958 5.86292 0.814131 6.1872 0.883059L13.5233 2.4424ZM3.06852 15.5553L14.0727 17.8943L16.0219 8.72415L12.3538 7.94448C12.0162 7.87271 11.8006 7.54082 11.8724 7.20319L12.6521 3.53514L5.92731 2.10574L3.06852 15.5553ZM13.225 6.85174L15.4163 7.31751L13.6908 4.66046L13.225 6.85174Z" fill="#2B2B2B" style="fill:#2B2B2B;fill:color(display-p3 0.16863 0.16863 0.16863);fill-opacity:1;"/>
</svg>
