<svg width="20" height="20" viewBox="0 0 20 20" fill="none" xmlns="http://www.w3.org/2000/svg">
<path d="M9.0234 7.20233L5.28981 5.04608L2.95699 5.66171C2.87922 5.68151 2.80615 5.71657 2.74203 5.76483C2.6779 5.8131 2.624 5.87362 2.58345 5.94288C2.5429 6.01214 2.5165 6.08876 2.50579 6.1683C2.49508 6.24784 2.50027 6.32872 2.52106 6.40624L3.15856 8.74999L9.0234 7.20233Z" fill="#404C16" style="fill:#404C16;fill:color(display-p3 0.2510 0.2980 0.0863);fill-opacity:1;"/>
<path d="M5.29004 5.0459L9.02344 7.20215L13.625 5.9873L9.8916 3.83203L5.29004 5.0459Z" fill="#203A63" style="fill:#203A63;fill:color(display-p3 0.1255 0.2275 0.3882);fill-opacity:1;"/>
<path d="M9.89136 3.83201L13.625 5.98748L16.25 5.29451L15.6125 2.95076C15.5685 2.79431 15.4645 2.66152 15.3233 2.58121C15.182 2.50091 15.0147 2.47958 14.8578 2.52186L9.89136 3.83201Z" fill="#632620" style="fill:#632620;fill:color(display-p3 0.3882 0.1490 0.1255);fill-opacity:1;"/>
<path fill-rule="evenodd" clip-rule="evenodd" d="M14.698 1.91883C14.9733 1.84545 15.2641 1.86858 15.5223 1.98328L15.6316 2.03797L15.7342 2.1034C15.9329 2.2437 16.0861 2.43936 16.1746 2.6659L16.2137 2.78211L16.2146 2.78699L16.8523 5.13074C16.896 5.29142 16.8741 5.4631 16.7908 5.6073C16.7075 5.75135 16.5699 5.85682 16.409 5.8993L7.97636 8.12488H16.8748C17.2199 8.12488 17.4997 8.40475 17.4998 8.74988V15.6249C17.4998 15.9564 17.368 16.2743 17.1336 16.5087C16.8992 16.7431 16.5813 16.8749 16.2498 16.8749H3.7498C3.41833 16.8748 3.10039 16.7431 2.86601 16.5087C2.63167 16.2743 2.4998 15.9563 2.4998 15.6249V8.74988C2.4998 8.7407 2.50136 8.73162 2.50175 8.72254L1.91777 6.5702L1.91679 6.56824C1.87463 6.41095 1.86385 6.24623 1.88554 6.08484L1.908 5.9657C1.93607 5.84718 1.98201 5.73236 2.04374 5.62684C2.12598 5.48651 2.2361 5.36338 2.36601 5.26551C2.49451 5.16886 2.64109 5.09795 2.79667 5.0575L5.1248 4.44324L5.12968 4.44129L14.698 1.91883ZM3.7498 15.6249H16.2498V9.37488H3.7498V15.6249ZM3.1287 6.26258L3.59843 7.98719L7.39628 6.98426L5.19999 5.7157L3.1287 6.26258ZM6.91581 5.26258L9.11113 6.53113L11.9978 5.76844L9.80156 4.50086L6.91581 5.26258ZM11.5174 4.04871L13.7127 5.31629L15.4803 4.85047L15.0115 3.12781L11.5174 4.04871Z" fill="#C3BBAC" style="fill:#C3BBAC;fill:color(display-p3 0.7648 0.7349 0.6752);fill-opacity:1;"/>
</svg>
