<svg width="20" height="20" viewBox="0 0 20 20" fill="none" xmlns="http://www.w3.org/2000/svg">
<path d="M9.02352 7.20233L5.28993 5.04608L2.95712 5.66171C2.87934 5.68151 2.80627 5.71657 2.74215 5.76483C2.67803 5.8131 2.62412 5.87362 2.58357 5.94288C2.54302 6.01214 2.51662 6.08876 2.50591 6.1683C2.4952 6.24784 2.50039 6.32872 2.52118 6.40624L3.15868 8.74999L9.02352 7.20233Z" fill="#CED59E" style="fill:#CED59E;fill:color(display-p3 0.8078 0.8353 0.6196);fill-opacity:1;"/>
<path d="M5.29004 5.0459L9.02344 7.20215L13.625 5.9873L9.8916 3.83203L5.29004 5.0459Z" fill="#B2CEE0" style="fill:#B2CEE0;fill:color(display-p3 0.6980 0.8078 0.8784);fill-opacity:1;"/>
<path d="M9.89136 3.83201L13.625 5.98748L16.25 5.29451L15.6125 2.95076C15.5685 2.79431 15.4645 2.66152 15.3233 2.58121C15.182 2.50091 15.0147 2.47958 14.8578 2.52186L9.89136 3.83201Z" fill="#F2B5A5" style="fill:#F2B5A5;fill:color(display-p3 0.9490 0.7098 0.6471);fill-opacity:1;"/>
<path fill-rule="evenodd" clip-rule="evenodd" d="M14.6982 1.91883C14.9734 1.84545 15.2642 1.86858 15.5224 1.98328L15.6318 2.03797L15.7343 2.1034C15.933 2.2437 16.0862 2.43936 16.1747 2.6659L16.2138 2.78211L16.2148 2.78699L16.8525 5.13074C16.8961 5.29142 16.8742 5.4631 16.7909 5.6073C16.7076 5.75135 16.57 5.85682 16.4091 5.8993L7.97648 8.12488H16.8749C17.2201 8.12488 17.4999 8.40475 17.4999 8.74988V15.6249C17.4999 15.9564 17.3681 16.2743 17.1337 16.5087C16.8993 16.7431 16.5814 16.8749 16.2499 16.8749H3.74992C3.41846 16.8748 3.10052 16.7431 2.86613 16.5087C2.63179 16.2743 2.49992 15.9563 2.49992 15.6249V8.74988C2.49992 8.7407 2.50148 8.73162 2.50187 8.72254L1.91789 6.5702L1.91691 6.56824C1.87475 6.41095 1.86398 6.24623 1.88566 6.08484L1.90812 5.9657C1.93619 5.84718 1.98214 5.73236 2.04387 5.62684C2.12611 5.48651 2.23622 5.36338 2.36613 5.26551C2.49463 5.16886 2.64121 5.09795 2.7968 5.0575L5.12492 4.44324L5.1298 4.44129L14.6982 1.91883ZM3.74992 15.6249H16.2499V9.37488H3.74992V15.6249ZM3.12883 6.26258L3.59855 7.98719L7.3964 6.98426L5.20012 5.7157L3.12883 6.26258ZM6.91594 5.26258L9.11125 6.53113L11.998 5.76844L9.80168 4.50086L6.91594 5.26258ZM11.5175 4.04871L13.7128 5.31629L15.4804 4.85047L15.0116 3.12781L11.5175 4.04871Z" fill="#2B2B2B" style="fill:#2B2B2B;fill:color(display-p3 0.16863 0.16863 0.16863);fill-opacity:1;"/>
</svg>
