<svg width="20" height="20" viewBox="0 0 20 20" fill="none" xmlns="http://www.w3.org/2000/svg">
<path d="M3.75 4.375C5.4076 4.375 6.99731 5.03348 8.16942 6.20558C9.34152 7.37769 10 8.9674 10 10.625V13.75C8.3424 13.75 6.75269 13.0915 5.58058 11.9194C4.40848 10.7473 3.75 9.1576 3.75 7.5V4.375Z" fill="#F7F5F2" style="fill:#F7F5F2;fill:color(display-p3 0.9686 0.9608 0.9490);fill-opacity:1;"/>
<path d="M10 13.75V10.625C10 8.9674 10.6585 7.37769 11.8306 6.20558C13.0027 5.03348 14.5924 4.375 16.25 4.375V7.5C16.25 9.1576 15.5915 10.7473 14.4194 11.9194C13.2473 13.0915 11.6576 13.75 10 13.75Z" fill="#F7F5F2" style="fill:#F7F5F2;fill:color(display-p3 0.9686 0.9608 0.9490);fill-opacity:1;"/>
<path fill-rule="evenodd" clip-rule="evenodd" d="M9.7207 1.31597C9.89654 1.22826 10.1045 1.22808 10.2803 1.31597C10.281 1.31639 10.2833 1.31746 10.2842 1.31792L10.3154 1.33355C10.3354 1.34404 10.3637 1.35929 10.3984 1.37847C10.4684 1.41712 10.5667 1.47436 10.6865 1.54839C10.9259 1.69634 11.2543 1.91585 11.6162 2.20855C12.2199 2.69684 12.9352 3.40373 13.4873 4.33159C14.3502 3.95279 15.2894 3.74956 16.25 3.74956C16.595 3.74956 16.8747 4.0296 16.875 4.37456V7.49956C16.875 9.32282 16.1505 11.0716 14.8613 12.3609C13.7202 13.502 12.2191 14.1998 10.625 14.3453V17.1138L13.4707 15.691C13.7793 15.5368 14.1541 15.6619 14.3086 15.9703C14.4629 16.2789 14.3379 16.6537 14.0293 16.8082L10.2793 18.6832C10.2731 18.6863 10.2661 18.6881 10.2598 18.691C10.2491 18.6959 10.2385 18.7003 10.2275 18.7046C10.1965 18.7169 10.165 18.7269 10.1328 18.7339C10.1263 18.7353 10.1198 18.7366 10.1133 18.7378C10.0379 18.7518 9.96109 18.7519 9.88574 18.7378C9.87918 18.7366 9.8727 18.7354 9.86621 18.7339C9.83401 18.7269 9.80253 18.7169 9.77148 18.7046C9.76057 18.7003 9.74987 18.6959 9.73926 18.691C9.73324 18.6882 9.72666 18.6861 9.7207 18.6832L5.9707 16.8082C5.6621 16.6537 5.53707 16.2789 5.69141 15.9703C5.84586 15.6619 6.22072 15.5368 6.5293 15.691L9.375 17.1138V14.3453C7.78089 14.1998 6.27981 13.502 5.13867 12.3609C3.8495 11.0716 3.125 9.32282 3.125 7.49956V4.37456C3.12525 4.0296 3.40498 3.74956 3.75 3.74956C4.71033 3.74956 5.64903 3.95302 6.51172 4.33159C7.06401 3.40368 7.78109 2.69686 8.38477 2.20855C8.74622 1.91624 9.07426 1.69625 9.31348 1.54839C9.43305 1.4745 9.53174 1.41707 9.60156 1.37847C9.63621 1.35932 9.66461 1.34403 9.68457 1.33355C9.69423 1.32851 9.70311 1.32484 9.70898 1.32183C9.71179 1.3204 9.71496 1.31885 9.7168 1.31792L9.71875 1.31597H9.7207ZM15.625 5.0357C14.3633 5.17676 13.1789 5.74068 12.2725 6.64702C11.2177 7.70181 10.6251 9.13289 10.625 10.6246V13.0894C11.8869 12.9483 13.071 12.3836 13.9775 11.4771C15.0323 10.4222 15.625 8.9913 15.625 7.49956V5.0357ZM4.375 7.49956C4.375 8.9913 4.96771 10.4222 6.02246 11.4771C6.92893 12.3836 8.11319 12.9473 9.375 13.0884V10.6246C9.37488 9.13289 8.78232 7.70181 7.72754 6.64702C6.82106 5.74065 5.63676 5.17576 4.375 5.03472V7.49956ZM9.9707 2.61089C9.76783 2.73627 9.48468 2.92743 9.1709 3.1812C8.64776 3.60437 8.05883 4.19186 7.6084 4.93609C7.96534 5.17817 8.30196 5.4539 8.61133 5.76324C9.19558 6.34749 9.6626 7.0271 10 7.76421C10.3374 7.0271 10.8044 6.34749 11.3887 5.76324C11.6978 5.45409 12.0339 5.17807 12.3906 4.93609C11.9403 4.19211 11.3531 3.60429 10.8301 3.1812C10.5161 2.92725 10.2323 2.73634 10.0293 2.61089C10.0194 2.6048 10.0095 2.59909 10 2.59331C9.99068 2.59901 9.98041 2.60491 9.9707 2.61089Z" fill="#2B2B2B" style="fill:#2B2B2B;fill:color(display-p3 0.16863 0.16863 0.16863);fill-opacity:1;"/>
</svg>
