<svg width="20" height="20" viewBox="0 0 20 20" fill="none" xmlns="http://www.w3.org/2000/svg">
<path d="M18.7164 13.6828L17.4383 7.10938C17.5418 7.69353 17.5159 8.29326 17.3625 8.86634C17.2091 9.43941 16.9319 9.97189 16.5505 10.4262C16.1691 10.8806 15.6926 11.2458 15.1548 11.4961C14.6169 11.7464 14.0307 11.8758 13.4375 11.875H11.7258L15.0156 15.6094C15.3446 15.9382 15.7698 16.1536 16.2295 16.2243C16.6893 16.295 17.1596 16.2173 17.5721 16.0025C17.9847 15.7878 18.3181 15.4471 18.5239 15.0299C18.7296 14.6128 18.7971 14.1409 18.7164 13.6828Z" fill="#C5C1BB" style="fill:#C5C1BB;fill:color(display-p3 0.7725 0.7569 0.7333);fill-opacity:1;"/>
<path d="M5.625 8.125H8.125" stroke="#2B2B2B" style="stroke:#2B2B2B;stroke:color(display-p3 0.1700 0.1700 0.1700);stroke-opacity:1;" stroke-width="1.25" stroke-linecap="round" stroke-linejoin="round"/>
<path d="M6.875 6.875V9.375" stroke="#2B2B2B" style="stroke:#2B2B2B;stroke:color(display-p3 0.1700 0.1700 0.1700);stroke-opacity:1;" stroke-width="1.25" stroke-linecap="round" stroke-linejoin="round"/>
<path d="M8.27422 11.875L4.98438 15.6094C4.6554 15.9382 4.23017 16.1536 3.77045 16.2243C3.31072 16.295 2.84042 16.2173 2.42784 16.0025C2.01527 15.7878 1.68189 15.4471 1.47613 15.0299C1.27036 14.6128 1.20292 14.1409 1.28359 13.6828L2.56172 7.10938C2.72683 6.16981 3.21731 5.31831 3.94723 4.70409C4.67715 4.08987 5.59995 3.75211 6.55391 3.75H13.4375C14.5149 3.75 15.5483 4.17801 16.3101 4.93988C17.072 5.70175 17.5 6.73506 17.5 7.8125C17.5 8.88994 17.072 9.92325 16.3101 10.6851C15.5483 11.447 14.5149 11.875 13.4375 11.875H8.27422Z" stroke="#2B2B2B" style="stroke:#2B2B2B;stroke:color(display-p3 0.1700 0.1700 0.1700);stroke-opacity:1;" stroke-width="1.25" stroke-linecap="round" stroke-linejoin="round"/>
<path d="M11.7258 11.875L15.0156 15.6094C15.3446 15.9382 15.7698 16.1536 16.2296 16.2243C16.6893 16.295 17.1596 16.2173 17.5722 16.0025C17.9847 15.7878 18.3181 15.4471 18.5239 15.0299C18.7296 14.6128 18.7971 14.1409 18.7164 13.6828L17.4383 7.10938" stroke="#2B2B2B" style="stroke:#2B2B2B;stroke:color(display-p3 0.1700 0.1700 0.1700);stroke-opacity:1;" stroke-width="1.25" stroke-linecap="round" stroke-linejoin="round"/>
<circle cx="12" cy="8.75" r="1" fill="#CE5D97" style="fill:#CE5D97;fill:color(display-p3 0.8078 0.3647 0.5922);fill-opacity:1;"/>
<circle cx="14" cy="6.75" r="1" fill="#2F968D" style="fill:#2F968D;fill:color(display-p3 0.1843 0.5882 0.5529);fill-opacity:1;"/>
</svg>
