<svg width="20" height="20" viewBox="0 0 20 20" fill="none" xmlns="http://www.w3.org/2000/svg">
<path d="M18.7164 13.6828L17.4383 7.10938C17.5418 7.69353 17.5159 8.29326 17.3625 8.86634C17.2091 9.43941 16.9319 9.97189 16.5505 10.4262C16.1691 10.8806 15.6926 11.2458 15.1548 11.4961C14.6169 11.7464 14.0307 11.8758 13.4375 11.875H11.7258L15.0156 15.6094C15.3446 15.9382 15.7698 16.1536 16.2295 16.2243C16.6893 16.295 17.1596 16.2173 17.5721 16.0025C17.9847 15.7878 18.3181 15.4471 18.5239 15.0299C18.7296 14.6128 18.7971 14.1409 18.7164 13.6828Z" fill="#4D4A45" style="fill:#4D4A45;fill:color(display-p3 0.3020 0.2902 0.2706);fill-opacity:1;"/>
<path d="M5.625 8.125H8.125" stroke="#C3BBAC" style="stroke:#C3BBAC;stroke:color(display-p3 0.7648 0.7349 0.6752);stroke-opacity:1;" stroke-width="1.25" stroke-linecap="round" stroke-linejoin="round"/>
<path d="M6.875 6.875V9.375" stroke="#C3BBAC" style="stroke:#C3BBAC;stroke:color(display-p3 0.7648 0.7349 0.6752);stroke-opacity:1;" stroke-width="1.25" stroke-linecap="round" stroke-linejoin="round"/>
<path d="M8.27421 11.875L4.98436 15.6094C4.65539 15.9382 4.23016 16.1536 3.77043 16.2243C3.3107 16.295 2.84041 16.2173 2.42783 16.0025C2.01525 15.7878 1.68188 15.4471 1.47612 15.0299C1.27035 14.6128 1.20291 14.1409 1.28358 13.6828L2.56171 7.10938C2.72682 6.16981 3.2173 5.31831 3.94722 4.70409C4.67714 4.08987 5.59993 3.75211 6.5539 3.75H13.4375C14.5149 3.75 15.5482 4.17801 16.3101 4.93988C17.072 5.70175 17.5 6.73506 17.5 7.8125C17.5 8.88994 17.072 9.92325 16.3101 10.6851C15.5482 11.447 14.5149 11.875 13.4375 11.875H8.27421Z" stroke="#C3BBAC" style="stroke:#C3BBAC;stroke:color(display-p3 0.7648 0.7349 0.6752);stroke-opacity:1;" stroke-width="1.25" stroke-linecap="round" stroke-linejoin="round"/>
<path d="M11.7258 11.875L15.0156 15.6094C15.3446 15.9382 15.7698 16.1536 16.2295 16.2243C16.6893 16.295 17.1596 16.2173 17.5721 16.0025C17.9847 15.7878 18.3181 15.4471 18.5239 15.0299C18.7296 14.6128 18.7971 14.1409 18.7164 13.6828L17.4383 7.10938" stroke="#C3BBAC" style="stroke:#C3BBAC;stroke:color(display-p3 0.7648 0.7349 0.6752);stroke-opacity:1;" stroke-width="1.25" stroke-linecap="round" stroke-linejoin="round"/>
<circle cx="12" cy="8.75" r="1" fill="#E47DA8" style="fill:#E47DA8;fill:color(display-p3 0.8941 0.4902 0.6588);fill-opacity:1;"/>
<circle cx="14" cy="6.75" r="1" fill="#3AA99F" style="fill:#3AA99F;fill:color(display-p3 0.2275 0.6627 0.6235);fill-opacity:1;"/>
</svg>
