<svg width="20" height="20" viewBox="0 0 20 20" fill="none" xmlns="http://www.w3.org/2000/svg">
<path d="M6.25 6.25C7.28553 6.25 8.125 5.41053 8.125 4.375C8.125 3.33947 7.28553 2.5 6.25 2.5C5.21447 2.5 4.375 3.33947 4.375 4.375C4.375 5.41053 5.21447 6.25 6.25 6.25Z" fill="#CED59E" style="fill:#CED59E;fill:color(display-p3 0.8078 0.8353 0.6196);fill-opacity:1;"/>
<path fill-rule="evenodd" clip-rule="evenodd" d="M6.25 1.875C7.63071 1.875 8.75 2.99429 8.75 4.375C8.75 5.34969 8.19073 6.19117 7.37695 6.60352L10.1709 9.86133C10.2695 9.9762 10.4068 10.0507 10.5566 10.0723L13.8525 10.543C14.1576 9.50673 15.115 8.75 16.25 8.75C17.6307 8.75 18.75 9.86929 18.75 11.25C18.75 12.6307 17.6307 13.75 16.25 13.75C15.0587 13.75 14.0635 12.9163 13.8125 11.8008L10.3799 11.3105C9.92991 11.2461 9.51867 11.0198 9.22266 10.6748L6.875 7.93848V13.2061C7.95299 13.4838 8.75 14.4603 8.75 15.625C8.75 17.0057 7.63071 18.125 6.25 18.125C4.86929 18.125 3.75 17.0057 3.75 15.625C3.75 14.4603 4.54701 13.4838 5.625 13.2061V6.79297C4.54713 6.51517 3.75 5.53961 3.75 4.375C3.75 2.99429 4.86929 1.875 6.25 1.875ZM6.25 14.375C5.55964 14.375 5 14.9346 5 15.625C5 16.3154 5.55964 16.875 6.25 16.875C6.94036 16.875 7.5 16.3154 7.5 15.625C7.5 14.9346 6.94036 14.375 6.25 14.375ZM16.25 10C15.5596 10 15 10.5596 15 11.25C15 11.9404 15.5596 12.5 16.25 12.5C16.9404 12.5 17.5 11.9404 17.5 11.25C17.5 10.5596 16.9404 10 16.25 10ZM6.25 3.125C5.55964 3.125 5 3.68464 5 4.375C5 5.06536 5.55964 5.625 6.25 5.625C6.94036 5.625 7.5 5.06536 7.5 4.375C7.5 3.68464 6.94036 3.125 6.25 3.125Z" fill="#2B2B2B" style="fill:#2B2B2B;fill:color(display-p3 0.16863 0.16863 0.16863);fill-opacity:1;"/>
</svg>
