<svg xmlns="http://www.w3.org/2000/svg" width="20" height="20" fill="none" viewBox="0 0 20 20">
  <path fill="#f7f5f2" fill-rule="evenodd" d="M13.63 2a2 2 0 0 1 2 2v12a2 2 0 0 1-2 2H6.38a2 2 0 0 1-2-2V4a2 2 0 0 1 2-2zm-3.625 9.5a2.125 2.125 0 1 0 0 4.25 2.125 2.125 0 0 0 0-4.25" clip-rule="evenodd" style="fill:#f7f5f2;fill:color(display-p3 .9686 .9608 .949);fill-opacity:1"/>
  <rect width="6.25" height="4.75" x="6.88" y="4.5" fill="#c5c1bb" rx=".125" style="fill:#c5c1bb;fill:color(display-p3 .7725 .7569 .7333);fill-opacity:1"/>
  <path fill="#2b2b2b" d="M15.005 4c0-.76-.616-1.375-1.375-1.375H6.38c-.76 0-1.375.616-1.375 1.375v12c0 .76.616 1.375 1.375 1.375h7.25c.76 0 1.375-.616 1.375-1.375zm1.25 12a2.625 2.625 0 0 1-2.625 2.625H6.38A2.625 2.625 0 0 1 3.755 16V4A2.625 2.625 0 0 1 6.38 1.375h7.25A2.625 2.625 0 0 1 16.255 4z" style="fill:#2b2b2b;fill:color(display-p3 .17 .17 .17);fill-opacity:1"/>
  <path fill="#2b2b2b" d="M7.505 8.625h5v-3.5h-5zm6.25.5a.75.75 0 0 1-.75.75h-6a.75.75 0 0 1-.75-.75v-4.5a.75.75 0 0 1 .75-.75h6a.75.75 0 0 1 .75.75zM11.505 13.625a1.5 1.5 0 1 0-3 0 1.5 1.5 0 0 0 3 0m1.25 0a2.75 2.75 0 1 1-5.5 0 2.75 2.75 0 0 1 5.5 0" style="fill:#2b2b2b;fill:color(display-p3 .17 .17 .17);fill-opacity:1"/>
</svg>
