<svg xmlns="http://www.w3.org/2000/svg" width="20" height="20" fill="none" viewBox="0 0 20 20">
  <rect width="6.25" height="4.75" x="6.88" y="4.5" fill="#4d4a45" rx=".5" style="fill:#4d4a45;fill:color(display-p3 .302 .2902 .2706);fill-opacity:1"/>
  <circle cx="10.005" cy="13.625" r="2.125" fill="#333230" style="fill:#333230;fill:color(display-p3 .2 .1961 .1882);fill-opacity:1"/>
  <path fill="#c3bbac" d="M15.005 4c0-.76-.616-1.375-1.375-1.375H6.38c-.76 0-1.375.616-1.375 1.375v12c0 .76.616 1.375 1.375 1.375h7.25c.76 0 1.375-.616 1.375-1.375zm1.25 12a2.625 2.625 0 0 1-2.625 2.625H6.38A2.625 2.625 0 0 1 3.755 16V4A2.625 2.625 0 0 1 6.38 1.375h7.25A2.625 2.625 0 0 1 16.255 4z" style="fill:#c3bbac;fill:color(display-p3 .7648 .7349 .6752);fill-opacity:1"/>
  <path fill="#c3bbac" d="M7.505 8.625h5v-3.5h-5zm6.25.5a.75.75 0 0 1-.75.75h-6a.75.75 0 0 1-.75-.75v-4.5a.75.75 0 0 1 .75-.75h6a.75.75 0 0 1 .75.75zM11.505 13.625a1.5 1.5 0 1 0-3 0 1.5 1.5 0 0 0 3 0m1.25 0a2.75 2.75 0 1 1-5.5 0 2.75 2.75 0 0 1 5.5 0" style="fill:#c3bbac;fill:color(display-p3 .7648 .7349 .6752);fill-opacity:1"/>
</svg>
