<svg width="20" height="20" viewBox="0 0 20 20" fill="none" xmlns="http://www.w3.org/2000/svg">
<path d="M6.14841 13.0469C5.40542 12.4665 4.80362 11.7252 4.38821 10.8789C3.9728 10.0325 3.75459 9.10297 3.74997 8.16016C3.73122 4.77266 6.46247 1.95313 9.84919 1.875C11.1617 1.84321 12.4509 2.22555 13.5339 2.96777C14.6168 3.70999 15.4385 4.77439 15.8824 6.00996C16.3264 7.24553 16.3699 8.58952 16.0069 9.85123C15.6439 11.1129 14.8928 12.2283 13.8601 13.0391C13.6324 13.2157 13.4478 13.4418 13.3204 13.7004C13.193 13.9589 13.1262 14.243 13.125 14.5313V15C13.125 15.1658 13.0591 15.3247 12.9419 15.4419C12.8247 15.5592 12.6657 15.625 12.5 15.625H7.49997C7.33421 15.625 7.17524 15.5592 7.05803 15.4419C6.94082 15.3247 6.87497 15.1658 6.87497 15V14.5313C6.87468 14.2449 6.80908 13.9623 6.68318 13.7051C6.55728 13.4479 6.37439 13.2228 6.14841 13.0469Z" fill="#624E16" style="fill:#624E16;fill:color(display-p3 0.3843 0.3059 0.0863);fill-opacity:1;"/>
<path d="M11.7499 17.705C12.095 17.705 12.3749 17.9848 12.3749 18.33C12.3749 18.6752 12.095 18.955 11.7499 18.955H8.24986C7.90473 18.955 7.62486 18.6752 7.62486 18.33C7.62486 17.9849 7.90473 17.7051 8.24986 17.705H11.7499Z" fill="#C3BBAC" style="fill:#C3BBAC;fill:color(display-p3 0.7648 0.7349 0.6752);fill-opacity:1;"/>
<path fill-rule="evenodd" clip-rule="evenodd" d="M9.83384 1.24994C11.2776 1.21498 12.6963 1.63568 13.8876 2.45209C15.0786 3.26849 15.9823 4.43981 16.4706 5.79877C16.9587 7.15764 17.0064 8.63574 16.6073 10.0234C16.208 11.4112 15.3818 12.6384 14.246 13.5302L14.243 13.5331C14.0904 13.6515 13.9661 13.8032 13.8807 13.9765C13.7954 14.1498 13.7507 14.3409 13.7499 14.5341V14.9999C13.7498 15.3314 13.618 15.6493 13.3836 15.8837C13.1492 16.1181 12.8313 16.2499 12.4999 16.2499H7.49986C7.16838 16.2499 6.85047 16.1181 6.61607 15.8837C6.38172 15.6493 6.24989 15.3314 6.24986 14.9999V14.5322L6.24205 14.3886C6.22566 14.2469 6.18496 14.1082 6.12193 13.9794C6.03782 13.8077 5.91538 13.6574 5.76451 13.54L5.76353 13.539C4.94626 12.9005 4.28398 12.0853 3.82701 11.1542C3.37003 10.2231 3.12994 9.20022 3.12486 8.16303C3.10455 4.43636 6.10579 1.33645 9.83384 1.24994ZM9.86412 2.49994C6.81975 2.57041 4.35827 5.10881 4.37486 8.15619C4.37905 9.00443 4.57536 9.84197 4.94908 10.6035C5.32269 11.3647 5.86398 12.0315 6.53208 12.5537L6.64244 12.6445C6.89292 12.8635 7.09827 13.1309 7.24498 13.4306C7.41243 13.7729 7.4994 14.1491 7.49986 14.5302V14.9999H9.37486V11.5097L7.05748 9.19232C6.81346 8.94824 6.81342 8.55161 7.05748 8.30756C7.30153 8.06351 7.69816 8.06355 7.94224 8.30756L9.99986 10.3652L12.0575 8.30756C12.3015 8.06351 12.6982 8.06355 12.9422 8.30756C13.1863 8.55163 13.1863 8.94824 12.9422 9.19232L10.6249 11.5097V14.9999H12.4999V14.5283C12.5015 14.1453 12.5904 13.7673 12.7596 13.4238C12.9284 13.0812 13.173 12.7812 13.4745 12.5468L13.6454 12.4072C14.4864 11.6916 15.0998 10.743 15.4061 9.67865C15.7328 8.54316 15.6933 7.3326 15.2938 6.22064C14.8942 5.10897 14.1549 4.15119 13.1805 3.48334C12.2059 2.81538 11.0453 2.47134 9.86412 2.49994Z" fill="#C3BBAC" style="fill:#C3BBAC;fill:color(display-p3 0.7648 0.7349 0.6752);fill-opacity:1;"/>
</svg>
