<svg width="20" height="20" viewBox="0 0 20 20" fill="none" xmlns="http://www.w3.org/2000/svg">
<path d="M15.9594 8.45937C16.5286 7.86998 16.8436 7.0806 16.8365 6.26124C16.8294 5.44187 16.5007 4.65808 15.9213 4.07868C15.3419 3.49928 14.5581 3.17063 13.7388 3.16351C12.9194 3.15639 12.13 3.47137 11.5406 4.04062L4.04062 11.5406C3.47138 12.13 3.1564 12.9194 3.16352 13.7387C3.17064 14.5581 3.49929 15.3419 4.07869 15.9213C4.65809 16.5007 5.44188 16.8294 6.26124 16.8365C7.08061 16.8436 7.86999 16.5286 8.45937 15.9594L15.9594 8.45937Z" fill="#F2B5A5" style="fill:#F2B5A5;fill:color(display-p3 0.9490 0.7098 0.6471);fill-opacity:1;"/>
<path d="M13.7441 2.53841C14.7274 2.54695 15.668 2.94176 16.3633 3.63704C17.0585 4.33231 17.4534 5.27302 17.4619 6.25618C17.4704 7.23929 17.0922 8.18671 16.4092 8.89388C16.4033 8.89997 16.3967 8.90561 16.3906 8.91146L15.4316 9.82747C15.182 10.0656 14.7862 10.0564 14.5479 9.80696C14.3096 9.55733 14.3189 9.16152 14.5684 8.92318L15.5088 8.02474C15.9641 7.55329 16.2175 6.92233 16.2119 6.26693C16.2062 5.61151 15.9429 4.98434 15.4795 4.52083C15.016 4.05733 14.3889 3.79413 13.7334 3.78841C13.0801 3.78273 12.4505 4.03313 11.9795 4.48568L11.0771 5.43197C10.8388 5.68142 10.443 5.69062 10.1934 5.45247C9.94369 5.21419 9.93464 4.81839 10.1729 4.56868L11.0889 3.60872L11.1064 3.59114C11.8137 2.90806 12.7609 2.52988 13.7441 2.53841Z" fill="#2B2B2B" style="fill:#2B2B2B;fill:color(display-p3 0.16863 0.16863 0.16863);fill-opacity:1;"/>
<path d="M4.56867 10.1729C4.81838 9.93465 5.21418 9.9437 5.45246 10.1934C5.69061 10.443 5.68141 10.8389 5.43195 11.0772L4.48566 11.9795C4.03311 12.4505 3.78272 13.0801 3.7884 13.7334C3.79411 14.3889 4.05732 15.016 4.52082 15.4795C4.98433 15.9429 5.6115 16.2062 6.26691 16.2119C6.92222 16.2176 7.5533 15.965 8.02473 15.5098L8.92316 14.5684C9.1615 14.3189 9.55732 14.3096 9.80695 14.5479C10.0564 14.7862 10.0656 15.182 9.82746 15.4317L8.91145 16.3906C8.9056 16.3968 8.89996 16.4033 8.89387 16.4092C8.1867 17.0922 7.23928 17.4704 6.25617 17.4619C5.27301 17.4534 4.3323 17.0585 3.63703 16.3633C2.94175 15.668 2.54694 14.7274 2.5384 13.7442C2.52987 12.7609 2.90805 11.8137 3.59113 11.1065L3.60871 11.0889L4.56867 10.1729Z" fill="#2B2B2B" style="fill:#2B2B2B;fill:color(display-p3 0.16863 0.16863 0.16863);fill-opacity:1;"/>
<path d="M16.875 11.875C17.2202 11.875 17.5 12.1548 17.5 12.5C17.5 12.8452 17.2202 13.125 16.875 13.125H15C14.6548 13.125 14.375 12.8452 14.375 12.5C14.375 12.1548 14.6548 11.875 15 11.875H16.875Z" fill="#928177" style="fill:#928177;fill:color(display-p3 0.5728 0.5042 0.4672);fill-opacity:1;"/>
<path d="M5 6.875C5.34518 6.875 5.625 7.15482 5.625 7.5C5.625 7.84518 5.34518 8.125 5 8.125H3.125C2.77982 8.125 2.5 7.84518 2.5 7.5C2.5 7.15482 2.77982 6.875 3.125 6.875H5Z" fill="#928177" style="fill:#928177;fill:color(display-p3 0.5728 0.5042 0.4672);fill-opacity:1;"/>
<path d="M11.875 16.875V15C11.875 14.6548 12.1548 14.375 12.5 14.375C12.8452 14.375 13.125 14.6548 13.125 15V16.875C13.125 17.2202 12.8452 17.5 12.5 17.5C12.1548 17.5 11.875 17.2202 11.875 16.875Z" fill="#928177" style="fill:#928177;fill:color(display-p3 0.5728 0.5042 0.4672);fill-opacity:1;"/>
<path d="M6.875 5V3.125C6.875 2.77982 7.15482 2.5 7.5 2.5C7.84518 2.5 8.125 2.77982 8.125 3.125V5C8.125 5.34518 7.84518 5.625 7.5 5.625C7.15482 5.625 6.875 5.34518 6.875 5Z" fill="#928177" style="fill:#928177;fill:color(display-p3 0.5728 0.5042 0.4672);fill-opacity:1;"/>
</svg>
