<svg width="20" height="20" viewBox="0 0 20 20" fill="none" xmlns="http://www.w3.org/2000/svg">
<path d="M15.9594 8.45937C16.5287 7.86998 16.8437 7.0806 16.8365 6.26124C16.8294 5.44187 16.5008 4.65808 15.9214 4.07868C15.342 3.49928 14.5582 3.17063 13.7388 3.16351C12.9194 3.15639 12.1301 3.47137 11.5407 4.04062L4.04068 11.5406C3.47143 12.13 3.15645 12.9194 3.16357 13.7387C3.17069 14.5581 3.49934 15.3419 4.07874 15.9213C4.65814 16.5007 5.44193 16.8294 6.2613 16.8365C7.08066 16.8436 7.87004 16.5286 8.45943 15.9594L15.9594 8.45937Z" fill="#632620" style="fill:#632620;fill:color(display-p3 0.3882 0.1490 0.1255);fill-opacity:1;"/>
<path d="M13.7441 2.53841C14.7273 2.54695 15.668 2.94176 16.3632 3.63704C17.0584 4.33231 17.4533 5.27302 17.4619 6.25618C17.4703 7.23929 17.0921 8.18671 16.4091 8.89388C16.4032 8.89997 16.3967 8.90561 16.3906 8.91146L15.4316 9.82747C15.182 10.0656 14.7861 10.0564 14.5478 9.80696C14.3096 9.55733 14.3188 9.16152 14.5683 8.92318L15.5087 8.02474C15.9641 7.55329 16.2175 6.92233 16.2119 6.26693C16.2062 5.61151 15.9429 4.98434 15.4794 4.52083C15.0159 4.05733 14.3888 3.79413 13.7333 3.78841C13.08 3.78273 12.4504 4.03313 11.9794 4.48568L11.0771 5.43197C10.8388 5.68142 10.4429 5.69062 10.1933 5.45247C9.94364 5.21419 9.93459 4.81839 10.1728 4.56868L11.0888 3.60872L11.1064 3.59114C11.8136 2.90806 12.7609 2.52988 13.7441 2.53841Z" fill="#C3BBAC" style="fill:#C3BBAC;fill:color(display-p3 0.7648 0.7349 0.6752);fill-opacity:1;"/>
<path d="M4.56862 10.1729C4.81833 9.93465 5.21413 9.9437 5.45241 10.1934C5.69056 10.443 5.68136 10.8389 5.4319 11.0772L4.48561 11.9795C4.03306 12.4505 3.78267 13.0801 3.78835 13.7334C3.79406 14.3889 4.05727 15.016 4.52077 15.4795C4.98428 15.9429 5.61145 16.2062 6.26687 16.2119C6.92217 16.2176 7.55325 15.965 8.02468 15.5098L8.92311 14.5684C9.16145 14.3189 9.55727 14.3096 9.8069 14.5479C10.0564 14.7862 10.0656 15.182 9.82741 15.4317L8.9114 16.3906C8.90555 16.3968 8.89991 16.4033 8.89382 16.4092C8.18665 17.0922 7.23923 17.4704 6.25612 17.4619C5.27296 17.4534 4.33225 17.0585 3.63698 16.3633C2.9417 15.668 2.54689 14.7274 2.53835 13.7442C2.52982 12.7609 2.908 11.8137 3.59108 11.1065L3.60866 11.0889L4.56862 10.1729Z" fill="#C3BBAC" style="fill:#C3BBAC;fill:color(display-p3 0.7648 0.7349 0.6752);fill-opacity:1;"/>
<path d="M16.875 11.875C17.2202 11.875 17.5 12.1548 17.5 12.5C17.5 12.8452 17.2202 13.125 16.875 13.125H15C14.6548 13.125 14.375 12.8452 14.375 12.5C14.375 12.1548 14.6548 11.875 15 11.875H16.875Z" fill="#8F8570" style="fill:#8F8570;fill:color(display-p3 0.5600 0.5220 0.4400);fill-opacity:1;"/>
<path d="M5 6.875C5.34518 6.875 5.625 7.15482 5.625 7.5C5.625 7.84518 5.34518 8.125 5 8.125H3.125C2.77982 8.125 2.5 7.84518 2.5 7.5C2.5 7.15482 2.77982 6.875 3.125 6.875H5Z" fill="#8F8570" style="fill:#8F8570;fill:color(display-p3 0.5600 0.5220 0.4400);fill-opacity:1;"/>
<path d="M11.875 16.875V15C11.875 14.6548 12.1548 14.375 12.5 14.375C12.8452 14.375 13.125 14.6548 13.125 15V16.875C13.125 17.2202 12.8452 17.5 12.5 17.5C12.1548 17.5 11.875 17.2202 11.875 16.875Z" fill="#8F8570" style="fill:#8F8570;fill:color(display-p3 0.5600 0.5220 0.4400);fill-opacity:1;"/>
<path d="M6.875 5V3.125C6.875 2.77982 7.15482 2.5 7.5 2.5C7.84518 2.5 8.125 2.77982 8.125 3.125V5C8.125 5.34518 7.84518 5.625 7.5 5.625C7.15482 5.625 6.875 5.34518 6.875 5Z" fill="#8F8570" style="fill:#8F8570;fill:color(display-p3 0.5600 0.5220 0.4400);fill-opacity:1;"/>
</svg>
