<svg width="20" height="20" viewBox="0 0 20 20" fill="none" xmlns="http://www.w3.org/2000/svg">
<path d="M2.08325 13.4167V5.13622C2.08325 4.92112 2.33687 4.80644 2.49838 4.94851L8.24066 9.99999L17.5445 4.79164C17.7111 4.69835 17.9166 4.81881 17.9166 5.00979V13.4167C17.9166 14.5212 17.0212 15.4167 15.9166 15.4167H14.3981H4.08325C2.97868 15.4167 2.08325 14.5212 2.08325 13.4167Z" fill="#C8BEB5" style="fill:#C8BEB5;fill:color(display-p3 0.7843 0.7451 0.7098);fill-opacity:1;"/>
<path d="M17.2913 5.64974L9.31567 10.1136L14.6331 14.7913H15.9163C16.6757 14.7913 17.2913 14.1757 17.2913 13.4163V5.64974ZM2.70825 13.4163C2.70825 14.1757 3.32386 14.7913 4.08325 14.7913H12.7415L2.70825 5.96517V13.4163ZM18.5413 13.4163C18.5413 14.8661 17.366 16.0413 15.9163 16.0413H4.08325C2.63351 16.0413 1.45825 14.8661 1.45825 13.4163V5.13607C1.45837 4.4302 2.23873 4.03353 2.802 4.39681L2.91138 4.47884L8.32153 9.23763L17.2395 4.24642L17.3499 4.19369C17.9095 3.97338 18.5413 4.38342 18.5413 5.01009V13.4163Z" fill="#2B2B2B" style="fill:#2B2B2B;fill:color(display-p3 0.16863 0.16863 0.16863);fill-opacity:1;"/>
</svg>
