<svg width="20" height="20" viewBox="0 0 20 20" fill="none" xmlns="http://www.w3.org/2000/svg">
<path d="M2.08337 13.4167V5.13622C2.08337 4.92112 2.33699 4.80644 2.4985 4.94851L8.24078 9.99999L17.5446 4.79164C17.7112 4.69835 17.9167 4.81881 17.9167 5.00979V13.4167C17.9167 14.5212 17.0213 15.4167 15.9167 15.4167H14.3982H4.08337C2.9788 15.4167 2.08337 14.5212 2.08337 13.4167Z" fill="#605A4D" style="fill:#605A4D;fill:color(display-p3 0.3765 0.3529 0.3020);fill-opacity:1;"/>
<path d="M14.3982 15.4167H15.9167C17.0213 15.4167 17.9167 14.5212 17.9167 13.4167V5.00979C17.9167 4.81881 17.7112 4.69835 17.5446 4.79164L8.24078 9.99999M14.3982 15.4167H4.08337C2.9788 15.4167 2.08337 14.5212 2.08337 13.4167V5.13622C2.08337 4.92112 2.33699 4.80644 2.4985 4.94851L8.24078 9.99999M14.3982 15.4167L8.24078 9.99999" stroke="#C3BBAC" style="stroke:#C3BBAC;stroke:color(display-p3 0.7648 0.7349 0.6752);stroke-opacity:1;" stroke-width="1.25"/>
</svg>
