<svg width="20" height="20" viewBox="0 0 20 20" fill="none" xmlns="http://www.w3.org/2000/svg">
<path d="M10.88 2.5V7.88H16.25V16.875C16.25 17.0408 16.1846 17.2002 16.0674 17.3174C15.9502 17.4346 15.7908 17.5 15.625 17.5H4.375C4.20924 17.5 4.04983 17.4346 3.93262 17.3174C3.81541 17.2002 3.75 17.0408 3.75 16.875V3.125C3.75 2.95924 3.81541 2.79983 3.93262 2.68262C4.04983 2.56541 4.20924 2.5 4.375 2.5H10.88Z" fill="#4D4A45" style="fill:#4D4A45;fill:color(display-p3 0.3020 0.2902 0.2706);fill-opacity:1;"/>
<path fill-rule="evenodd" clip-rule="evenodd" d="M10.8799 1.875C10.9225 1.875 10.9647 1.87922 11.0059 1.8877C11.13 1.91308 11.2407 1.97537 11.3262 2.0625L16.6924 7.43848C16.7497 7.4959 16.7955 7.56453 16.8271 7.64062C16.8583 7.71578 16.875 7.79695 16.875 7.87988V16.875C16.875 17.2065 16.7432 17.5244 16.5088 17.7588C16.2744 17.9932 15.9565 18.125 15.625 18.125H4.375C4.04348 18.125 3.72563 17.9932 3.49121 17.7588C3.25679 17.5244 3.125 17.2065 3.125 16.875V3.125C3.125 2.79348 3.25679 2.47563 3.49121 2.24121C3.72563 2.00679 4.04348 1.875 4.375 1.875H10.8799ZM4.375 16.875H15.625V8.50488H10.8799C10.7142 8.50485 10.5547 8.43945 10.4375 8.32227C10.3204 8.20507 10.2549 8.04559 10.2549 7.87988V3.125H4.375V16.875ZM11.5049 7.25488H14.7441L11.5049 4.00977V7.25488Z" fill="#C3BBAC" style="fill:#C3BBAC;fill:color(display-p3 0.7648 0.7349 0.6752);fill-opacity:1;"/>
</svg>
