<svg width="20" height="20" viewBox="0 0 20 20" fill="none" xmlns="http://www.w3.org/2000/svg">
<path d="M8.20083 16.3258C7.8492 16.6775 7.37228 16.875 6.875 16.875H15.625C16.1223 16.875 16.5992 16.6775 16.9508 16.3258C17.3025 15.9742 17.5 15.4973 17.5 15C17.5 14.2188 16.875 13.75 16.875 13.75H8.125C8.125 13.75 8.75 14.2188 8.75 15C8.75 15.4973 8.55246 15.9742 8.20083 16.3258Z" fill="#49453C" style="fill:#49453C;fill:color(display-p3 0.2863 0.2706 0.2353);fill-opacity:1;"/>
<path d="M13.125 10C13.4702 10 13.75 10.2798 13.75 10.625C13.75 10.9702 13.4702 11.25 13.125 11.25H8.125C7.77982 11.25 7.5 10.9702 7.5 10.625C7.5 10.2798 7.77982 10 8.125 10H13.125Z" fill="#C3BBAC" style="fill:#C3BBAC;fill:color(display-p3 0.7648 0.7349 0.6752);fill-opacity:1;"/>
<path d="M13.125 7.5C13.4702 7.5 13.75 7.77982 13.75 8.125C13.75 8.47018 13.4702 8.75 13.125 8.75H8.125C7.77982 8.75 7.5 8.47018 7.5 8.125C7.5 7.77982 7.77982 7.5 8.125 7.5H13.125Z" fill="#C3BBAC" style="fill:#C3BBAC;fill:color(display-p3 0.7648 0.7349 0.6752);fill-opacity:1;"/>
<path fill-rule="evenodd" clip-rule="evenodd" d="M13.75 2.5C14.413 2.5 15.0487 2.76358 15.5176 3.23242C15.9864 3.70126 16.25 4.33696 16.25 5V13.125H16.875C17.0102 13.125 17.1418 13.1689 17.25 13.25L17.251 13.251L17.2539 13.2529C17.2551 13.2538 17.2564 13.2548 17.2578 13.2559C17.2611 13.2584 17.2651 13.2621 17.2695 13.2656C17.2786 13.2728 17.2904 13.2818 17.3037 13.293C17.3303 13.3153 17.3652 13.3454 17.4053 13.3838C17.485 13.4602 17.5893 13.5717 17.6934 13.7148C17.8997 13.9987 18.125 14.4375 18.125 15C18.125 15.663 17.8614 16.2987 17.3926 16.7676C16.9237 17.2364 16.288 17.5 15.625 17.5H6.875C6.21196 17.5 5.57626 17.2364 5.10742 16.7676C4.63858 16.2987 4.375 15.663 4.375 15V5C4.375 4.66848 4.24321 4.35063 4.00879 4.11621C3.77437 3.88179 3.45652 3.75 3.125 3.75C2.79348 3.75 2.47563 3.88179 2.24121 4.11621C2.00679 4.35063 1.875 4.66848 1.875 5C1.875 5.21842 1.96231 5.40496 2.06836 5.55078C2.12034 5.62219 2.17258 5.67706 2.20996 5.71289L2.25 5.75C2.52614 5.95711 2.58211 6.34886 2.375 6.625C2.16789 6.90114 1.77614 6.95711 1.5 6.75L1.49805 6.74902L1.49609 6.74707C1.49491 6.74617 1.49359 6.74522 1.49219 6.74414C1.48889 6.7416 1.48492 6.7379 1.48047 6.73438C1.47143 6.72722 1.4596 6.71821 1.44629 6.70703C1.41974 6.68475 1.38478 6.65459 1.34473 6.61621C1.26501 6.53982 1.16074 6.42829 1.05664 6.28516C0.850283 6.00127 0.625 5.56252 0.625 5C0.625 4.33696 0.888581 3.70126 1.35742 3.23242C1.82626 2.76358 2.46196 2.5 3.125 2.5H13.75ZM5.28613 3.75C5.50438 4.12718 5.625 4.55667 5.625 5V15C5.625 15.3315 5.75679 15.6494 5.99121 15.8838C6.22563 16.1182 6.54348 16.25 6.875 16.25C7.20652 16.25 7.52437 16.1182 7.75879 15.8838C7.99321 15.6494 8.125 15.3315 8.125 15C8.125 14.7816 8.03769 14.595 7.93164 14.4492C7.87966 14.3778 7.82742 14.3229 7.79004 14.2871C7.77157 14.2694 7.7576 14.2564 7.75 14.25C7.53487 14.0887 7.44732 13.8079 7.53223 13.5527C7.6173 13.2975 7.85598 13.125 8.125 13.125H15V5C15 4.66848 14.8682 4.35063 14.6338 4.11621C14.3994 3.88179 14.0815 3.75 13.75 3.75H5.28613ZM9.27734 14.375C9.33593 14.5614 9.375 14.7701 9.375 15C9.375 15.4433 9.2543 15.8728 9.03613 16.25H15.625C15.9565 16.25 16.2744 16.1182 16.5088 15.8838C16.7432 15.6494 16.875 15.3315 16.875 15C16.875 14.7816 16.7877 14.595 16.6816 14.4492C16.6617 14.4219 16.6412 14.3974 16.6221 14.375H9.27734Z" fill="#C3BBAC" style="fill:#C3BBAC;fill:color(display-p3 0.7648 0.7349 0.6752);fill-opacity:1;"/>
</svg>
