<svg width="20" height="20" viewBox="0 0 20 20" fill="none" xmlns="http://www.w3.org/2000/svg">
<path d="M10.125 18.125C10.125 17.462 9.86161 16.8261 9.39277 16.3572C8.92393 15.8884 8.28804 15.625 7.625 15.625H2V4.375H7.625C8.28804 4.375 8.92393 4.63839 9.39277 5.10723C9.86161 5.57607 10.125 6.21196 10.125 6.875V18.125Z" fill="#4D4A45" style="fill:#4D4A45;fill:color(display-p3 0.3020 0.2902 0.2706);fill-opacity:1;"/>
<path d="M15.625 11.875C15.9702 11.875 16.25 12.1548 16.25 12.5C16.25 12.8452 15.9702 13.125 15.625 13.125H12.5C12.1548 13.125 11.875 12.8452 11.875 12.5C11.875 12.1548 12.1548 11.875 12.5 11.875H15.625Z" fill="#C3BBAC" style="fill:#C3BBAC;fill:color(display-p3 0.7648 0.7349 0.6752);fill-opacity:1;"/>
<path d="M15.625 9.375C15.9702 9.375 16.25 9.65482 16.25 10C16.25 10.3452 15.9702 10.625 15.625 10.625H12.5C12.1548 10.625 11.875 10.3452 11.875 10C11.875 9.65482 12.1548 9.375 12.5 9.375H15.625Z" fill="#C3BBAC" style="fill:#C3BBAC;fill:color(display-p3 0.7648 0.7349 0.6752);fill-opacity:1;"/>
<path d="M15.625 6.875C15.9702 6.875 16.25 7.15482 16.25 7.5C16.25 7.84518 15.9702 8.125 15.625 8.125H12.5C12.1548 8.125 11.875 7.84518 11.875 7.5C11.875 7.15482 12.1548 6.875 12.5 6.875H15.625Z" fill="#C3BBAC" style="fill:#C3BBAC;fill:color(display-p3 0.7648 0.7349 0.6752);fill-opacity:1;"/>
<path fill-rule="evenodd" clip-rule="evenodd" d="M7.5 3.75C8.3288 3.75 9.12391 4.07899 9.70996 4.66504C9.81515 4.77023 9.91179 4.88235 10 5C10.0882 4.88235 10.1848 4.77023 10.29 4.66504C10.8761 4.07899 11.6712 3.75 12.5 3.75H18.125C18.4702 3.75 18.75 4.02982 18.75 4.375V15.625C18.75 15.9702 18.4702 16.25 18.125 16.25H12.5C12.0027 16.25 11.5255 16.4472 11.1738 16.7988C10.8222 17.1505 10.625 17.6277 10.625 18.125C10.625 18.4702 10.3452 18.75 10 18.75C9.65482 18.75 9.375 18.4702 9.375 18.125C9.375 17.6277 9.1778 17.1505 8.82617 16.7988C8.47454 16.4472 7.99728 16.25 7.5 16.25H1.875C1.52982 16.25 1.25 15.9702 1.25 15.625V4.375C1.25 4.02982 1.52982 3.75 1.875 3.75H7.5ZM2.5 15H7.5C8.18006 15 8.83725 15.2217 9.375 15.625V6.875C9.375 6.37772 9.1778 5.90046 8.82617 5.54883C8.47454 5.1972 7.99728 5 7.5 5H2.5V15ZM12.5 5C12.0027 5 11.5255 5.1972 11.1738 5.54883C10.8222 5.90046 10.625 6.37772 10.625 6.875V15.625C11.1628 15.2218 11.82 15 12.5 15H17.5V5H12.5Z" fill="#C3BBAC" style="fill:#C3BBAC;fill:color(display-p3 0.7648 0.7349 0.6752);fill-opacity:1;"/>
</svg>
