<svg class="repeat-watch" role="img" title="Repeat watch"xmlns="http://www.w3.org/2000/svg" width="14" height="14" fill="none" viewBox="0 0 14 14">
  <path fill="#928177" d="M12.25 6.375c.345 0 .624.28.625.625a4.125 4.125 0 0 1-4.125 4.125H3.26l.244.245a.626.626 0 0 1-.884.884l-1.313-1.312a.6.6 0 0 1-.158-.28.6.6 0 0 1-.024-.162q.001-.09.026-.172a.6.6 0 0 1 .156-.27L2.62 8.744a.627.627 0 0 1 .884.884l-.245.246h5.49A2.876 2.876 0 0 0 11.626 7c0-.345.28-.625.625-.625M10.495 1.745a.627.627 0 0 1 .885 0l1.312 1.312a.626.626 0 0 1 0 .885L11.38 5.254a.626.626 0 0 1-.885-.884l.245-.245H5.25A2.876 2.876 0 0 0 2.375 7a.625.625 0 1 1-1.25 0A4.126 4.126 0 0 1 5.25 2.875h5.49l-.245-.246a.627.627 0 0 1 0-.884" style="fill:var(--color-text-secondary);fill-opacity:1"/>
</svg>
