<svg xmlns="http://www.w3.org/2000/svg" width="80" height="16" fill="none" viewBox="0 0 80 16">
  <path fill="#edd78a" d="m8 11.818 3.42 2.103a.524.524 0 0 0 .783-.573l-.93-3.924 3.043-2.625a.529.529 0 0 0-.3-.924l-3.993-.325-1.54-3.725a.522.522 0 0 0-.967 0L5.977 5.55l-3.994.325a.529.529 0 0 0-.3.927l3.044 2.625-.93 3.921a.525.525 0 0 0 .783.573z" style="fill:var(--color-star-rating);fill-opacity:1"/>
  <path stroke="var(--color-text)" stroke-linecap="round" stroke-linejoin="round" stroke-width="1.25" d="m8 11.818 3.42 2.103a.524.524 0 0 0 .783-.573l-.93-3.924 3.043-2.625a.529.529 0 0 0-.3-.924l-3.993-.325-1.54-3.725a.522.522 0 0 0-.967 0L5.977 5.55l-3.994.325a.529.529 0 0 0-.3.927l3.044 2.625-.93 3.921a.525.525 0 0 0 .783.573z" style="stroke:var(--color-text);stroke-opacity:1"/>
  <path fill="#edd78a" d="m24 11.818 3.42 2.103a.524.524 0 0 0 .782-.573l-.93-3.924 3.044-2.625a.529.529 0 0 0-.3-.924l-3.993-.325-1.54-3.725a.523.523 0 0 0-.967 0L21.978 5.55l-3.995.325a.529.529 0 0 0-.3.927l3.044 2.625-.93 3.921a.525.525 0 0 0 .783.573z" style="fill:var(--color-star-rating);fill-opacity:1"/>
  <path stroke="var(--color-text)" stroke-linecap="round" stroke-linejoin="round" stroke-width="1.25" d="m24 11.818 3.42 2.103a.524.524 0 0 0 .782-.573l-.93-3.924 3.044-2.625a.529.529 0 0 0-.3-.924l-3.993-.325-1.54-3.725a.523.523 0 0 0-.967 0L21.978 5.55l-3.995.325a.529.529 0 0 0-.3.927l3.044 2.625-.93 3.921a.525.525 0 0 0 .783.573z" style="stroke:var(--color-text);stroke-opacity:1"/>
  <path fill="#edd78a" d="m40 11.818 3.42 2.103a.524.524 0 0 0 .782-.573l-.93-3.924 3.044-2.625a.529.529 0 0 0-.3-.924l-3.993-.325-1.54-3.725a.523.523 0 0 0-.967 0L37.978 5.55l-3.995.325a.529.529 0 0 0-.3.927l3.044 2.625-.93 3.921a.525.525 0 0 0 .783.573z" style="fill:var(--color-star-rating);fill-opacity:1"/>
  <path stroke="var(--color-text)" stroke-linecap="round" stroke-linejoin="round" stroke-width="1.25" d="m40 11.818 3.42 2.103a.524.524 0 0 0 .782-.573l-.93-3.924 3.044-2.625a.529.529 0 0 0-.3-.924l-3.993-.325-1.54-3.725a.523.523 0 0 0-.967 0L37.978 5.55l-3.995.325a.529.529 0 0 0-.3.927l3.044 2.625-.93 3.921a.525.525 0 0 0 .783.573z" style="stroke:var(--color-text);stroke-opacity:1"/>
  <path fill="#edd78a" d="M55.516 1.825 53.978 5.55l-3.995.325a.528.528 0 0 0-.3.927l3.044 2.625-.93 3.921a.526.526 0 0 0 .783.573L56 11.818V1.5a.52.52 0 0 0-.484.325" style="fill:var(--color-star-rating);fill-opacity:1"/>
  <path stroke="var(--color-text)" stroke-linecap="round" stroke-linejoin="round" stroke-width="1.25" d="M56 11.818V1.5M56 11.818l3.42 2.103a.524.524 0 0 0 .782-.573l-.93-3.924 3.044-2.625a.529.529 0 0 0-.3-.924l-3.993-.325-1.54-3.725a.523.523 0 0 0-.967 0L53.978 5.55l-3.995.325a.529.529 0 0 0-.3.927l3.044 2.625-.93 3.921a.525.525 0 0 0 .783.573zM72 11.818l3.42 2.103a.524.524 0 0 0 .782-.573l-.93-3.924 3.044-2.625a.529.529 0 0 0-.3-.924l-3.994-.325-1.538-3.725a.523.523 0 0 0-.968 0L69.978 5.55l-3.995.325a.529.529 0 0 0-.3.927l3.044 2.625-.93 3.921a.525.525 0 0 0 .783.573z" style="stroke:var(--color-text);stroke-opacity:1"/>
</svg>
