<svg xmlns="http://www.w3.org/2000/svg" width="16" height="16" fill="none" viewBox="0 0 16 16">
  <path fill="#928177" d="M14 7.375c.345 0 .624.28.625.625A4.626 4.626 0 0 1 10 12.624H3.51l.432.433a.626.626 0 0 1-.885.885l-1.5-1.5a.6.6 0 0 1-.158-.28.6.6 0 0 1-.024-.163q.001-.09.026-.171a.6.6 0 0 1 .156-.27l1.5-1.5a.627.627 0 0 1 .885.884l-.433.432H10A3.375 3.375 0 0 0 13.376 8c0-.345.28-.625.625-.625M12.057 2.057a.627.627 0 0 1 .885 0l1.5 1.5a.626.626 0 0 1 0 .885l-1.5 1.5a.626.626 0 0 1-.885-.885l.433-.432H6A3.376 3.376 0 0 0 2.625 8a.625.625 0 0 1-1.25 0A4.626 4.626 0 0 1 6 3.375h6.49l-.433-.433a.627.627 0 0 1 0-.885"/>
</svg>
