<svg width="16" height="16" viewBox="0 0 16 16" fill="none" xmlns="http://www.w3.org/2000/svg">
<path d="M5.5 9.49992C5.77611 9.49992 5.99995 9.72382 6 9.99992C6 10.2761 5.77614 10.4999 5.5 10.4999H3.70703L4.62109 11.414C5.55152 12.3443 6.81121 12.8701 8.12695 12.8778C9.4428 12.8855 10.7091 12.3745 11.6504 11.455C11.8478 11.2622 12.1644 11.2656 12.3574 11.4628C12.5503 11.6602 12.5469 11.9768 12.3496 12.1698C11.2201 13.2733 9.70104 13.8869 8.12207 13.8778C6.54297 13.8687 5.03071 13.2376 3.91406 12.121L3 11.2069V12.9999C3 13.2761 2.77614 13.4999 2.5 13.4999C2.22386 13.4999 2 13.2761 2 12.9999V9.99992C2.00001 9.96693 2.00229 9.93375 2.00879 9.90128C2.01899 9.85025 2.03902 9.80284 2.06348 9.75871C2.08562 9.71871 2.11254 9.68035 2.14648 9.6464C2.1798 9.6131 2.21767 9.58728 2.25684 9.56535C2.27445 9.55547 2.29169 9.54475 2.31055 9.53703C2.31876 9.53367 2.32759 9.53211 2.33594 9.52921C2.3573 9.52177 2.3788 9.5142 2.40137 9.50968C2.43389 9.50317 2.46696 9.49992 2.5 9.49992H5.5Z" fill="#C3BBAC" style="fill:#C3BBAC;fill:color(display-p3 0.7648 0.7349 0.6752);fill-opacity:1;"/>
<path d="M7.87793 2.12199C9.45694 2.13118 10.9693 2.76238 12.0859 3.87882L13 4.79288V2.99992C13.0001 2.72382 13.2239 2.49992 13.5 2.49992C13.7761 2.49992 13.9999 2.72382 14 2.99992V5.99992C14 6.27606 13.7761 6.49992 13.5 6.49992H10.5C10.2239 6.49992 10 6.27606 10 5.99992C10.0001 5.72382 10.2239 5.49992 10.5 5.49992H12.293L11.3789 4.58683C10.4485 3.65643 9.18883 3.12977 7.87305 3.12199C6.5571 3.11433 5.29092 3.6262 4.34961 4.54581C4.15212 4.73853 3.8355 4.73433 3.64258 4.53703C3.44966 4.33955 3.45302 4.02298 3.65039 3.82999C4.77986 2.72656 6.29896 2.11292 7.87793 2.12199Z" fill="#C3BBAC" style="fill:#C3BBAC;fill:color(display-p3 0.7648 0.7349 0.6752);fill-opacity:1;"/>
</svg>
