<svg width="24" height="24" viewBox="0 0 24 24" fill="none" xmlns="http://www.w3.org/2000/svg">
<path fill-rule="evenodd" clip-rule="evenodd" d="M2.5 15.75V5.5C2.5 4.94772 2.94772 4.5 3.5 4.5C3.74815 4.5 3.9752 4.59039 4.15 4.74004L11.0411 10.5618L20.9735 4.64966C21.1264 4.55478 21.3068 4.5 21.5 4.5C22.0523 4.5 22.5 4.94772 22.5 5.5V15.7363L22.5 15.75C22.5 17.3227 21.2899 18.6127 19.75 18.7397V18.75H5.5C3.84315 18.75 2.5 17.4069 2.5 15.75ZM4.5 7.65392L15.2668 16.75H5.5C4.94772 16.75 4.5 16.3023 4.5 15.75V7.65392ZM20.5 7.259L12.6573 11.9273L18.3659 16.75H19.5C20.0523 16.75 20.5 16.3023 20.5 15.75L20.5 7.259Z" fill="#2B2B2B" style="fill:#2B2B2B;fill:color(display-p3 0.1700 0.1700 0.1700);fill-opacity:1;"/>
</svg>
